<svg width="71" height="27" viewBox="0 0 71 27" fill="none" xmlns="http://www.w3.org/2000/svg">
<path d="M69.8549 21.7C70.1564 21.5 69.8549 20.9 69.5535 21.1C68.5488 21.7 67.544 22.3 66.5393 22.8C66.2379 22.4 65.9365 22.1 65.635 21.7C65.1327 21.1 65.1327 20.3 65.1327 19.6C66.0369 20.2 67.1421 20.7 68.1469 21.4C68.5488 21.6 68.8502 21.1 68.4483 20.8C67.4436 20.2 66.2379 19.6 65.1327 19C66.1374 18.3 67.3431 17.9 68.6493 17.8C68.9507 18.8 69.2521 19.8 69.453 20.7C69.5535 21.1 70.1564 20.9 70.0559 20.5C68.2474 12.7 63.2237 2.60003 54.6834 0.400028C47.0474 -1.49997 36.2966 2.90003 34.89 11.3C34.89 11.4 34.89 11.5 34.89 11.5C23.1346 11.3 11.2786 14 0.829352 19.7C0.427459 19.9 0.82936 20.5 1.13078 20.3C11.4796 14.7 23.1346 12 34.6891 12.2C35.6938 15.5 36.2966 19.5 38.8085 22.1C41.2199 24.6 45.2388 25.8 48.6549 26.4C56.09 27.6 63.6256 25.7 69.8549 21.7ZM42.0237 23.4C42.1241 19.7 43.0284 16.2 44.9374 13.1C45.2388 13.1 45.4398 13.2 45.7412 13.2C45.3393 15.1 45.6407 17 45.1384 18.9C44.636 20.8 44.3346 22.6 44.636 24.5C43.7317 24.2 42.8275 23.9 42.0237 23.4ZM37.7033 18.8C38.3061 16.2 42.1241 15.6 42.0237 12.7C42.4256 12.7 42.8275 12.8 43.2293 12.9C42.8275 14.7 41.6218 15.9 40.7175 17.4C40.0142 18.6 39.5118 19.9 39.2104 21.2C38.5071 20.4 38.0047 19.6 37.7033 18.8ZM36.8995 16.8C37.9042 15.3 39.0094 13.9 40.3156 12.5C40.3156 12.5 40.3156 12.5 40.3156 12.4C40.818 12.4 41.2199 12.5 41.7222 12.5C41.7222 12.5 41.7222 12.5 41.7222 12.6C41.7222 15.3 38.3061 16 37.5023 18.3C37.2009 17.8 37 17.3 36.8995 16.8ZM36.1962 14.6C36.799 13.8 37.5023 13.1 38.3061 12.4C38.909 12.4 39.4113 12.5 40.0142 12.5C38.8085 13.7 37.8038 15.1 36.799 16.5C36.5981 15.8 36.3971 15.2 36.1962 14.6ZM37.8038 6.50003C39.0094 8.00003 39.0094 10.3 40.2151 11.8C39.7128 11.8 39.1099 11.7 38.6075 11.7C37.8038 10.7 37.1004 9.60003 36.5981 8.50003C36.8995 7.80003 37.3014 7.10003 37.8038 6.50003ZM42.3251 12C41.1194 10.9 41.6218 9.10003 41.3203 7.70003C41.1194 6.50003 40.617 5.40003 39.9137 4.40003C39.9137 4.40003 39.9137 4.40003 39.8132 4.40003C40.617 3.80003 41.5213 3.20003 42.4256 2.70003C42.526 4.80003 42.4256 7.00003 42.526 9.10003C42.526 10.3 42.727 11.3 43.3298 12.2C43.1289 12.1 42.727 12.1 42.3251 12ZM49.6597 0.700028C47.6502 4.40003 46.4445 8.30003 45.8417 12.5L45.8417 12.6C45.6407 12.6 45.5402 12.5 45.3393 12.5C44.8369 8.80003 46.6455 5.20003 45.8417 1.40003C47.0474 1.00003 48.3535 0.800028 49.6597 0.700028ZM54.2815 1.00003C52.7744 2.20003 51.2673 3.40003 50.2625 5.10003C48.8559 7.40003 48.1526 10.3 47.2483 12.8C46.8464 12.7 46.4445 12.6 46.0426 12.6C46.0426 12.6 46.0426 12.6 46.0426 12.5C46.6455 8.30003 47.9516 4.40003 49.9611 0.600028C51.4682 0.600028 52.9753 0.700028 54.2815 1.00003ZM61.7166 18.1C61.817 20.3 62.7213 22.3 64.1279 24C63.726 24.2 63.3241 24.3 62.8218 24.5C62.2189 23.3 61.3147 22.6 60.6113 21.4C59.8075 20.2 59.5061 18.5 59.2047 17.1C60.109 17.4 60.9128 17.7 61.7166 18.1ZM61.3147 24.9C58.8028 22.5 57.1952 19.5 56.5924 16.1C57.3962 16.4 58.0995 16.7 58.9033 17C59.1042 18.4 59.5061 19.9 60.109 21.2C60.7118 22.4 61.817 23.3 62.5203 24.6C62.2189 24.6 61.817 24.8 61.3147 24.9ZM57.999 25.7C55.2862 22.8 53.9801 19.2 54.181 15.3C54.8843 15.5 55.5876 15.7 56.291 16C56.8938 19.5 58.5014 22.6 61.0132 25C60.0085 25.3 59.0038 25.5 57.999 25.7ZM54.7838 26C52.1715 22.9 53.6786 18.3 52.272 14.6C52.8748 14.8 53.3772 14.9 53.9801 15.1C53.7791 19 55.0853 22.7 57.6976 25.7C56.6929 25.9 55.7886 26 54.7838 26ZM59.3052 16.3C60.4104 15.4 61.5156 14.8 62.8218 14.4C64.0275 14 65.7355 13.2 66.9412 13.5C67.2426 14.1 67.544 14.8 67.745 15.4C65.5346 15.5 63.4246 16.2 61.5156 17.3C60.8123 17 60.109 16.6 59.3052 16.3ZM62.7213 14.1C61.3147 14.6 60.109 15.3 58.9033 16.2C58.2 15.9 57.3962 15.6 56.6929 15.4C59.3052 13.1 62.3194 11.7 65.635 11C66.0369 11.7 66.4388 12.5 66.7402 13.2C65.5346 13 63.927 13.7 62.7213 14.1ZM56.4919 15.3C55.7886 15.1 55.0853 14.9 54.4824 14.7C57.2957 11.8 60.8123 10 64.8312 9.40003C65.1327 9.90003 65.4341 10.3 65.7355 10.8C62.1184 11.4 59.1042 12.9 56.4919 15.3ZM54.0805 14.5C53.4777 14.3 52.8748 14.2 52.272 14C52.7744 13.8 53.0758 13.5 53.4777 13C53.7791 12.6 54.0805 12.2 54.382 11.8C55.0853 11.1 55.9895 11.1 56.7933 10.6C57.3962 10.2 57.8985 9.50003 58.4009 9.00003C59.7071 7.90003 61.1137 7.10003 62.6208 6.50003C63.3241 7.30003 63.927 8.10003 64.5298 9.00003C60.5109 9.60003 56.8938 11.5 54.0805 14.5ZM51.8701 14.6C53.4777 18.2 51.9706 22.9 54.382 26.1C54.0805 26.1 53.7791 26.1 53.3772 26.1C50.9658 22.9 50.4635 18.2 50.5639 14.3C51.0663 14.4 51.4682 14.5 51.8701 14.6ZM48.3535 13.1C48.9564 10.9 50.8654 9.40003 52.0711 7.50003C53.5782 5.00003 55.6881 3.80003 58.2 2.70003C58.9033 3.10003 59.5061 3.50003 60.109 4.00003C57.8985 4.40003 56.291 6.10003 54.7839 7.70003C53.1763 9.50003 51.7696 11.4 50.4635 13.5C49.7602 13.4 49.0568 13.2 48.3535 13.1ZM45.0379 12.4C44.636 12.3 44.3346 12.3 43.9327 12.2C42.8275 10.8 43.0284 9.00003 43.0284 7.30003C43.0284 5.70003 43.0284 4.10003 42.9279 2.60003C43.7317 2.20003 44.636 1.80003 45.5402 1.60003C46.344 5.20003 44.5355 8.70003 45.0379 12.4ZM44.9374 24.7C44.5355 22.1 45.4398 20.1 45.8417 17.6C46.0426 16.2 45.7412 14.8 46.0426 13.3C46.4445 13.4 46.7459 13.4 47.1478 13.5C46.8464 16 46.7459 18.5 46.7459 21.1C46.7459 22.6 46.8464 24.1 47.4493 25.5C46.545 25.2 45.7412 25 44.9374 24.7ZM50.363 14.2C50.2625 18.2 50.6644 22.8 53.0758 26.1C52.5734 26.1 52.1715 26.1 51.6692 26C48.5545 22.6 48.3535 18.1 48.3535 13.7C49.0568 13.9 49.6597 14 50.363 14.2ZM64.8312 21.5C64.9317 21.7 65.1327 21.9 65.3336 22C65.635 22.3 65.9365 22.6 66.1374 23C65.5346 23.3 65.0322 23.5 64.4293 23.8C63.0227 22.2 62.2189 20.3 62.018 18.2C62.9222 18.6 63.8265 19 64.6303 19.5C64.6303 20.1 64.6303 20.9 64.8312 21.5ZM64.9317 18.8C63.927 18.4 62.9222 17.9 62.018 17.5C63.8265 16.4 65.836 15.8 67.9459 15.7C68.1469 16.3 68.4483 16.9 68.6493 17.5C67.2426 17.6 66.0369 18 64.9317 18.8ZM62.4199 6.30003C60.2094 7.20003 58.9033 8.40003 57.1952 10C56.4919 10.6 55.4872 10.7 54.6834 11.3C53.5782 12.1 53.2767 13.5 51.8701 14C51.7696 13.9 51.6692 13.9 51.6692 14C51.3677 13.9 51.0663 13.8 50.7649 13.8C52.7744 10.3 56.1905 5.20003 60.4104 4.50003C61.1137 4.90003 61.817 5.60003 62.4199 6.30003ZM57.8985 2.50003C55.7886 3.40003 53.7791 4.40003 52.3725 6.30003C51.4682 7.60003 50.5639 8.90003 49.5592 10.2C48.8559 11.1 48.3535 11.9 48.0521 13C47.8511 13 47.6502 12.9 47.5497 12.9C48.3535 10.7 49.0568 8.50003 49.9611 6.40003C50.9658 4.20003 52.7744 2.70003 54.6834 1.20003C55.3867 1.40003 55.9895 1.60003 56.5924 1.90003C57.0948 2.00003 57.4966 2.20003 57.8985 2.50003ZM39.8132 4.50003C39.8132 4.50003 39.8132 4.60003 39.8132 4.50003C40.9184 6.20003 41.2199 7.80003 41.2199 9.70003C41.2199 10.6 41.3203 11.3 41.9232 12C41.5213 12 41.1194 11.9 40.7175 11.9C39.3109 10.4 39.4113 8.00003 38.1052 6.30003C38.5071 5.60003 39.1099 5.10003 39.8132 4.50003ZM36.3971 8.80003C36.8995 9.80003 37.5023 10.8 38.2057 11.6C37.3014 11.5 36.3971 11.5 35.5933 11.5C35.5933 11.5 35.5933 11.5 35.5933 11.4C35.6938 10.5 35.9952 9.60003 36.3971 8.80003ZM37.9042 12.3C37.3014 12.9 36.6985 13.5 36.0957 14.2C35.8948 13.5 35.6938 12.8 35.4929 12.2C36.2966 12.2 37.1004 12.2 37.9042 12.3ZM39.3109 21.4C39.7128 19.6 40.5166 18 41.5213 16.5C42.3251 15.3 43.1289 14.3 43.5308 12.8C43.9327 12.9 44.2341 12.9 44.636 13C42.8275 16.2 41.8227 19.6 41.7222 23.2C41.3203 23 40.9184 22.7 40.5166 22.5C40.1147 22.2 39.7128 21.8 39.3109 21.4ZM47.7507 25.5C46.0426 22.3 46.9469 17 47.3488 13.5C47.5497 13.5 47.7507 13.6 47.9516 13.6C47.9516 18 48.1526 22.5 51.1668 25.9C50.7649 25.9 50.363 25.8 49.9611 25.8C49.3583 25.8 48.5545 25.6 47.7507 25.5Z" fill="#91715B"/>
</svg>
