<svg width="101" height="73" viewBox="0 0 101 73" fill="none" xmlns="http://www.w3.org/2000/svg">
<g clip-path="url(#clip0_1047_9383)">
<path d="M13.1218 17.0113C14.6339 16.099 30.8299 9.08704 26.4185 3.5776C24.5815 1.25219 20.47 2.80843 18.6454 4.22156C16.7633 5.80633 15.227 8.11063 14.209 10.8758C14.1341 11.0368 14.0841 11.2157 14.0091 11.3767C13.7092 12.128 13.4217 12.8971 13.1343 13.6842L12.7594 14.7396L12.6094 15.151C12.611 15.1927 12.611 15.2345 12.6094 15.2762C11.6872 18.0375 10.9143 20.896 10.2975 23.8266C10.1101 18.8001 8.44796 2.02137 4.41146 8.69351C0.824851 14.6144 6.24851 23.8266 9.59768 27.3147C9.01342 30.8389 8.64958 34.4307 8.51045 38.0473C8.4977 38.1238 8.4977 38.2034 8.51045 38.2799C8.51045 39.2995 8.43547 40.3012 8.43547 41.3208C8.43513 45.5286 8.74088 49.7251 9.34774 53.8422C8.46262 50.5375 7.0404 47.582 5.19877 45.2203C3.8741 43.7893 1.59966 43.038 0.437447 45.2203C-0.937213 47.8856 1.22475 50.8192 2.53693 52.3754C4.69674 54.9443 7.25498 56.7353 9.99758 57.5987C11.0633 63.0253 12.6578 68.21 14.7339 73L15.4212 72.374C14.3621 69.9173 13.4307 67.3524 12.6344 64.7001C12.6699 64.6612 12.6997 64.6125 12.7219 64.557C15.2756 61.1679 17.3539 57.1124 18.8454 52.608C19.3328 50.9444 20.6949 46.4367 18.408 46.4009C16.1211 46.3652 14.3715 50.211 13.5217 52.608C12.4706 55.5553 11.9184 58.8152 11.9096 62.1243C10.2041 55.6491 9.30735 48.7951 9.26026 41.8753H9.33524C12.1288 39.4449 14.5962 36.319 16.6209 32.6452C17.5082 30.9996 19.7577 27.3862 18.208 25.186C16.6584 22.9858 14.3215 26.3666 13.3592 27.7261C11.8178 30.0863 10.5063 32.7338 9.46021 35.5967C9.89538 29.1819 11.0561 22.911 12.8969 17.0292C12.9712 17.0589 13.0503 17.0526 13.1218 17.0113ZM23.9816 3.79226C29.6802 6.04611 21.3073 11.0547 20.0701 11.7702L13.3468 15.634L13.4842 15.2225C13.6009 14.8886 13.7258 14.5488 13.8591 14.2029C14.6915 13.2019 15.582 12.3042 16.521 11.5198C18.1211 9.94858 19.8399 8.64049 21.6447 7.62024C21.8696 7.49503 21.7697 6.97628 21.5447 7.10149C19.6289 8.19374 17.8054 9.59186 16.1086 11.2693C15.5712 11.7881 14.9339 12.3247 14.334 12.9508C16.371 7.817 19.4577 2.00348 23.9816 3.79226ZM4.274 12.3963C4.19902 10.3571 5.21126 9.44479 7.28575 9.62367L7.69815 10.8222C8.28003 12.3469 8.70115 13.9865 8.94784 15.6876C9.41312 18.3831 9.6067 21.16 9.5227 23.9339C8.80886 22.039 8.18267 20.079 7.64816 18.0667C7.57318 17.7447 7.21077 17.8699 7.28575 18.2098C7.91426 20.7269 8.6919 23.1626 9.61018 25.4901C9.62628 25.5233 9.64777 25.5505 9.6728 25.5692C9.69782 25.5879 9.72565 25.5977 9.75389 25.5977C9.78213 25.5977 9.80996 25.5879 9.83498 25.5692C9.86001 25.5505 9.8815 25.5233 9.8976 25.4901C9.8976 25.669 9.8976 25.8658 9.79763 26.0625C7.16078 23.2542 3.39921 17.3691 4.274 12.3963ZM2.87434 51.2664C2.56192 50.8908 2.262 50.4793 1.97457 50.0679C1.78243 49.9279 1.6168 49.7234 1.49179 49.472C1.36679 49.2205 1.28612 48.9295 1.25666 48.6238C1.2272 48.3181 1.24982 48.0067 1.3226 47.7162C1.39538 47.4257 1.51616 47.1647 1.67464 46.9554C1.58716 45.0593 2.16202 44.4154 3.38672 45.0593C3.99837 45.3476 4.55171 45.8449 4.99882 46.5083C5.68688 47.3931 6.28055 48.4177 6.76088 49.5492C7.41606 51.0077 8.00464 52.5254 8.52295 54.0927C7.28041 52.2881 5.9749 50.5746 4.61141 48.9589C4.43646 48.7085 4.16152 49.102 4.34898 49.3345L6.84836 52.6259C7.70854 53.624 8.46954 54.7855 9.1103 56.0782C7.79816 55.5283 6.53882 54.7472 5.36123 53.7528C4.47568 53.0464 3.64246 52.2134 2.87434 51.2664ZM16.8209 48.6011C17.2583 48.3149 18.6329 48.2434 18.8454 49.1199C18.9329 49.4955 18.4955 50.7834 18.383 51.1591C17.9682 52.7669 17.4362 54.3078 16.7959 55.7562C15.6266 58.3443 14.2648 60.7433 12.7344 62.9113V61.9633C13.3842 59.0297 15.0963 56.8116 15.8836 53.9496C15.9711 53.6276 15.6087 53.4845 15.5212 53.8065C14.8714 56.1676 13.5967 58.0638 12.8094 60.2997C13.0968 55.7383 14.259 50.3362 16.8209 48.6011ZM11.9596 31.9655C12.5369 30.7246 13.1983 29.5683 13.9341 28.5132C14.3604 27.9176 14.8202 27.3732 15.3088 26.8854C15.8336 26.0804 16.3085 26.2772 16.7209 27.4757C17.6582 27.905 17.8331 28.5132 17.2708 29.2644C16.9958 29.8726 16.7209 30.445 16.4335 31.0532C15.7153 32.4473 14.9303 33.7682 14.0841 35.0064C12.6296 37.0951 11.0157 38.9432 9.27276 40.5158V40.176C10.8599 37.8148 12.2095 35.1674 13.6842 32.6452C13.8341 32.3769 13.5717 32.0013 13.4092 32.2696C12.0221 34.6487 10.7224 37.1708 9.23527 39.4247C9.23527 39.0491 9.23527 38.6555 9.23527 38.2799C10.185 36.1512 10.9973 33.9868 11.9596 31.9655Z" fill="#91715B"/>
<path d="M100.563 45.2025C99.413 42.9665 97.1636 43.682 95.8389 45.0773C93.972 47.4398 92.5351 50.4174 91.6524 53.7529C92.2593 49.6357 92.565 45.4392 92.5647 41.2314C92.5647 40.2118 92.5647 39.2101 92.4897 38.2084C92.5022 38.1259 92.5022 38.0405 92.4897 37.958C92.3527 34.3399 91.9845 30.7473 91.39 27.2253C94.7392 23.7372 100.138 14.525 96.5762 8.60413C92.5522 1.94988 90.8901 18.7286 90.7277 23.6835C90.1108 20.753 89.3379 17.8945 88.4157 15.1332C88.4141 15.0915 88.4141 15.0497 88.4157 15.008L88.2658 14.5786L87.9159 13.6127C87.5909 12.7004 87.2535 11.8239 86.8911 10.9295L86.8161 10.7328C85.8592 8.14807 84.4569 5.95609 82.7421 4.36473C80.8551 2.73694 76.4937 1.00183 74.6067 3.43456C70.1578 9.10499 86.4162 16.0991 87.8784 17.0114C87.9513 17.0468 88.0304 17.0468 88.1033 17.0114C89.9463 22.8784 91.1031 29.1391 91.5275 35.5431C90.4963 32.6716 89.1879 30.0221 87.6409 27.6725C86.6412 26.2772 84.2168 23.1469 82.7921 25.1324C81.3675 27.118 83.5044 30.9996 84.3792 32.5916C86.404 36.2654 88.8714 39.3913 91.6649 41.8217H91.7274C91.6776 48.7602 90.7766 55.6321 89.0656 62.1243C89.0603 58.9423 88.5609 55.8018 87.6034 52.93C86.7536 50.4257 84.8416 46.3294 82.6047 46.3473C80.3677 46.3652 81.6549 50.8193 82.1423 52.4828C83.6344 57.0169 85.7218 61.0979 88.2908 64.5034C88.313 64.5589 88.3428 64.6076 88.3782 64.6465C87.582 67.2988 86.6506 69.8637 85.5914 72.3204L86.2788 72.9464C88.3549 68.1564 89.9493 62.9717 91.0151 57.5451C93.6597 56.7157 96.1354 55.0264 98.2508 52.608C99.588 51.0697 102 47.993 100.563 45.2025ZM92.1023 15.6877C92.3332 14.4279 92.6213 13.191 92.9646 11.9849C93.1877 11.1781 93.4422 10.3898 93.7269 9.62373C95.8139 9.44486 96.8137 10.3571 96.7387 12.3963C97.601 17.387 93.8394 23.2542 91.2275 26.0984C91.2057 25.9054 91.1765 25.7143 91.1401 25.526C91.1562 25.5592 91.1777 25.5863 91.2027 25.605C91.2277 25.6238 91.2555 25.6336 91.2838 25.6336C91.312 25.6336 91.3398 25.6238 91.3649 25.605C91.3899 25.5863 91.4114 25.5592 91.4275 25.526C92.3438 23.1895 93.1133 20.7412 93.7269 18.2099C93.8144 17.87 93.452 17.7448 93.3645 18.0668C92.8558 20.0742 92.2503 22.0287 91.5525 23.9161C91.4608 21.1498 91.646 18.3789 92.1023 15.6877ZM81.405 12.1101C79.9878 11.4187 78.6057 10.588 77.2685 9.62373C76.628 9.16044 76.0419 8.55692 75.5314 7.83496C75.144 5.00869 75.6314 3.66711 77.0061 3.81021C81.5424 2.02143 84.6292 7.85284 86.6662 12.9687C86.0663 12.3427 85.4165 11.806 84.8916 11.2873C83.1937 9.62225 81.3701 8.23616 79.4555 7.15522C79.2305 7.03001 79.1305 7.54875 79.3555 7.67397C81.1603 8.69421 82.879 10.0023 84.4792 11.5735C85.4209 12.3518 86.3118 13.2498 87.1411 14.2567L87.516 15.2584L87.6534 15.6877L81.405 12.1101ZM86.9161 35.078C86.0664 33.8444 85.2811 32.5232 84.5667 31.1248C84.2793 30.5524 83.9918 29.98 83.7294 29.3361C83.1545 28.549 83.342 27.9408 84.2793 27.5473C84.6917 26.3488 85.1665 26.152 85.6914 26.957C86.18 27.4448 86.6397 27.9892 87.0661 28.5848C87.7979 29.6402 88.4551 30.7966 89.0281 32.0371C90.0028 34.0584 90.8151 36.2228 91.6774 38.3336C91.6774 38.7092 91.6774 39.1028 91.6774 39.4784C90.1903 37.2067 88.8906 34.6845 87.491 32.3233C87.341 32.055 87.0786 32.4306 87.2285 32.699C88.7032 35.2211 90.0528 37.8685 91.6399 40.2297C91.6497 40.2361 91.6604 40.2395 91.6712 40.2395C91.682 40.2395 91.6926 40.2361 91.7024 40.2297V40.5696C89.9663 38.978 88.3608 37.1119 86.9161 35.0065V35.078ZM82.8796 52.143C82.5728 51.3911 82.3613 50.5675 82.2548 49.7102C82.3672 48.5833 83.417 48.1719 84.1793 48.6727C85.8789 49.7997 87.0161 53.6634 87.5534 56.0067C87.8762 57.4189 88.094 58.8759 88.2033 60.3535C87.4035 58.1175 86.1288 56.2214 85.4665 53.8423C85.379 53.5203 85.0166 53.6634 85.1041 53.9854C85.9164 56.8653 87.6034 59.1013 88.2658 62.0528C88.2783 62.3507 88.2783 62.6493 88.2658 62.9472C86.8321 60.9038 85.5429 58.6629 84.4167 56.2572C83.8133 54.9344 83.2986 53.5329 82.8796 52.0714V52.143ZM99.0256 50.0859C98.7257 50.4973 98.4258 50.9087 98.1258 51.2844C97.3749 52.2219 96.5631 53.0545 95.7014 53.7707C94.4998 54.7719 93.215 55.5532 91.8774 56.0962C92.5261 54.8071 93.2908 53.6463 94.1518 52.6438L96.6512 49.3525C96.8262 49.1199 96.5637 48.7264 96.3888 48.9768C95.1391 50.6225 93.6394 52.2324 92.4647 54.1106C92.9922 52.5466 93.5847 51.0294 94.2393 49.5671C94.7029 48.4386 95.275 47.4089 95.9389 46.5083C96.4095 45.8513 96.984 45.3666 97.6135 45.0952C98.8632 44.4512 99.413 45.0952 99.3255 46.9913C99.4814 47.2008 99.5999 47.4607 99.6711 47.7492C99.7423 48.0377 99.7641 48.3465 99.7347 48.6496C99.7054 48.9527 99.6256 49.2413 99.5022 49.4912C99.3789 49.7411 99.2154 49.945 99.0256 50.0859Z" fill="#91715B"/>
<path d="M28.3931 49.5672L29.9927 48.0825L31.4548 46.6873C31.9672 46.1864 32.4671 45.7034 32.9294 45.2205C33.6168 44.5407 34.3166 43.7716 35.0164 42.9308C35.7162 42.0901 36.3536 41.2852 36.9409 40.5518L38.8905 37.9223L40.4776 34.6846C40.7082 34.2949 40.9251 33.8889 41.1274 33.4682L41.7398 32.1624C41.9772 31.6794 42.1896 31.1786 42.4021 30.6777C42.241 30.0091 42.1239 29.3204 42.0522 28.6206C41.9897 27.7889 41.9604 26.9528 41.9647 26.1163C41.9704 24.7949 42.0289 23.475 42.1397 22.1631C42.2663 20.7197 42.4457 19.2867 42.677 17.8701C42.902 16.4211 43.1894 14.9722 43.5143 13.5233C43.832 12.1121 44.2033 10.7267 44.6265 9.37336C45.0117 8.09619 45.4585 6.85894 45.9637 5.67059C46.3972 4.60094 46.9082 3.59966 47.4883 2.68333C47.9798 1.90471 48.5532 1.24081 49.1879 0.715673C49.7416 0.251737 50.3709 0.00493999 51.0125 0.000161409C51.634 -0.0164249 52.2536 0.104244 52.8495 0.357917C53.3148 0.548186 53.7427 0.891177 54.0992 1.35963C54.4083 1.78945 54.6436 2.31603 54.7865 2.89798C54.9325 3.55074 55.0001 4.2342 54.9865 4.9193C54.9797 5.87317 54.8916 6.82228 54.724 7.74557C54.5358 8.83028 54.2935 9.89433 53.9992 10.9296C53.6868 12.0386 53.3119 13.1835 52.8995 14.3462C52.4871 15.5089 52.0247 16.6895 51.5248 17.9237C51.025 19.158 50.5251 20.267 49.9877 21.4118C49.4503 22.5567 48.9005 23.6657 48.3631 24.7211C47.8258 25.7765 47.2884 26.7782 46.751 27.7262C46.2136 28.6743 45.7388 29.515 45.2764 30.2484C45.3517 31.3257 45.4939 32.3913 45.7013 33.4324C45.8899 34.3961 46.1717 35.3173 46.5386 36.1693C46.8535 36.9242 47.2801 37.5713 47.7883 38.0654C48.3202 38.5554 48.9429 38.8047 49.5753 38.7809C49.923 38.7873 50.2677 38.6898 50.5876 38.4947C50.8927 38.2939 51.1749 38.0286 51.4249 37.7076C51.3749 37.004 51.3374 36.3243 51.3124 35.6684C51.3124 35.0065 51.3124 34.3447 51.3124 33.6828C51.3107 32.7663 51.3608 31.851 51.4624 30.946C51.5526 30.1477 51.7078 29.3673 51.9247 28.6206C52.0903 28.0159 52.3365 27.463 52.6496 26.9928C52.7729 26.8036 52.9218 26.6521 53.0872 26.5476C53.2525 26.4431 53.431 26.3876 53.6118 26.3846C53.8075 26.3734 54.0007 26.4502 54.1643 26.6042C54.3279 26.7582 54.4538 26.9817 54.5241 27.2432C54.7366 27.929 54.835 28.6761 54.8115 29.4256C54.7987 30.7927 54.6429 32.1493 54.3491 33.4503C54.0025 34.9324 53.4874 36.3225 52.8245 37.5645C53.012 38.5841 53.2119 39.5679 53.4494 40.5339C53.6868 41.4998 53.8992 42.3226 54.1117 43.0918C54.2903 43.7147 54.4243 44.362 54.5116 45.0237C54.5556 45.3486 54.5848 45.6772 54.5991 46.0075C54.603 46.2114 54.573 46.4138 54.5116 46.5978C54.4514 46.7719 54.3758 46.9342 54.2867 47.0808C54.1944 47.2149 54.0892 47.3293 53.9742 47.4207C53.8639 47.5116 53.7392 47.5609 53.6118 47.5638C53.49 47.5499 53.3732 47.4879 53.2744 47.3849C53.061 47.1191 52.8977 46.7808 52.7995 46.4011C52.5673 45.5961 52.3833 44.7643 52.2497 43.9147C52.0497 42.8056 51.8623 41.2494 51.6498 39.2638C51.3353 39.6258 50.9859 39.921 50.6126 40.1403C50.2164 40.372 49.7906 40.4817 49.3629 40.4623C48.9379 40.4529 48.5165 40.3503 48.1132 40.1582C47.0977 39.6394 46.1964 38.7444 45.5013 37.5645C44.77 36.3497 44.2061 34.9476 43.8392 33.4324C42.9395 35.2212 42.1022 36.849 41.3399 38.5304C40.6044 40.0963 39.9245 41.7142 39.3029 43.378C38.7626 44.818 38.307 46.3198 37.9407 47.8679C37.6246 49.1316 37.4557 50.4611 37.4408 51.8032C37.416 52.9633 37.6195 54.11 38.0282 55.1124C38.4346 56.0576 39.0023 56.8393 39.6778 57.3842C40.452 58.0264 41.2973 58.4741 42.1771 58.7079C43.2068 58.9889 44.2531 59.1267 45.3014 59.1193C46.5106 59.108 47.7177 58.9705 48.913 58.7079C50.203 58.4159 51.4799 58.0158 52.737 57.5094C54.0407 56.9783 55.3217 56.3392 56.5736 55.5954C57.8212 54.8559 59.0321 53.9953 60.1977 53.0195C61.3181 52.0806 62.3875 51.0222 63.3969 49.8534C64.3181 48.7542 65.1559 47.5191 65.8963 46.1685C66.5968 44.9101 67.1651 43.512 67.5834 42.0186C67.9963 40.583 68.2086 39.0454 68.2082 37.4929V36.9026C68.2196 36.7062 68.2196 36.5088 68.2082 36.3124L66.7086 35.7757L65.209 35.1854C64.7091 35.0065 64.2342 34.8456 63.7593 34.7203C63.3472 34.6081 62.9291 34.5482 62.5096 34.5415C62.2567 34.5302 62.0041 34.5724 61.7598 34.6667C61.575 34.7377 61.3983 34.8462 61.2349 34.9887C61.0946 35.1112 60.9609 35.2488 60.835 35.4001C60.7097 35.5632 60.576 35.7127 60.4351 35.8473C60.2834 36.0052 60.1145 36.1261 59.9353 36.205C59.6958 36.3051 59.4473 36.3534 59.1979 36.3481C59.0194 36.3503 58.8433 36.2889 58.6856 36.1693C58.5469 36.0603 58.4239 35.9146 58.3232 35.7399C58.1534 35.3929 58.0579 34.9827 58.0482 34.5594C58.0396 34.2815 58.0719 34.0042 58.1429 33.7454C58.214 33.4865 58.3222 33.2519 58.4606 33.0568C58.7449 32.6678 59.0806 32.3637 59.4479 32.1624C59.8498 31.9429 60.2698 31.7986 60.6976 31.7331C61.0457 31.6685 61.3962 31.6326 61.7473 31.6258C62.2825 31.6294 62.8154 31.7255 63.3344 31.912C63.8468 32.1087 64.3592 32.3413 64.859 32.6096C65.3589 32.8779 65.8463 33.182 66.3337 33.5219C66.8211 33.8617 67.3084 34.1479 67.8083 34.4341C68.2935 34.7153 68.7901 34.9542 69.2954 35.1496C69.7921 35.3447 70.3051 35.441 70.8201 35.4359C71.0939 35.4406 71.3644 35.3485 71.6074 35.1675C71.8527 35.0016 72.0869 34.8041 72.3072 34.5772L72.982 33.9691C73.2042 33.7768 73.4597 33.6776 73.7193 33.6828C73.8192 33.6646 73.9206 33.6758 74.0173 33.7158C74.1141 33.7558 74.204 33.8237 74.2817 33.9154C74.3847 34.0899 74.4382 34.3133 74.4317 34.5415C74.4254 34.7374 74.3871 34.9286 74.3199 35.0994C74.2526 35.2703 74.1582 35.4162 74.0443 35.5253C73.7509 35.8509 73.4269 36.1158 73.082 36.3124C72.7052 36.5308 72.3165 36.7043 71.9198 36.8311C71.588 36.946 71.2488 37.0119 70.9075 37.0279C70.6055 37.0289 70.3041 36.9869 70.0078 36.9026C69.6828 36.9026 69.3329 36.7417 68.983 36.6164V36.8311C68.983 37.2425 69.058 37.6539 69.0705 38.0475C69.083 38.441 69.0705 38.8345 69.0705 39.2281C69.0583 41.1056 68.8129 42.9651 68.3457 44.7196C67.8934 46.4552 67.2752 48.0926 66.5086 49.5851C65.6996 51.1287 64.7687 52.5332 63.7343 53.7708C62.6431 55.099 61.4769 56.2956 60.2477 57.3484C58.9589 58.3942 57.6181 59.303 56.2362 60.0673C54.8635 60.8722 53.4569 61.5533 52.0247 62.1065C50.632 62.6486 49.2171 63.0667 47.7883 63.3587C46.4515 63.6374 45.1026 63.7808 43.7518 63.788C42.4944 63.8097 41.2387 63.6539 40.0027 63.3229C38.9707 63.0529 37.9725 62.5646 37.0409 61.874C36.2614 61.2892 35.5893 60.4496 35.0789 59.4234C34.5942 58.3947 34.3452 57.1756 34.3666 55.9352C34.38 54.9621 34.4765 53.9949 34.654 53.0553C34.8415 51.9463 35.0789 50.7657 35.3788 49.4778C35.6788 48.1898 36.0037 46.9914 36.3661 45.7392C36.7285 44.4871 37.1034 43.3065 37.4533 42.2511C37.3449 42.4855 37.2047 42.6863 37.0409 42.8414L36.0912 43.8789C35.7162 44.3082 35.2789 44.7554 34.8415 45.2384L33.3543 46.723L31.8422 48.2972L30.4675 49.603L29.3928 50.5689C29.1997 50.7569 28.9946 50.9185 28.7805 51.0519C28.6935 51.146 28.5893 51.202 28.4805 51.2129C28.4216 51.2195 28.3626 51.203 28.3097 51.1652C28.2569 51.1274 28.2122 51.0697 28.1806 50.9982C28.1154 50.8412 28.0809 50.6621 28.0806 50.4795C28.0712 50.3013 28.0951 50.1228 28.1501 49.9624C28.205 49.802 28.2889 49.6656 28.3931 49.5672ZM51.2374 1.59217C50.6416 1.58419 50.0611 1.86119 49.5878 2.37924C49.048 2.96579 48.5866 3.68688 48.2257 4.50788C47.7854 5.49141 47.4129 6.53379 47.1134 7.62036C46.7885 8.80095 46.5011 10.0531 46.2386 11.3768C45.9762 12.7005 45.7638 14.06 45.5888 15.4373C45.4138 16.8147 45.2514 18.1384 45.1389 19.4263C45.0264 20.7142 44.9265 21.9127 44.8765 23.0038C44.8265 24.095 44.789 25.0609 44.789 25.848V26.5277C45.417 25.5527 46.0094 24.5317 46.5636 23.4689C47.1801 22.2764 47.7799 21.0064 48.3631 19.6588C48.9505 18.3172 49.5128 16.922 50.0377 15.491C50.5626 14.06 51.0375 12.6468 51.4374 11.2873C51.8083 10.0342 52.1255 8.74988 52.3871 7.44148C52.6033 6.41973 52.721 5.36054 52.737 4.29323C52.7676 3.58974 52.6453 2.88996 52.3871 2.2898C52.2551 2.03941 52.0793 1.84315 51.8775 1.7207C51.6757 1.59825 51.455 1.55393 51.2374 1.59217ZM53.5993 32.9495C53.8024 32.291 53.9655 31.6088 54.0867 30.9102C54.1852 30.324 54.2397 29.7243 54.2492 29.1215C54.26 28.7953 54.2035 28.4718 54.0867 28.1913C54.0343 28.0718 53.96 27.9752 53.8718 27.9121C53.7836 27.849 53.6851 27.8218 53.5868 27.8335C53.492 27.8431 53.3999 27.8835 53.3176 27.9517C53.2353 28.0199 53.165 28.1141 53.1119 28.2271C52.9566 28.5459 52.8345 28.8954 52.7495 29.2646C52.6327 29.7405 52.5489 30.2318 52.4996 30.7314C52.4353 31.2631 52.4019 31.8016 52.3996 32.3413C52.3815 32.8597 52.3815 33.3791 52.3996 33.8975C52.4334 34.4449 52.4919 34.9886 52.5746 35.5253C52.7897 35.0905 52.9778 34.6296 53.1369 34.1479C53.2619 33.7723 53.3994 33.343 53.5368 32.9495H53.5993Z" fill="#91715B"/>
</g>
<defs>
<clipPath id="clip0_1047_9383">
<rect width="101" height="73" fill="white"/>
</clipPath>
</defs>
</svg>
