<svg width="466" height="92" viewBox="0 0 466 92" fill="none" xmlns="http://www.w3.org/2000/svg">
<g clip-path="url(#clip0_30_24)">
<path d="M437.651 60.7669L437.467 60.656L437.282 60.5452C432.203 57.5419 426.545 55.6532 420.682 55.0042C416.369 54.4257 412.002 54.3823 407.679 54.8749C408.878 54.3946 410.077 53.9329 411.275 53.4342C417.079 51.0656 422.755 48.3961 428.281 45.4366C429.683 44.6793 431.085 43.8666 432.468 43.054C433.427 42.4814 432.468 41.2069 431.509 41.6318C424.131 45.3258 416.753 48.7612 409.21 51.9566C412.064 49.6533 414.628 47.0111 416.846 44.0883C418.674 41.6496 420.274 39.0465 421.623 36.3123C422.287 34.964 422.895 33.5788 423.467 32.1566C423.949 31.0716 424.29 29.9295 424.482 28.758C424.869 28.5549 424.703 28.0931 424.482 27.9269C424.491 27.878 424.491 27.828 424.482 27.7791C424.47 27.682 424.431 27.5902 424.369 27.5144C424.307 27.4386 424.225 27.3819 424.132 27.351C424.04 27.3201 423.94 27.3161 423.845 27.3396C423.75 27.363 423.664 27.413 423.596 27.4836C423.482 27.6175 423.377 27.7595 423.283 27.9084H423.08H422.951C420.726 28.4261 418.584 29.253 416.587 30.3649C414.112 31.6575 411.802 33.2452 409.708 35.0933C405.498 38.7194 402.173 43.2621 399.987 48.3734C398.868 51.0084 398.093 53.7772 397.682 56.6111L396.889 56.9066C391.355 58.846 385.822 60.6006 380.289 62.1337C383.715 60.148 386.824 57.6575 389.511 54.7456C391.496 52.643 393.275 50.3545 394.823 47.9116C395.614 46.6725 396.334 45.3899 396.981 44.0698C397.634 43.0077 398.113 41.848 398.401 40.6344C398.448 40.5158 398.448 40.3836 398.401 40.265C398.401 40.1726 398.401 40.0987 398.401 40.0064C398.388 39.8797 398.339 39.7595 398.26 39.6599C398.18 39.5604 398.074 39.4858 397.954 39.4449C397.833 39.4041 397.704 39.3987 397.58 39.4295C397.457 39.4603 397.345 39.5259 397.258 39.6185C394.253 39.8302 391.32 40.6336 388.626 41.9827C385.73 43.3061 383.06 45.0762 380.713 47.2282C378.142 49.6255 376.013 52.4578 374.423 55.5952C373.632 57.1567 372.972 58.7815 372.45 60.4529C372.156 61.349 371.916 62.2618 371.73 63.1865C371.73 63.5743 371.546 63.9622 371.491 64.3501C367.802 65.2551 364.113 66.1971 360.424 66.8436C355.001 67.8964 349.542 68.6906 344.064 69.4663C344.506 69.2816 344.967 69.0969 345.392 68.8937C348.246 67.555 350.928 65.8742 353.378 63.8883C355.721 61.9266 357.832 59.7017 359.668 57.2575C360.576 56.0278 361.419 54.7516 362.195 53.4342C362.877 52.2336 364.039 50.6821 363.744 49.2415C363.733 49.1526 363.699 49.068 363.647 48.9954C363.594 48.9228 363.525 48.8646 363.444 48.826C363.363 48.7874 363.274 48.7697 363.185 48.7745C363.095 48.7793 363.009 48.8065 362.932 48.8536C362.8 48.8175 362.66 48.8175 362.527 48.8536C362.41 48.8872 362.298 48.9369 362.195 49.0014C358.921 49.0593 355.683 49.6842 352.622 50.8484C349.315 52.0377 346.168 53.6321 343.252 55.5952C337.549 59.4437 332.915 64.6808 329.788 70.8146C327.537 70.9809 325.269 71.1286 323.019 71.2395C316.12 71.5719 309.204 71.5719 302.305 71.2395C303.652 70.8885 304.961 70.4452 306.216 70.0204C309.572 68.849 312.799 67.3325 315.844 65.4952C318.904 63.6836 321.761 61.5472 324.365 59.123C325.638 57.9225 326.855 56.685 328.054 55.429C329.35 54.1661 330.423 52.6922 331.226 51.07C331.411 50.6083 330.876 49.9249 330.396 50.3497C330.338 50.3891 330.288 50.4393 330.249 50.4974H330.157C330.073 50.3765 329.952 50.2859 329.812 50.2393C329.673 50.1927 329.522 50.1926 329.382 50.2389L329.087 50.3866C327.847 50.4108 326.613 50.5468 325.398 50.793C323.667 51.0556 321.959 51.4508 320.289 51.9751C313.457 54.0733 307.302 57.9483 302.453 63.2049C301.237 64.535 300.115 65.9483 299.096 67.4346C298.189 68.5425 297.466 69.7899 296.956 71.1286C293.083 70.8885 289.228 70.6115 285.392 70.2051C282.551 69.8911 279.729 69.5402 276.907 69.1339C278.734 68.5393 280.506 67.7853 282.201 66.8805C288.308 63.653 293.455 58.868 297.122 53.0094C298.048 51.5367 298.868 49.9997 299.576 48.4103C300.361 46.9049 300.903 45.2839 301.18 43.6081C301.188 43.5057 301.174 43.4028 301.14 43.3063C301.105 43.2098 301.049 43.1219 300.978 43.0484C300.906 42.9749 300.82 42.9177 300.724 42.8804C300.629 42.8431 300.526 42.8267 300.424 42.8323C300.341 42.6964 300.209 42.5974 300.055 42.5553C299.247 42.4551 298.428 42.5897 297.694 42.9431C296.827 43.2017 295.85 43.4603 295.094 43.7743C293.533 44.3311 292.016 45.004 290.556 45.7875C287.521 47.3848 284.712 49.3786 282.201 51.7165C279.681 54.0647 277.496 56.7497 275.708 59.6956C274.823 61.1607 274.052 62.6922 273.403 64.2762C272.801 65.5733 272.355 66.9373 272.075 68.3396C269.88 67.9887 267.704 67.6193 265.527 67.213C265.496 67.1566 265.452 67.1079 265.4 67.07C265.348 67.0322 265.288 67.0062 265.225 66.9939C265.162 66.9816 265.097 66.9833 265.034 66.9988C264.972 67.0143 264.913 67.0432 264.863 67.0837L262.908 66.6958C264.649 65.5667 266.274 64.2675 267.759 62.8171C269.845 60.8097 271.667 58.5442 273.182 56.0754C276.297 51.1637 277.93 45.4557 277.885 39.637C277.895 39.5758 277.895 39.5134 277.885 39.4523C277.896 39.4004 277.895 39.3467 277.883 39.2952C277.87 39.2437 277.846 39.1957 277.813 39.1548C277.779 39.1139 277.736 39.0812 277.688 39.0592C277.64 39.0371 277.587 39.0263 277.534 39.0275H277.166C275.998 39.3446 274.902 39.8839 273.938 40.6159C272.725 41.4306 271.572 42.3319 270.489 43.3125C266.105 47.2668 262.717 52.2035 260.602 57.7193C260.11 59.0369 259.691 60.3812 259.348 61.7458C258.977 63.0392 258.76 64.3722 258.703 65.7169C255.18 64.9781 251.694 64.2023 248.226 63.3157L243.744 62.1152C243.062 61.9305 242.877 63.0018 243.541 63.2049C249.075 64.8488 254.608 66.2525 260.141 67.4715C260.224 67.5935 260.348 67.6813 260.491 67.7187C260.633 67.756 260.784 67.7404 260.916 67.6747C262.152 67.9333 263.369 68.2104 264.605 68.4505C264.892 71.168 265.707 73.8031 267.003 76.2079C269.872 82.0767 274.663 86.7834 280.578 89.5434C283.437 90.8917 287.218 92.3139 290.427 91.7229C290.524 91.7063 290.615 91.6665 290.693 91.607C290.771 91.5475 290.833 91.47 290.875 91.3812C290.917 91.2923 290.936 91.1947 290.932 91.0966C290.928 90.9985 290.9 90.9029 290.851 90.8178C291.257 89.5249 290.298 87.6594 289.837 86.4774C289.265 85.0731 288.587 83.7147 287.808 82.4139C286.197 79.7199 284.188 77.2852 281.85 75.1921C279.562 73.1512 276.982 71.4641 274.196 70.1867C276.372 70.5376 278.549 70.8701 280.744 71.1471C281.814 71.2949 282.883 71.3687 283.972 71.498C285.241 74.509 287.2 77.1789 289.689 79.2925C292.158 81.6102 294.963 83.5406 298.008 85.0182C301.045 86.5219 304.291 87.5616 307.636 88.1027C309.284 88.3588 310.948 88.4946 312.616 88.5091C314.216 88.6803 315.833 88.4715 317.338 87.8996C317.425 87.8337 317.494 87.7469 317.538 87.6471C317.582 87.5474 317.601 87.438 317.592 87.3292C317.582 87.2204 317.546 87.1157 317.485 87.0249C317.425 86.934 317.342 86.8601 317.245 86.8098C317.261 86.6243 317.223 86.4382 317.135 86.2742C316.267 84.9899 315.224 83.8335 314.036 82.8387C312.926 81.7827 311.762 80.784 310.55 79.8466C306.322 76.5817 301.525 74.1327 296.403 72.6247C303.781 73.1049 311.159 73.3081 318.537 73.1604H320.381C321.117 74.5212 322.049 75.766 323.148 76.8544C324.36 78.1924 325.68 79.428 327.095 80.5484C329.964 82.8122 333.203 84.5619 336.667 85.7201C340.128 86.8706 343.756 87.4325 347.402 87.3824C351.066 87.5755 354.71 86.7305 357.916 84.9443C358.014 84.8724 358.086 84.7709 358.123 84.6548C358.16 84.5386 358.158 84.4138 358.119 84.2985C358.08 84.1831 358.005 84.0833 357.906 84.0134C357.806 83.9436 357.687 83.9073 357.565 83.91H357.307C356.323 82.8428 355.207 81.9056 353.987 81.121C352.733 80.2529 351.46 79.4402 350.15 78.6829C347.356 77.0634 344.417 75.7091 341.371 74.638C338.672 73.6796 335.903 72.9324 333.089 72.4031C340.91 71.812 348.712 70.907 356.458 69.5587L357.159 69.4294C360.024 72.2663 363.219 74.7469 366.677 76.8175C369.958 79.0061 373.528 80.7279 377.282 81.9337C380.534 82.9339 383.94 83.3345 387.334 83.1158C388.913 83.0026 390.477 82.7303 392.001 82.3031C392.773 82.073 393.531 81.7954 394.27 81.4719C395.038 81.1089 395.742 80.6222 396.354 80.0313C396.421 79.9604 396.477 79.8793 396.52 79.7912C396.578 79.7674 396.63 79.7305 396.672 79.6832C396.713 79.6359 396.743 79.5796 396.759 79.5187C396.775 79.4577 396.777 79.3939 396.764 79.3322C396.752 79.2705 396.725 79.2127 396.686 79.1632C395.626 78.0079 394.379 77.04 392.997 76.3003C391.629 75.4588 390.22 74.6881 388.773 73.9915C380.175 69.8193 370.639 67.9666 361.106 68.6167C371.082 66.748 380.937 64.2808 390.618 61.2286C391.921 61.8878 393.271 62.4496 394.657 62.9094C396.354 63.5559 398.051 64.1654 399.766 64.7564C403.375 65.9991 407.075 66.9563 410.833 67.6193C416.971 68.7511 423.289 68.4221 429.277 66.6589C430.814 66.1157 432.301 65.4422 433.722 64.6456C435.05 63.9622 437.098 63.0572 437.725 61.6165C437.783 61.5593 437.827 61.49 437.855 61.4135C437.883 61.3371 437.894 61.2554 437.887 61.1743C437.88 61.0932 437.855 61.0146 437.814 60.9442C437.774 60.8738 437.718 60.8132 437.651 60.7669ZM260.713 62.7986C261.045 61.3987 261.47 60.0226 261.986 58.6797C262.989 56.038 264.295 53.5216 265.878 51.1808C267.478 48.8786 269.334 46.7656 271.411 44.8825C272.444 43.959 273.514 43.0355 274.62 42.2782C273.772 43.9036 272.942 45.529 272.038 47.1174C270.802 49.3154 269.511 51.4948 268.183 53.6374C266.855 55.7799 265.564 57.7932 264.218 59.8434C262.68 61.8647 261.339 64.0296 260.215 66.3079H259.994C260.307 65.0519 260.436 63.8699 260.713 62.7986ZM261.617 65.6061C262.892 64.147 264.051 62.5908 265.084 60.9516C266.505 58.8829 267.888 56.7588 269.234 54.6348C271.651 50.8484 274.104 46.9696 276.262 42.9986C275.625 47.3177 274.152 51.471 271.927 55.2258C270.503 57.5923 268.779 59.7651 266.8 61.6904C265.194 63.1337 263.459 64.4259 261.617 65.5506V65.6061ZM288.214 90.0606L286.166 89.5249C284.574 89.0613 283.02 88.4747 281.518 87.7703C278.639 86.419 276.012 84.5822 273.753 82.34C271.735 80.3433 270.031 78.0515 268.7 75.543C267.963 74.1001 267.346 72.599 266.855 71.0548C270.595 73.6095 274.179 76.3849 277.59 79.3663C281.389 82.6356 284.691 86.385 288.214 90.0052V90.0606ZM280.541 76.8359C282.695 78.7958 284.558 81.0534 286.074 83.5406C286.572 84.3902 287.033 85.2953 287.439 86.1818C284.641 83.243 281.66 80.4854 278.512 77.9257C274.794 74.8509 270.868 72.0368 266.763 69.5033C271.859 70.822 276.576 73.3139 280.541 76.7805V76.8359ZM273.809 68.3396C273.792 68.3937 273.792 68.4518 273.809 68.5059H273.606C274.067 67.3053 274.38 65.9939 274.878 64.8118C275.523 63.2895 276.262 61.809 277.092 60.379C278.747 57.574 280.776 55.0077 283.123 52.7508C285.468 50.4882 288.12 48.567 290.999 47.0435C292.461 46.2696 293.978 45.6029 295.536 45.0487C296.292 44.7902 297.049 44.5316 297.823 44.3284L298.358 44.2176L286.222 55.8723L279.932 61.8935L276.668 65.1628C275.536 66.0459 274.568 67.1212 273.809 68.3396ZM277.258 66.3818L280.615 63.2603L287.107 57.1098L298.561 46.1754C298.377 46.6556 298.211 47.1359 298.008 47.5976C297.33 49.0696 296.566 50.5004 295.721 51.8827C294.009 54.6899 291.945 57.266 289.579 59.5478C287.178 61.7982 284.493 63.7232 281.592 65.2736C279.746 66.2311 277.836 67.0582 275.874 67.7486C276.299 67.3053 276.778 66.8066 277.258 66.3449V66.3818ZM312.487 86.8098C310.854 86.7922 309.226 86.644 307.617 86.3665C304.548 85.839 301.567 84.8814 298.764 83.5221C295.959 82.1534 293.358 80.4004 291.036 78.3135C289.314 76.6768 287.74 74.8905 286.332 72.9757C288.288 74.2316 290.501 75.2105 292.548 76.3003L300.221 80.3268L307.71 84.2425L311.546 86.2557L312.505 86.8098H312.487ZM301.918 76.5589C304.608 77.8497 307.149 79.4289 309.499 81.2688C310.601 82.1391 311.654 83.0702 312.653 84.0578C313.221 84.6115 313.756 85.1974 314.257 85.8124L312.413 84.9443L308.724 83.0973L301.014 79.1262L293.507 75.266C291.94 74.4717 290.353 73.5667 288.73 72.754C290.298 72.9757 291.884 73.1973 293.434 73.5667C296.363 74.258 299.208 75.2675 301.918 76.5773V76.5589ZM300.332 68.3396C301.294 66.9533 302.348 65.6328 303.486 64.387C305.802 61.8629 308.437 59.6524 311.325 57.8116C314.226 55.9857 317.359 54.557 320.639 53.5635C322.294 53.046 323.983 52.6448 325.693 52.3629H326.302L325.675 52.8062C324.402 53.6558 323.129 54.5055 321.82 55.3366C319.182 57.0359 316.526 58.7536 313.87 60.4344L306.068 65.3659C303.984 66.6773 301.789 67.9518 299.742 69.374C299.926 68.9122 300.11 68.5982 300.332 68.3396ZM306.585 66.4926L314.534 61.3764C317.116 59.7141 319.711 58.0641 322.318 56.4264L326.228 54.0068L328.367 52.7877C327.943 53.3419 327.537 53.8775 327.095 54.3762C325.935 55.6754 324.703 56.9086 323.406 58.0702C320.857 60.4485 318.077 62.5647 315.106 64.387C312.126 66.1977 308.968 67.6956 305.681 68.8568C303.946 69.4565 302.179 69.956 300.387 70.3529C302.49 69.1154 304.556 67.6932 306.585 66.4926ZM347.642 85.2214C344.154 85.2891 340.681 84.7645 337.368 83.6699C334.11 82.5452 331.053 80.9052 328.312 78.8122C326.957 77.8099 325.686 76.698 324.513 75.4876C324.033 75.0074 323.572 74.4902 323.129 73.973C324.968 75.1871 326.884 76.2791 328.865 77.2423C331.687 78.6552 334.595 79.889 337.571 80.9363C340.486 81.9584 343.461 82.7973 346.48 83.4482C347.956 83.7807 349.431 84.0578 350.925 84.2979L352.474 84.5749C350.878 84.8703 349.264 85.0554 347.642 85.129V85.2214ZM340.781 76.4111C343.628 77.4219 346.391 78.6571 349.044 80.1051C350.409 80.8624 351.737 81.6936 353.046 82.5617L353.507 82.8941C352.751 82.8941 351.995 82.8018 351.276 82.691C349.782 82.4878 348.306 82.2292 346.83 81.9152C343.812 81.2705 340.837 80.4378 337.922 79.4217C335.141 78.4466 332.419 77.3119 329.769 76.0232C328.22 75.266 326.726 74.4163 325.213 73.5667C325.877 73.5667 326.56 73.5667 327.169 73.5667C328.663 73.6775 330.157 73.8438 331.651 74.0839C334.754 74.5584 337.809 75.3062 340.781 76.3188V76.4111ZM332.038 70.8701H331.632C334.568 65.302 338.809 60.5297 343.99 56.962C346.797 55.0333 349.841 53.4751 353.046 52.326C355.297 51.5739 357.604 50.9995 359.944 50.6083L358.727 51.5687C357.436 52.5107 356.108 53.4157 354.798 54.3577L346.923 59.8988C341.752 63.2266 336.771 66.8401 332.001 70.7223L332.038 70.8701ZM336.28 70.4637L334.067 70.6669C338.918 67.8409 343.455 64.3685 348.048 61.1732L355.758 55.7799C357.012 54.9118 358.248 54.0252 359.446 53.1572C359.815 52.8986 360.258 52.6585 360.701 52.3814C359.978 53.6654 359.171 54.8995 358.284 56.0754C356.507 58.4894 354.431 60.6678 352.105 62.5585C349.841 64.4147 347.364 65.9957 344.728 67.2684C341.998 68.4874 339.102 69.2816 336.28 70.3159V70.4637ZM378.481 72.3107C381.58 73.1213 384.604 74.1965 387.519 75.5245C388.976 76.2079 390.415 76.9467 391.816 77.7225L392.646 78.2212L390.562 78.0919C389.142 77.9626 387.703 77.7964 386.283 77.5932C383.221 77.18 380.189 76.563 377.208 75.7462C372.518 74.3628 367.933 72.6469 363.486 70.6115C368.533 70.4232 373.582 70.9518 378.481 72.1814V72.3107ZM376.729 77.1499C379.772 78.018 382.852 78.6645 385.951 79.237C387.427 79.5326 388.921 79.7542 390.415 79.9204L391.982 80.1051C390.196 80.7245 388.335 81.1034 386.449 81.2318C383.322 81.3326 380.202 80.8889 377.227 79.9204C373.696 78.7219 370.34 77.0572 367.248 74.9704C365.588 73.8807 364.002 72.6801 362.398 71.498C366.957 73.8623 371.763 75.7144 376.729 77.0206V77.1499ZM373.981 61.284C375.144 57.3718 377.137 53.7573 379.824 50.6875C382.51 47.6177 385.827 45.1651 389.548 43.4972C390.848 42.901 392.192 42.407 393.569 42.0196L394.712 41.7241C394.325 42.1489 393.919 42.5922 393.532 42.9801L390.618 45.9353C388.57 48.004 386.504 50.0357 384.439 52.0859C380.75 55.6876 377.061 59.2708 373.556 62.9279C373.686 62.2445 373.815 61.6904 373.981 61.1547V61.284ZM374.552 63.7406L374.018 63.8699C377.706 60.3236 381.488 56.685 385.213 53.0833C387.187 51.2362 389.16 49.223 391.152 47.3206L394.325 44.3099C394.694 43.959 395.1 43.6081 395.505 43.2571C394.895 44.5235 394.217 45.7566 393.477 46.9512C391.963 49.3253 390.214 51.5406 388.257 53.5635C384.27 57.5862 379.669 60.9469 374.626 63.5189C374.626 63.5189 374.589 63.5928 374.552 63.6113V63.7406ZM422.176 30.2911C422.047 30.6974 421.918 31.1222 421.77 31.4916C421.254 32.8399 420.682 34.1883 420.055 35.4812C418.735 38.1906 417.154 40.7641 415.333 43.1648C411.875 47.6241 407.728 51.5023 403.049 54.6532L402.496 54.8749C402.754 54.3023 403.012 53.7297 403.307 53.1941C404.008 51.9012 404.746 50.6267 405.539 49.3523C407.156 46.7245 408.936 44.2014 410.87 41.798C412.735 39.4531 414.73 37.2147 416.846 35.0933C418.506 33.3571 420.405 31.8241 422.176 30.1618V30.2911ZM407.421 39.5262C409.663 37.0099 412.253 34.8269 415.112 33.0431C416.277 32.363 417.477 31.7465 418.709 31.1961C417.713 32.0827 416.735 33.0431 415.813 33.9112C413.564 36.0222 411.446 38.2673 409.468 40.6344C407.568 42.9926 405.807 45.4595 404.193 48.0224C403.363 49.3154 402.57 50.6637 401.832 52.012C401.115 53.1445 400.498 54.3373 399.987 55.5767L399.397 55.7984C400.538 49.6985 403.333 44.0306 407.476 39.4153L407.421 39.5262ZM398.586 58.7721C400.4 58.191 402.248 57.7223 404.119 57.3683C407.795 56.6669 411.537 56.3697 415.278 56.4818C419.011 56.5929 422.721 57.1068 426.345 58.0148C427.949 58.4396 429.517 58.9568 431.048 59.5294C430.421 59.5294 429.794 59.5294 429.203 59.5294H424.168H413.397C407.863 59.5294 402.459 59.4001 396.999 59.5294C397.461 59.1045 398.014 58.9383 398.586 58.7721ZM434.7 61.6534C433.907 62.1521 433.077 62.6324 432.228 63.0572C430.608 63.8376 428.916 64.4563 427.175 64.9042C423.568 65.8603 419.833 66.2405 416.108 66.0309C411.697 65.7503 407.333 64.9569 403.105 63.6667C400.928 63.0572 398.77 62.3368 396.63 61.5796L393.993 60.656C400.338 61.007 406.683 61.0439 413.028 61.1363L423.578 61.3025L428.853 61.3949C430.696 61.5079 432.544 61.5079 434.386 61.3949C434.517 61.3771 434.642 61.3317 434.753 61.2616C434.864 61.1915 434.959 61.0984 435.032 60.9885L435.456 61.1547L434.7 61.6534Z" fill="#FFF1E0"/>
<path d="M465.225 19.2828C462.816 18.8969 460.35 19.0933 458.032 19.8554C458.3 17.95 458.3 16.0165 458.032 14.1111C458.09 12.356 457.571 10.6303 456.557 9.19808C455.155 7.83129 453.55 9.01338 452.425 10.0662C451.053 11.3499 449.777 12.7327 448.607 14.2035C447.998 14.9423 447.445 15.6996 446.892 16.4938C445.508 14.3328 443.572 12.1164 440.75 12.6335C437.928 13.1507 436.839 16.4938 436.6 19.1166C436.301 22.1536 436.419 25.2173 436.95 28.2224C437.23 29.7479 437.631 31.2487 438.149 32.7106C438.557 34.1892 439.246 35.5751 440.178 36.7925C440.161 36.8691 440.162 36.9484 440.18 37.0246C440.198 37.1008 440.234 37.1718 440.284 37.2323C440.333 37.2927 440.396 37.3411 440.467 37.3737C440.538 37.4063 440.616 37.4223 440.694 37.4205C451.208 36.8479 460.983 29.7923 465.889 20.6127C465.969 20.4863 466.015 20.3414 466.023 20.192C466.03 20.0426 465.999 19.8938 465.932 19.76C465.866 19.6262 465.765 19.5119 465.642 19.4283C465.518 19.3447 465.374 19.2946 465.225 19.2828ZM448.201 17.7128C449.067 16.4303 450.003 15.1971 451.005 14.0188C451.595 13.3539 452.204 12.7259 452.849 12.1718C453.495 11.6177 454.177 10.6018 454.694 10.4725C456.538 10.1031 456.409 19.0981 456.538 20.3725C450.285 22.9399 445.471 29.1089 441.672 34.65C442.475 28.5655 444.714 22.7598 448.201 17.7128ZM445.693 17.9714V18.0822C443.115 22.2428 441.309 26.8356 440.362 31.6393C440.362 31.3069 440.215 30.9744 440.159 30.6235C439.907 28.7851 439.907 26.9208 440.159 25.0824C440.739 21.7074 441.994 18.4845 443.848 15.6072C444.577 16.3185 445.22 17.1118 445.767 17.9714H445.693ZM439.717 15.1824C439.947 14.9195 440.231 14.7088 440.549 14.5645C440.867 14.4201 441.212 14.3455 441.561 14.3455C441.91 14.3455 442.256 14.4201 442.574 14.5645C442.892 14.7088 443.175 14.9195 443.406 15.1824C441.043 17.8762 439.534 21.2132 439.071 24.7684C438.896 25.9918 438.816 27.2268 438.831 28.4625C438.447 26.4349 438.256 24.3756 438.26 22.3119C438.278 20.0031 438.112 16.8817 439.717 15.1824ZM443.941 35.0933C446.194 31.2804 449.039 27.8512 452.37 24.9347C454.81 22.906 457.744 21.5613 460.873 21.0375C458.425 24.04 455.674 26.7819 452.665 29.2198C449.882 31.3584 446.968 33.3201 443.941 35.0933ZM448.423 33.8927C450.156 32.7845 451.816 31.5655 453.403 30.328C456.758 27.7432 459.875 24.8627 462.717 21.7209C462.826 21.6152 462.907 21.4837 462.952 21.3384C462.998 21.1931 463.005 21.0388 462.975 20.8897C463.233 20.8897 463.492 20.8897 463.75 20.8897C460.17 26.7574 454.794 31.3114 448.423 33.8742V33.8927Z" fill="#FFF1E0"/>
<path d="M438.333 39.9509C438.301 39.7981 438.252 39.6493 438.186 39.5076C438.116 39.3131 437.987 39.1453 437.817 39.0274C437.678 38.8626 437.491 38.7462 437.282 38.695L436.876 38.6026H436.766C436.459 38.5799 436.152 38.6439 435.88 38.7873C435.747 38.8498 435.623 38.9306 435.511 39.0274L435.327 39.1936C435.091 39.4038 434.914 39.6708 434.811 39.9694L434.7 40.4496C434.687 40.7559 434.75 41.0606 434.884 41.3362C434.977 41.5483 435.124 41.7327 435.309 41.8718C435.471 42.0427 435.674 42.1697 435.899 42.2412C436.128 42.306 436.371 42.306 436.6 42.2412C436.831 42.2562 437.061 42.2049 437.264 42.0935C437.537 41.9561 437.771 41.753 437.946 41.5024C437.996 41.4327 438.039 41.3585 438.075 41.2808C438.167 41.1494 438.242 41.0066 438.297 40.856C438.391 40.5634 438.404 40.2503 438.333 39.9509Z" fill="#FFF1E0"/>
<path d="M26.9103 53.5634C27.5005 55.0411 29.511 56.0015 30.8021 56.7403C32.2786 57.563 33.821 58.2611 35.4132 58.8274C41.3556 60.782 47.673 61.3134 53.8577 60.3789C57.6079 59.84 61.3087 59 64.9244 57.867C66.6582 57.3498 68.392 56.7957 70.1073 56.2231C71.5096 55.8034 72.8783 55.2786 74.202 54.6532C83.761 58.0566 93.5177 60.8754 103.418 63.0941C97.2926 62.4969 91.1107 62.915 85.1211 64.3316C81.8613 65.1188 78.6814 66.207 75.6222 67.5823C74.1519 68.2246 72.7172 68.946 71.3246 69.7433C69.8963 70.4326 68.5933 71.3566 67.4697 72.4769C67.2484 72.7355 67.4697 72.9756 67.6173 73.1234C67.6598 73.2116 67.7158 73.2926 67.7833 73.3635C68.3687 73.9802 69.0548 74.4924 69.8122 74.878C70.4989 75.2097 71.2076 75.4936 71.9333 75.7277C73.4431 76.22 75.0014 76.5482 76.5813 76.7066C79.9729 77.0555 83.3996 76.7738 86.6889 75.8754C90.4844 74.8082 94.1107 73.2101 97.4605 71.1286C100.986 69.1435 104.261 66.7439 107.218 63.9806L107.919 64.1469C115.61 65.7353 123.375 66.8989 131.177 67.8409C128.345 68.2721 125.551 68.9267 122.822 69.7987C119.747 70.7418 116.77 71.9788 113.931 73.4928C112.585 74.2131 111.275 74.9888 110.021 75.82C108.773 76.5616 107.62 77.455 106.591 78.4797H106.351C106.231 78.4742 106.112 78.5068 106.011 78.5728C105.911 78.6388 105.833 78.7349 105.79 78.8474C105.747 78.96 105.741 79.0832 105.772 79.1995C105.803 79.3159 105.87 79.4195 105.963 79.4956C109.11 81.3799 112.719 82.3459 116.385 82.2846C120.029 82.4508 123.676 82.0076 127.175 80.9732C130.676 79.928 133.971 78.2846 136.913 76.1155C138.367 75.0007 139.725 73.765 140.971 72.4215C142.104 71.3808 143.08 70.1799 143.867 68.8567L145.711 68.986C153.089 69.3739 160.467 69.4109 167.845 69.1707C165.669 69.743 163.542 70.484 161.481 71.3872C158.658 72.6093 155.974 74.1327 153.476 75.9308C152.241 76.8359 151.042 77.7778 149.898 78.8122C148.674 79.7668 147.593 80.8927 146.689 82.1553C146.595 82.3108 146.55 82.491 146.56 82.6724C146.446 82.71 146.344 82.7787 146.267 82.8708C146.19 82.9628 146.14 83.0746 146.123 83.1936C146.106 83.3125 146.122 83.4339 146.17 83.5442C146.218 83.6544 146.295 83.7491 146.394 83.8176C147.88 84.4382 149.492 84.6977 151.097 84.5749C152.767 84.6244 154.438 84.5441 156.096 84.3348C159.451 83.8923 162.725 82.9653 165.816 81.5827C168.907 80.1746 171.767 78.3064 174.3 76.0416C176.861 74.0049 178.913 71.3997 180.295 68.4319C181.364 68.4319 182.434 68.3026 183.522 68.1918C185.717 67.9886 187.894 67.7301 190.089 67.453C187.264 68.6639 184.634 70.2886 182.287 72.2737C179.874 74.3315 177.785 76.7411 176.089 79.4217C175.276 80.7049 174.555 82.0443 173.931 83.4297C173.415 84.5933 172.4 86.4219 172.769 87.7148C172.717 87.8006 172.686 87.8977 172.679 87.9979C172.672 88.0982 172.689 88.1987 172.729 88.291C172.768 88.3833 172.83 88.4647 172.907 88.5284C172.985 88.592 173.077 88.636 173.175 88.6568C176.348 89.3402 180.184 88.0473 183.08 86.8098C186.238 85.4472 189.13 83.5335 191.62 81.1579C193.837 79.0547 195.705 76.6105 197.153 73.9176C198.534 71.5561 199.437 68.9451 199.809 66.234L203.498 65.5875C203.63 65.6563 203.783 65.6755 203.928 65.6416C204.074 65.6078 204.202 65.5231 204.291 65.4028C209.824 64.387 215.524 63.1495 221.057 61.7088C221.739 61.5241 221.592 60.4528 220.891 60.619C219.397 60.9884 217.885 61.3209 216.391 61.6718C212.886 62.4353 209.369 63.1248 205.84 63.7405C205.82 62.3881 205.641 61.0427 205.305 59.7325C205.01 58.3589 204.641 57.0024 204.199 55.669C203.241 52.9136 201.966 50.2792 200.399 47.8192C198.809 45.3088 196.92 43.0015 194.774 40.9483C193.727 39.9285 192.605 38.99 191.417 38.1408C190.481 37.3713 189.403 36.7939 188.244 36.4416L187.875 36.3492C187.823 36.345 187.771 36.3531 187.723 36.3729C187.674 36.3927 187.631 36.4237 187.597 36.4633C187.563 36.5029 187.539 36.55 187.526 36.6008C187.514 36.6516 187.513 36.7046 187.525 36.7556C187.506 36.8158 187.506 36.8801 187.525 36.9403C187.283 42.7681 188.731 48.5414 191.693 53.5634C193.121 56.0878 194.869 58.4161 196.895 60.4898C198.324 61.9862 199.9 63.3351 201.598 64.5163C200.953 64.6271 200.307 64.7564 199.754 64.8487C199.702 64.8099 199.643 64.7819 199.58 64.7664C199.518 64.7509 199.453 64.7483 199.389 64.7587C199.325 64.769 199.264 64.7921 199.21 64.8266C199.155 64.8612 199.108 64.9064 199.071 64.9595C196.895 65.292 194.7 65.606 192.505 65.883C192.262 64.475 191.86 63.0993 191.306 61.7827C190.701 60.1774 189.974 58.6213 189.13 57.1282C187.445 54.1207 185.353 51.361 182.914 48.9274C180.44 46.4095 177.635 44.2408 174.577 42.4813C173.14 41.6553 171.648 40.9271 170.113 40.3018C169.265 39.9694 168.398 39.6923 167.531 39.3968C166.81 39.0218 165.999 38.8556 165.189 38.9166C165.031 38.9594 164.893 39.0577 164.801 39.1936C164.698 39.1824 164.594 39.194 164.496 39.2278C164.399 39.2616 164.309 39.3167 164.235 39.3891C164.161 39.4615 164.104 39.5494 164.068 39.6466C164.032 39.7437 164.018 39.8476 164.027 39.9509C164.251 41.6352 164.736 43.2742 165.465 44.8086C166.143 46.4405 166.938 48.0208 167.845 49.5369C169.573 52.5181 171.688 55.257 174.134 57.6823C176.557 60.0948 179.278 62.1867 182.231 63.9067C183.918 64.8848 185.69 65.7071 187.525 66.3633C184.684 66.6773 181.862 66.9358 179.022 67.1575C175.167 67.4345 171.294 67.6008 167.439 67.6931C166.944 66.3701 166.261 65.1259 165.41 63.9991C164.447 62.4821 163.374 61.0376 162.201 59.6771C157.528 54.2559 151.499 50.1763 144.734 47.8562C143.077 47.2882 141.382 46.8377 139.661 46.5078C138.449 46.2257 137.215 46.0466 135.973 45.9722L135.659 45.8244C135.521 45.7791 135.372 45.7779 135.233 45.8209C135.095 45.8639 134.973 45.9491 134.884 46.0645C134.884 46.0645 134.884 45.9537 134.737 45.9168C134.276 45.492 133.704 46.1384 133.87 46.6187C134.634 48.265 135.662 49.7749 136.913 51.0884C138.019 52.436 139.195 53.7245 140.436 54.9487C142.961 57.4576 145.743 59.6925 148.736 61.6164C151.68 63.5546 154.814 65.1883 158.088 66.4926C159.323 66.9728 160.633 67.4345 161.961 67.8409C155.044 67.8409 148.146 67.6562 141.266 67.1021C138.997 66.9174 136.747 66.6957 134.497 66.4372C129.997 56.9866 122.089 49.5948 112.364 45.7506C109.351 44.4575 106.137 43.7011 102.865 43.5157C102.764 43.4531 102.659 43.3976 102.551 43.3494C102.418 43.3133 102.278 43.3133 102.145 43.3494C102.07 43.2983 101.983 43.2673 101.893 43.2592C101.802 43.2511 101.711 43.2663 101.628 43.3033C101.545 43.3402 101.473 43.3978 101.418 43.4705C101.363 43.5432 101.328 43.6287 101.315 43.7188C100.983 45.1595 102.072 46.7295 102.736 47.9485C103.458 49.2516 104.259 50.5099 105.133 51.7164C106.915 54.2482 108.996 56.5552 111.331 58.5873C113.71 60.65 116.33 62.4175 119.133 63.8513C119.557 64.073 120 64.2577 120.442 64.4608C114.909 63.5743 109.56 62.6138 104.174 61.3209C100.485 60.4713 96.7965 59.4739 93.1076 58.4765C93.1076 58.0702 92.9785 57.6823 92.9231 57.2944C92.7571 56.3709 92.5358 55.4474 92.296 54.5424C91.8108 52.8588 91.1941 51.216 90.4516 49.6293C87.5734 43.505 82.702 38.5421 76.6367 35.555C73.9864 34.1134 71.0781 33.2095 68.0784 32.8953C67.9946 32.7978 67.8843 32.7268 67.761 32.6908C67.6376 32.6548 67.5065 32.6554 67.3835 32.6926C67.2605 32.7297 67.1509 32.8018 67.068 32.9001C66.9851 32.9983 66.9324 33.1186 66.9164 33.2462C66.9164 33.2462 66.9164 33.4125 66.9164 33.4864C66.8794 33.6067 66.8794 33.7354 66.9164 33.8558C67.1356 35.1083 67.5528 36.3179 68.1522 37.439C68.726 38.7606 69.3726 40.0493 70.0889 41.2992C71.5411 43.8015 73.247 46.1473 75.1795 48.2994C77.7877 51.2891 80.8427 53.8561 84.2358 55.9092C78.7024 54.173 73.1691 52.2151 67.8386 50.1465L67.1009 49.8694C66.7682 47.0259 66.0868 44.2343 65.072 41.5578C63.0647 36.386 59.9114 31.7379 55.8497 27.9638C53.8405 26.0953 51.6179 24.471 49.2281 23.1246C47.2748 21.9437 45.1631 21.0481 42.957 20.4649H42.8095H42.625C42.5396 20.3089 42.4409 20.1606 42.3299 20.0216C42.2613 19.9527 42.1752 19.9039 42.0809 19.8803C41.9866 19.8568 41.8877 19.8594 41.7948 19.8878C41.7019 19.9163 41.6184 19.9696 41.5535 20.042C41.4885 20.1144 41.4445 20.2031 41.4261 20.2986V20.3171C41.1126 20.4649 40.9281 20.9266 41.3155 21.1298C41.4616 22.3044 41.7656 23.4538 42.2192 24.5468C42.6989 25.9846 43.253 27.3964 43.8792 28.7765C45.1373 31.55 46.6566 34.1971 48.4166 36.6817C50.5311 39.7131 53.0089 42.4735 55.7944 44.9009C48.4166 41.4655 41.0388 37.7345 33.8454 33.8188C32.9048 33.3017 31.8903 34.613 32.8494 35.2226C34.1959 36.0722 35.5608 36.9218 36.9441 37.7345C42.3693 40.8947 47.953 43.7737 53.6733 46.3601C54.8353 46.8957 56.0342 47.3944 57.2146 47.9116C52.9399 47.279 48.6038 47.1736 44.3035 47.5976C38.4052 48.0309 32.6657 49.7117 27.4636 52.5291H27.2792L27.1132 52.6399C27.0152 52.6599 26.9251 52.7079 26.8539 52.7781C26.7826 52.8484 26.7333 52.9378 26.7118 53.0356C26.6903 53.1334 26.6976 53.2353 26.7329 53.329C26.7681 53.4227 26.8297 53.5041 26.9103 53.5634ZM204.42 63.9067H204.18C203.178 61.589 201.942 59.3796 200.491 57.3129C199.219 55.2073 197.946 53.1017 196.803 50.9776C195.659 48.8535 194.331 46.5632 193.114 44.3283C192.265 42.703 191.472 41.0591 190.679 39.4153C193.976 41.9923 196.808 45.1158 199.053 48.6504C200.58 51.0442 201.818 53.611 202.742 56.297C203.226 57.6517 203.608 59.0409 203.885 60.4528C204.033 61.598 204.125 62.7985 204.42 63.9252V63.9067ZM197.743 59.1045C195.823 57.1162 194.168 54.8874 192.818 52.4737C190.734 48.6434 189.401 44.4492 188.89 40.1171C190.919 44.1621 193.261 48.0963 195.548 51.975C196.821 54.1545 198.131 56.297 199.495 58.4211C200.502 60.1122 201.637 61.7238 202.889 63.2418C201.045 62.0313 199.322 60.6458 197.743 59.1045ZM186.4 76.4295C189.926 73.5623 193.622 70.9101 197.467 68.4873C196.918 70.0115 196.246 71.4879 195.456 72.9017C194.032 75.3646 192.255 77.6049 190.181 79.551C187.85 81.7096 185.168 83.4526 182.25 84.7042C180.722 85.3497 179.15 85.8867 177.546 86.3111L175.425 86.8098C179.059 83.3004 182.49 79.6803 186.4 76.4665V76.4295ZM197.467 66.9913C193.275 69.3849 189.257 72.0696 185.441 75.0258C182.198 77.457 179.117 80.0977 176.218 82.931C176.663 82.043 177.156 81.1798 177.694 80.3452C179.303 77.9109 181.268 75.7318 183.522 73.8806C187.597 70.5318 192.397 68.185 197.54 67.0282L197.467 66.9913ZM187.765 62.3368C186.695 61.2286 185.625 60.1388 184.574 59.0306L178.487 52.8062L166.72 40.7636L167.273 40.8929C168.029 41.133 168.785 41.3916 169.523 41.6871C171.057 42.2998 172.549 43.0157 173.987 43.8297C176.85 45.4614 179.465 47.4953 181.752 49.8694C184.027 52.1942 185.97 54.8235 187.525 57.6823C188.32 59.136 189.016 60.6416 189.609 62.189C190.07 63.3711 190.328 64.6825 190.771 65.883H190.55C190.56 65.8219 190.56 65.7595 190.55 65.6983C189.844 64.4417 188.927 63.3169 187.838 62.3737L187.765 62.3368ZM188.502 64.9411C186.564 64.1827 184.678 63.2941 182.858 62.2814C180.065 60.6403 177.498 58.6409 175.222 56.334C172.894 54.0084 170.879 51.388 169.228 48.5396C168.43 47.1297 167.716 45.6742 167.088 44.1806C166.886 43.7188 166.738 43.2201 166.572 42.7399L177.639 53.9328C179.717 56.0631 181.801 58.181 183.891 60.2866L187.138 63.5373C187.599 63.9991 188.134 64.5163 188.576 64.978L188.502 64.9411ZM151.245 82.8387L152.222 82.34L156.132 80.493L163.732 76.7989L171.534 73.1049C173.618 72.089 175.85 71.2579 177.86 69.9834C176.386 71.8536 174.75 73.5904 172.972 75.1735C170.591 77.1788 167.939 78.8389 165.096 80.1051C162.253 81.3869 159.24 82.2515 156.151 82.6724C154.539 82.9027 152.91 82.9954 151.282 82.9495L151.245 82.8387ZM170.685 70.1866C172.253 69.8726 173.821 69.6879 175.407 69.5217C173.765 70.2789 172.142 71.1286 170.556 71.8859L162.92 75.5799L155.1 79.2739L151.411 81.0101C150.82 81.2872 150.175 81.5273 149.566 81.8043C150.101 81.2318 150.636 80.6407 151.226 80.1051C152.262 79.1633 153.345 78.2755 154.472 77.4454C159.285 73.8734 164.818 71.3962 170.685 70.1866ZM164.58 65.6429C162.588 64.1838 160.467 62.7985 158.383 61.4687L150.747 56.2786L142.963 50.9222C141.69 50.0541 140.436 49.1675 139.182 48.2625C138.977 48.1189 138.78 47.9648 138.592 47.8007L139.182 47.8931C140.884 48.223 142.561 48.6736 144.199 49.2414C147.467 50.3493 150.569 51.8965 153.421 53.8405C156.255 55.7651 158.823 58.0569 161.057 60.656C162.127 61.9198 163.113 63.2525 164.008 64.6455C164.156 65.0334 164.396 65.3659 164.58 65.6799V65.6429ZM163.842 66.7142C162.061 66.2582 160.306 65.7033 158.586 65.0519C155.351 63.7898 152.259 62.1862 149.363 60.2681C146.448 58.3576 143.735 56.1544 141.266 53.6927C140.026 52.4667 138.856 51.1717 137.762 49.814C137.337 49.2968 136.95 48.7427 136.544 48.1886C137.245 48.6319 137.965 49.0382 138.629 49.4631C139.92 50.2942 141.192 51.1438 142.465 52.0119C145.01 53.7481 147.556 55.4659 150.101 57.2205L157.866 62.5954C159.821 63.9991 161.776 65.4582 163.842 66.7511V66.7142ZM111.331 79.2739L112.899 79.0523C114.393 78.8491 115.887 78.6275 117.362 78.3504C120.399 77.7909 123.399 77.0446 126.345 76.1155C129.355 75.1714 132.3 74.0299 135.161 72.6985C137.175 71.7994 139.128 70.769 141.008 69.614C140.547 70.1127 140.086 70.6114 139.588 71.0916C135.877 74.6309 131.393 77.2554 126.492 78.7568C123.148 79.7367 119.661 80.1426 116.182 79.9573C114.551 79.8623 112.93 79.6462 111.331 79.3109V79.2739ZM132.523 69.3924C134.017 69.2077 135.53 69.0784 137.024 69.0415C137.633 69.0415 138.315 69.0415 138.979 69.0415C137.448 69.8357 135.917 70.6299 134.331 71.3317C131.645 72.5361 128.893 73.5845 126.086 74.4717C123.143 75.3993 120.143 76.1335 117.104 76.6696C115.628 76.9467 114.134 77.1499 112.64 77.3161C111.921 77.3161 111.146 77.3161 110.39 77.4454L110.87 77.1129C112.198 76.2879 113.563 75.5122 114.964 74.7857C117.652 73.417 120.447 72.2681 123.32 71.3502C126.324 70.4355 129.404 69.7927 132.523 69.4293V69.3924ZM117.768 54.6162L110.077 48.8351C108.785 47.8562 107.494 46.9881 106.24 45.9168C105.853 45.6213 105.447 45.2703 105.06 44.9194C107.387 45.3866 109.675 46.035 111.903 46.8588C115.058 48.1163 118.04 49.7737 120.774 51.7903C125.846 55.5161 129.936 60.4227 132.689 66.0862H132.284C127.643 62.0263 122.784 58.222 117.731 54.6901L117.768 54.6162ZM119.723 62.0043C117.138 60.7167 114.717 59.123 112.511 57.2575C110.255 55.2876 108.248 53.0484 106.535 50.5897C105.692 49.3718 104.928 48.1009 104.248 46.7849C104.691 47.0619 105.115 47.3205 105.484 47.5976L109.173 50.3312L116.698 55.9646C121.18 59.3261 125.625 62.9463 130.384 65.92C129.646 65.92 128.908 65.7538 128.171 65.6429C125.238 64.4608 122.379 63.5558 119.686 62.1705L119.723 62.0043ZM100.836 64.7933C96.324 66.6871 91.6826 68.255 86.9471 69.4847C83.9145 70.2363 80.8328 70.7733 77.7249 71.0916C76.2862 71.2394 74.866 71.3502 73.4273 71.4426C72.7449 71.4426 72.044 71.4426 71.3431 71.4426L72.1915 70.9808C73.6118 70.242 75.0689 69.5586 76.5444 68.9306C79.5292 67.6899 82.6145 66.7074 85.7667 65.9939C90.7096 64.8942 95.7815 64.4901 100.836 64.7933ZM101.924 65.7722C100.282 66.8989 98.6409 68.0625 96.9625 69.0784C93.8081 71.0679 90.4027 72.627 86.8365 73.7144C83.8436 74.5811 80.7228 74.9186 77.6142 74.7118C75.722 74.5207 73.8622 74.0861 72.0809 73.4189L73.6486 73.2711C75.1611 73.1603 76.6551 72.9756 78.1491 72.754C81.2662 72.2737 84.3833 71.7196 87.4636 70.9069C92.4579 69.7342 97.3075 68.0121 101.924 65.7722ZM91.0049 56.8511C87.5373 53.1571 83.996 49.4631 80.4916 45.6582C78.4811 43.5341 76.4707 41.4285 74.4971 39.3045L71.6935 36.2569C71.3062 35.8505 70.9373 35.4073 70.55 34.964C70.9366 35.0552 71.3182 35.1662 71.6935 35.2964C73.0407 35.7496 74.3536 36.299 75.6222 36.9403C78.3853 38.3028 80.9133 40.0986 83.1107 42.2597C85.5241 44.6452 87.4863 47.4487 88.9022 50.5343C89.6038 52.0454 90.1716 53.6152 90.5991 55.2258C90.7836 55.7429 90.8942 56.297 91.0049 56.8511ZM89.9167 57.5345C84.9591 54.7996 80.4697 51.2892 76.6182 47.1358C73.7732 43.9689 71.4452 40.3722 69.72 36.4785L70.8635 37.5683L73.9253 40.6343L79.68 46.5817C83.3689 50.2757 86.8549 54.0621 90.5254 57.6638L89.9905 57.5161C89.9905 57.5161 89.9536 57.553 89.9167 57.5345ZM48.6933 27.7052C50.7172 29.8634 52.62 32.1326 54.3926 34.5022C56.25 36.9659 57.9503 39.5445 59.4833 42.2227C60.2211 43.4972 60.9219 44.8086 61.586 46.1384C61.8626 46.6741 62.1024 47.2466 62.3422 47.8192L61.8073 47.5976C57.2306 44.298 53.2084 40.2889 49.8921 35.7212C48.1603 33.2581 46.6657 30.6359 45.4286 27.8899C44.8384 26.56 44.3219 25.2117 43.8424 23.8449C43.7132 23.457 43.6026 23.0322 43.4735 22.6259C45.1888 24.3621 47.0332 25.9505 48.6933 27.7052ZM65.3855 49.0937L64.7953 48.8535C64.3311 47.578 63.7636 46.3425 63.0984 45.1595C62.3975 43.7742 61.6597 42.4259 60.8666 41.0961C59.3388 38.4687 57.6574 35.9338 55.8313 33.5048C53.9287 30.9783 51.8712 28.5726 49.6708 26.3015C48.767 25.3595 47.8264 24.4544 46.8672 23.494C48.0758 24.1166 49.2517 24.8009 50.3901 25.5442C53.195 27.4147 55.7117 29.6859 57.8602 32.2858C61.8723 37.091 64.477 42.915 65.3855 49.1121V49.0937ZM67.8017 52.6584C62.2684 52.3998 56.8642 52.3075 51.4046 52.1782L40.5777 51.9011L35.6161 51.7164H33.7717C35.333 51.1831 36.9214 50.733 38.5303 50.3681C42.1667 49.5809 45.8766 49.1847 49.597 49.186C53.3204 49.2024 57.0311 49.6235 60.6637 50.442C62.4952 50.8552 64.3 51.3795 66.068 52.0119C66.6951 52.1966 67.2484 52.4368 67.8017 52.6769V52.6584ZM29.3265 53.2494L29.7508 53.0832C29.8142 53.1988 29.9041 53.2975 30.0131 53.3714C30.1222 53.4453 30.2472 53.4921 30.3779 53.508C32.2162 53.6922 34.0647 53.7539 35.9112 53.6927H41.1863L51.7366 53.859C58.0815 53.9698 64.4264 54.136 70.7713 54.0067L68.1153 54.8379C65.9389 55.5213 63.7624 56.1677 61.5675 56.6849C57.2928 57.7968 52.9054 58.4165 48.4904 58.5319C44.746 58.6157 41.0118 58.1108 37.4237 57.0358C35.6936 56.5128 34.0193 55.8198 32.4252 54.9672C31.5924 54.521 30.7857 54.0277 30.009 53.4896L29.3265 53.2494Z" fill="#FFF1E0"/>
<path d="M0.110697 11.6916C4.72182 21.019 14.2576 28.3147 24.7525 29.2937C25.1399 29.2937 25.3059 28.9981 25.2874 28.6657C26.2586 27.4818 26.9914 26.1207 27.4454 24.6577C28.0135 23.219 28.4638 21.7365 28.7919 20.2248C29.4408 17.2234 29.6828 14.1482 29.5112 11.0821C29.3637 8.44084 28.5705 5.1162 25.5641 4.46975C22.5576 3.82329 20.7685 6.00277 19.293 8.16378C18.7765 7.36957 18.2416 6.59382 17.6698 5.81807C16.5456 4.31941 15.3126 2.90569 13.981 1.5884C12.9112 0.480188 11.2512 -0.757314 9.8125 0.572539C8.7417 1.9631 8.16992 3.67433 8.18938 5.4302C7.84639 7.2939 7.77185 9.1972 7.96805 11.0821C5.67113 10.2872 3.22054 10.0405 0.811588 10.3617C0.661815 10.3727 0.517285 10.4216 0.391592 10.5039C0.265899 10.5862 0.163175 10.6991 0.093081 10.8321C0.0229871 10.9651 -0.0121726 11.1138 -0.00909087 11.2641C-0.00600919 11.4145 0.0352125 11.5616 0.110697 11.6916ZM23.6643 26.4677C20.0861 20.8159 15.4196 14.4806 9.25916 11.6916C9.51739 10.4356 9.72028 1.44064 11.4909 1.84698C12.0996 1.99474 12.9481 3.15836 13.3354 3.694C13.7227 4.22963 14.5343 5.00538 15.0876 5.68878C16.0521 6.8698 16.9511 8.10301 17.7805 9.38282C21.0451 14.5338 23.0601 20.3786 23.6643 26.4493V26.4677ZM22.1334 7.38804C23.888 10.3233 25.0299 13.5843 25.4903 16.9741C25.682 18.8208 25.6199 20.6852 25.3059 22.5151C25.2497 22.8513 25.1758 23.1842 25.0845 23.5125C24.3186 18.6876 22.6943 14.0395 20.289 9.78916H20.3812C20.8711 8.92396 21.4591 8.11825 22.1334 7.38804ZM27.6668 14.1112C27.5993 16.2003 27.3338 18.2783 26.8736 20.3172C26.9402 19.0849 26.9032 17.8492 26.763 16.6231C26.4179 13.0562 25.0178 9.67348 22.7421 6.90781C22.9854 6.6576 23.2789 6.4618 23.6032 6.33328C23.9275 6.20476 24.2753 6.14644 24.6238 6.16214C24.9722 6.17784 25.3134 6.26721 25.6249 6.42438C25.9363 6.58155 26.2111 6.80295 26.431 7.07404C27.9803 8.84718 27.6668 11.9686 27.6668 14.1481V14.1112ZM13.0218 20.6866C10.0998 18.1488 7.44251 15.3207 5.09071 12.2457C8.19527 12.8785 11.0815 14.3108 13.4645 16.4015C16.7007 19.4336 19.4339 22.9625 21.5616 26.8556C18.5893 24.9797 15.7371 22.9194 13.0218 20.6866ZM2.23181 12.0056C2.47159 12.0056 2.72981 12.0056 2.98804 12.0056C2.94227 12.167 2.94036 12.3376 2.98251 12.5C3.02467 12.6623 3.10935 12.8105 3.22782 12.9291C5.96244 16.1663 8.98093 19.1519 12.2472 21.8502C13.7965 23.1431 15.4196 24.4175 17.1165 25.5442C10.8297 22.7523 5.60976 18.0044 2.23181 12.0056Z" fill="#FFF1E0"/>
<path d="M27.0214 31.8979C27.0537 31.7451 27.1032 31.5963 27.1689 31.4546C27.2463 31.2637 27.3818 31.1021 27.5563 30.9929C27.7045 30.8437 27.8888 30.7356 28.0912 30.6789H28.5154H28.626C28.9272 30.6747 29.2249 30.7445 29.4929 30.8821C29.6297 30.9466 29.7545 31.034 29.8618 31.1406C29.9186 31.2068 29.9802 31.2685 30.0463 31.3253C30.2708 31.5484 30.4412 31.8201 30.5443 32.1196V32.5813C30.5515 32.8892 30.4818 33.1939 30.3414 33.4679C30.2405 33.6754 30.088 33.8534 29.8987 33.9851C29.724 34.1454 29.5159 34.2651 29.2895 34.3353C29.063 34.4056 28.8239 34.4247 28.5892 34.3914C28.3635 34.391 28.1415 34.3339 27.9436 34.2252C27.6665 34.0774 27.4316 33.8613 27.2612 33.5972L27.2427 33.2462L27.0398 32.803C26.9511 32.5086 26.9448 32.1956 27.0214 31.8979Z" fill="#FFF1E0"/>
<path d="M261.488 48.1886C258.066 46.617 254.307 45.925 250.55 46.1754C253.867 43.0012 256.264 38.9864 257.485 34.5576C257.509 34.4646 257.509 34.3671 257.487 34.2738C257.464 34.1805 257.42 34.0941 257.356 34.022C257.313 33.965 257.256 33.9204 257.19 33.8927H257.061H256.969C256.058 33.8519 255.146 33.9707 254.276 34.2436C253.399 34.4585 252.536 34.73 251.694 35.0563C250.408 35.5524 249.173 36.1709 248.005 36.9033C249.525 32.4653 250.152 27.7697 249.849 23.0876C249.864 21.1705 249.441 19.2754 248.614 17.5466C248.548 17.4655 248.465 17.4002 248.371 17.3553C248.277 17.3104 248.174 17.2871 248.069 17.2871C247.965 17.2871 247.862 17.3104 247.768 17.3553C247.674 17.4002 247.591 17.4655 247.525 17.5466C246.709 17.9468 245.966 18.484 245.33 19.135C244.39 19.9292 243.486 20.7604 242.638 21.6285C240.873 23.4069 239.297 25.3627 237.934 27.4651C236.581 29.5575 235.449 31.7861 234.559 34.1143C234.301 34.7793 234.098 35.4811 233.876 36.1461C233.025 29.4298 231.003 22.9154 227.9 16.9001C226.462 14.0447 224.677 11.3773 222.588 8.95796C222.571 8.87006 222.532 8.7881 222.474 8.72011C222.415 8.65211 222.34 8.60042 222.256 8.57008L221.869 8.14527C221.797 8.07142 221.704 8.02094 221.603 8.00035C221.502 7.97976 221.397 7.99001 221.301 8.02977C221.206 8.06953 221.125 8.13699 221.068 8.22342C221.012 8.30985 220.982 8.4113 220.984 8.51467C220.889 8.55357 220.806 8.61737 220.744 8.69938C219.851 10.1051 219.225 11.6645 218.899 13.2985C218.385 15.1143 218.009 16.9666 217.774 18.8395C217.313 22.3707 217.313 25.9471 217.774 29.4783C218.117 31.9268 218.685 34.3382 219.471 36.6817C218.342 36.3089 217.181 36.0369 216.004 35.869C214.323 35.5287 212.605 35.4169 210.895 35.5365C210.334 35.5448 209.794 35.7544 209.374 36.1272C208.955 36.5001 208.682 37.0114 208.607 37.5683C208.607 38.9535 209.825 40.2464 210.581 41.2623C212.145 43.4878 213.858 45.6045 215.709 47.5976C214.961 47.5143 214.206 47.5143 213.458 47.5976C211.837 47.6347 210.285 48.258 209.087 49.3522C206.984 52.1228 213.071 54.4315 214.805 55.1334C218.113 56.4542 221.614 57.2277 225.171 57.4237C228.083 57.5536 231 57.3303 233.858 56.7588C243.375 58.809 254.018 55.5582 261.525 49.7216C261.652 49.6371 261.756 49.5215 261.827 49.3856C261.898 49.2498 261.933 49.0981 261.93 48.9449C261.926 48.7917 261.884 48.6419 261.806 48.5096C261.729 48.3774 261.619 48.2669 261.488 48.1886ZM247.156 38.9535C247.264 38.9925 247.381 39.0028 247.494 38.9834C247.607 38.9639 247.713 38.9155 247.802 38.8427C249.832 37.3665 252.113 36.2714 254.534 35.6104C254.922 35.4996 255.327 35.4257 255.715 35.3518C254.79 37.4368 253.679 39.4336 252.395 41.3177C250.825 43.5449 248.964 45.5514 246.861 47.2836C243.63 49.8499 239.953 51.7973 236.016 53.0278C240.736 49.6665 244.479 45.1087 246.861 39.8216C246.935 39.5446 247.027 39.2491 247.156 38.972V38.9535ZM247.562 21.8871C247.562 22.2565 247.654 22.6259 247.673 22.9953C248.085 28.4874 247.108 33.9949 244.832 39.0089C242.553 43.865 239.22 48.1497 235.075 51.5502C237.837 47.6386 239.868 43.2581 241.07 38.6211C242.047 35.4442 242.914 32.2304 244.002 29.1089C244.942 26.5931 246.135 24.1796 247.562 21.9056V21.8871ZM234.891 38.2517C235.22 37.031 235.614 35.8287 236.071 34.65C236.932 32.4386 238.007 30.3168 239.281 28.3147C241.246 25.1749 243.692 22.3639 246.529 19.9847C246.769 19.7815 247.046 19.5783 247.322 19.3751C243.412 24.3251 241.9 30.9559 240.203 36.8849C238.957 41.9863 236.795 46.818 233.821 51.1438C234.31 47.7254 234.476 44.2687 234.319 40.819C234.596 40.0248 234.688 39.0828 234.891 38.2701V38.2517ZM219.49 22.2565C219.597 20.0639 219.881 17.8835 220.338 15.7365C220.338 15.3671 220.523 14.9977 220.615 14.6098C220.891 20.0585 224.101 25.5257 226.296 30.2171C227.979 33.7438 229.218 37.4664 229.985 41.2992C230.332 43.1915 230.56 45.1039 230.667 47.025C230.667 47.9854 230.667 48.9459 230.667 49.9063C230.667 50.2942 230.667 50.7006 230.667 51.0884C230.261 50.6821 229.855 50.2573 229.468 49.8325C228.228 48.4221 227.094 46.9219 226.074 45.3442C223.938 42.0928 222.274 38.5544 221.131 34.8347C219.886 30.7633 219.331 26.5116 219.49 22.2565ZM227.089 55.2996C224.269 55.3535 221.455 55.0052 218.733 54.2653C216.047 53.6101 213.486 52.5182 211.153 51.033C210.323 50.4604 210.581 50.2019 211.448 49.8509C212.173 49.57 212.928 49.3717 213.698 49.2599C214.992 49.1426 216.297 49.211 217.571 49.4631C219.723 51.5133 222.221 53.1643 224.949 54.3392C225.855 54.7104 226.786 55.019 227.734 55.2627L227.089 55.2996ZM230.114 53.5634C228.428 53.341 226.783 52.8808 225.226 52.1966C222.957 51.134 220.867 49.7259 219.029 48.0224C219.008 47.9695 218.976 47.922 218.934 47.8836C218.893 47.8451 218.843 47.8168 218.789 47.8007C218.217 47.2836 217.645 46.7479 217.11 46.1754C215.901 44.9269 214.768 43.607 213.717 42.2228C212.57 40.9283 211.545 39.531 210.655 38.0485C210.231 37.1989 211.042 37.2358 211.761 37.2173C212.84 37.2144 213.918 37.2761 214.989 37.402C216.668 37.5867 218.328 37.9377 220.025 38.1224C221.267 41.4197 222.962 44.5279 225.06 47.3575C226.71 49.6894 228.678 51.7783 230.907 53.5634C230.667 53.5634 230.409 53.5634 230.169 53.5634H230.114ZM231.958 42.038C231.284 38.2938 230.138 34.6505 228.546 31.1961C226.904 27.6682 224.857 24.3251 223.455 20.6496C222.225 17.5303 221.818 14.146 222.275 10.8234C224.041 13.4964 225.637 16.2786 227.052 19.1535C228.695 22.667 229.962 26.3445 230.833 30.1248C231.879 34.6714 232.35 39.3316 232.235 43.9959C232.198 43.3494 232.124 42.6845 232.013 42.038H231.958ZM235.905 55.5397C235.961 55.3592 235.961 55.1662 235.905 54.9856L236.053 54.764L236.661 54.6162C238.09 54.2187 239.484 53.706 240.83 53.0832C243.397 51.8865 245.796 50.359 247.968 48.5396L248.245 48.2994C251.886 47.6096 255.645 47.9158 259.127 49.186C255.627 51.6691 251.701 53.4849 247.544 54.5424C243.754 55.4545 239.85 55.7908 235.961 55.5397H235.905Z" fill="#FFF1E0"/>
<path d="M234.485 58.0517C234.227 57.9196 233.946 57.8417 233.657 57.8226C233.368 57.8035 233.079 57.8438 232.806 57.9409C232.659 57.9409 232.511 58.0887 232.364 58.1626C232.22 58.2632 232.085 58.3743 231.958 58.495C231.87 58.5819 231.795 58.6815 231.737 58.7905L231.626 58.9383V59.1415C231.557 59.295 231.508 59.4562 231.478 59.6217C231.46 59.7936 231.46 59.967 231.478 60.1389C231.51 60.4727 231.617 60.7949 231.792 61.0808C231.849 61.169 231.918 61.2496 231.995 61.321C232.059 61.4153 232.133 61.5021 232.216 61.5795L232.622 61.8566H232.788C232.945 61.9202 233.105 61.9757 233.268 62.0228C233.439 62.0412 233.612 62.0412 233.784 62.0228C234.015 62.0285 234.245 61.9973 234.466 61.9305C234.684 61.8661 234.89 61.7663 235.075 61.635C235.337 61.4408 235.556 61.1958 235.721 60.9146C235.843 60.7176 235.925 60.4977 235.96 60.2682C235.953 59.7957 235.81 59.3354 235.549 58.9423C235.287 58.5492 234.918 58.24 234.485 58.0517Z" fill="#FFF1E0"/>
<path d="M236.089 27.7052C236.099 27.6255 236.099 27.5448 236.089 27.4651V27.0587C235.999 26.8037 235.847 26.5751 235.647 26.3938L235.481 26.3015C235.397 26.2118 235.304 26.1313 235.204 26.0613C235.054 25.9718 234.881 25.927 234.706 25.9321C234.542 25.896 234.372 25.896 234.208 25.9321C234.099 25.9824 233.999 26.0511 233.913 26.1352H233.71C233.489 26.2962 233.306 26.5044 233.175 26.7447L233.046 27.1511C233.027 27.3106 233.027 27.4718 233.046 27.6313V27.7791C233.044 27.988 233.101 28.1931 233.212 28.3701C233.287 28.562 233.408 28.7329 233.562 28.8688L233.913 29.0905C234.097 29.201 234.307 29.2586 234.522 29.2567C234.661 29.2935 234.807 29.2935 234.946 29.2567C235.148 29.2389 235.34 29.1618 235.499 29.0351L235.813 28.7765C235.996 28.5657 236.123 28.3114 236.182 28.0377V27.8899C236.155 27.8261 236.125 27.7644 236.089 27.7052Z" fill="#FFF1E0"/>
<path d="M236.274 21.7948C236.247 21.6147 236.177 21.4438 236.071 21.2961V21.1852C235.942 21.0005 235.772 20.8487 235.573 20.742C235.421 20.6579 235.248 20.6194 235.075 20.6311C234.914 20.5762 234.739 20.5762 234.577 20.6311C234.365 20.6961 234.173 20.8174 234.024 20.9821V21.0929L233.821 21.3884L233.692 21.7393C233.692 21.8686 233.692 21.9795 233.692 22.1087V22.4597L233.839 22.7737L234.079 23.0507L234.374 23.2539C234.539 23.3422 234.723 23.3867 234.909 23.3832C235.024 23.4114 235.145 23.4114 235.26 23.3832C235.382 23.3661 235.5 23.3286 235.61 23.2724C235.72 23.2326 235.816 23.1621 235.887 23.0692C235.994 23.0126 236.078 22.9215 236.127 22.8106C236.217 22.7214 236.276 22.6044 236.293 22.4782C236.32 22.3628 236.32 22.2426 236.293 22.1272C236.309 22.0163 236.303 21.9032 236.274 21.7948Z" fill="#FFF1E0"/>
<path d="M235.684 16.9187C235.683 16.8102 235.643 16.7056 235.573 16.6231V16.4938C235.497 16.3848 235.396 16.296 235.278 16.2353C235.187 16.2163 235.093 16.2163 235.001 16.2353C234.904 16.2172 234.804 16.2172 234.706 16.2353C234.588 16.2782 234.48 16.3477 234.393 16.4384L234.282 16.5492L234.153 16.734V16.9556V17.1957V17.4173L234.245 17.6205L234.393 17.7868L234.577 17.916C234.686 17.942 234.8 17.942 234.909 17.916H235.149H235.352L235.536 17.7868C235.603 17.7499 235.655 17.6913 235.684 17.6205C235.738 17.5638 235.776 17.4937 235.794 17.4173C235.812 17.3446 235.812 17.2685 235.794 17.1957C235.796 17.1444 235.787 17.0932 235.768 17.0455C235.749 16.9978 235.72 16.9546 235.684 16.9187Z" fill="#FFF1E0"/>
<path d="M235.222 13.9634V13.7972C235.204 13.7264 235.165 13.6624 235.112 13.6125C235.085 13.5668 235.047 13.5287 235.001 13.5017H234.854H234.688H234.54C234.486 13.4858 234.428 13.4858 234.374 13.5017H234.245C234.236 13.5444 234.236 13.5883 234.245 13.631C234.187 13.6922 234.148 13.7694 234.134 13.8526V14.0927C234.125 14.1663 234.125 14.2408 234.134 14.3144C234.154 14.3643 234.186 14.4087 234.226 14.4437C234.226 14.4437 234.226 14.4437 234.337 14.5545C234.41 14.5725 234.486 14.5725 234.558 14.5545H234.983H235.112L235.241 14.4437V14.3144V14.1666L235.222 13.9634Z" fill="#FFF1E0"/>
</g>
<defs>
<clipPath id="clip0_30_24">
<rect width="466" height="92" fill="white"/>
</clipPath>
</defs>
</svg>
