<svg width="376" height="271" viewBox="0 0 376 271" fill="none" xmlns="http://www.w3.org/2000/svg">
<g clip-path="url(#clip0_1189_8781)">
<path d="M70 125.54C70 124.721 68.9063 124.448 68.3594 124.994C58.7891 137.548 45.1172 151.466 39.6485 167.022C40.4688 138.367 40.1953 109.438 37.7344 80.7821C38.0078 80.7821 38.2813 80.7821 38.5547 80.5092C45.3906 78.053 43.4766 67.6823 41.2891 61.1324C50.3125 57.8574 58.7891 51.5805 64.5313 43.9389C68.9063 38.2077 62.6172 30.8391 58.5156 26.4725C60.1563 23.1976 60.9766 19.9226 58.2422 16.6477C56.0547 14.1914 48.3985 4.91242 45.6641 10.9165C45.6641 10.9165 45.3906 10.9165 45.3906 10.9165C44.8438 6.00407 41.5625 3.27495 36.9141 1.36456C33.9063 0 29.5313 -1.36456 28.9844 2.72912C28.9844 3.27495 28.9844 3.82077 28.9844 4.63951C27.6172 5.18534 26.25 6.00407 25.1563 6.5499C24.8828 6.27699 24.0625 6.27699 23.7891 7.09572C22.4219 10.9165 21.0547 14.7373 19.961 18.558C11.7578 17.7393 -1.64061 25.6538 1.66059e-05 35.2057C2.73439 49.1242 16.4063 55.4012 27.3438 61.6782C27.8906 61.9511 28.1641 61.6782 28.4375 61.4053C28.4375 61.6782 28.4375 61.6782 28.1641 61.9511C27.8906 62.224 27.8906 62.224 27.8906 62.7699C28.1641 67.9552 27.0703 73.6864 30.625 78.053C31.9922 79.6904 33.9063 80.7821 35.8203 81.055C36.9141 96.0652 37.7344 110.802 38.0078 125.813C34.7266 109.711 20.7813 99.3401 7.38283 90.6069C6.56252 90.0611 5.46877 91.4257 6.56252 92.2444C7.10939 92.5173 7.65627 92.7902 8.20314 93.0631C11.211 100.978 14.2188 108.892 19.1406 115.715C24.0625 122.538 30.625 127.177 37.461 132.09C37.7344 132.363 38.0078 132.09 38.0078 132.09C38.0078 145.462 38.0078 159.108 37.461 172.481C37.461 173.299 37.461 173.845 37.461 174.664C37.1875 176.301 36.9141 177.666 36.9141 179.303C36.9141 179.576 37.1875 179.849 37.1875 180.122C36.0938 209.051 34.1797 238.525 28.1641 266.908C27.8906 268 29.5313 268.546 29.8047 267.454C35.5469 240.436 37.461 212.872 38.8281 185.308C38.8281 185.308 38.8281 185.308 39.1016 185.308C54.961 168.66 71.3672 149.829 70 125.54ZM36.9141 129.088C35.2735 129.633 29.5313 124.175 28.711 123.356C25.4297 120.627 22.4219 117.352 19.961 114.077C15.8594 108.346 13.125 101.523 10.6641 94.9735C15.8594 98.5214 21.0547 102.342 25.4297 106.709C26.7969 108.073 40.7422 127.723 36.9141 129.088ZM33.086 75.0509C32.8125 75.0509 32.8125 74.5051 32.5391 73.9593C32.8125 74.5051 33.086 74.778 33.086 75.0509ZM29.5313 59.4949C29.5313 59.222 29.2578 59.222 29.5313 59.4949C29.5313 59.222 29.5313 59.222 29.5313 59.4949C29.5313 59.222 29.5313 59.222 29.5313 59.4949ZM58.2422 48.3055C53.0469 53.4908 47.3047 57.3116 40.4688 59.7678C40.1953 59.222 40.1953 58.6762 39.9219 58.1303C40.1953 57.8574 40.1953 57.3116 39.9219 57.0387C40.4688 56.22 41.0156 55.1283 41.5625 54.3096C41.5625 54.3096 41.836 54.3096 41.836 54.0367C45.1172 48.5784 49.7656 44.7576 54.961 41.2098C57.9688 39.0265 60.4297 36.8432 61.7969 33.5682C62.3438 34.6599 62.8906 35.7515 63.4375 36.8432C65.3516 42.3014 61.7969 45.0306 58.2422 48.3055ZM61.25 32.7495C59.6094 37.9348 54.1406 40.664 50.0391 43.9389C47.5781 45.8493 45.3906 48.0326 43.4766 50.2159C44.0235 48.5784 44.5703 47.2139 45.1172 45.5764C45.3906 45.8493 45.9375 45.8493 46.4844 45.3035C50.3125 39.5723 54.4141 34.1141 57.6953 28.3829C58.7891 29.7475 60.1563 31.3849 61.25 32.7495ZM54.6875 29.4745C51.6797 34.1141 48.6719 38.4807 45.6641 43.1202C46.7578 38.7536 47.0313 34.387 47.0313 30.0204C50.0391 25.9267 52.7734 21.2872 54.4141 16.3747C57.4219 20.7413 57.4219 25.1079 54.6875 29.4745ZM47.0313 13.6456C47.8516 8.46029 53.0469 13.9185 54.1406 15.556C52.5 20.1955 50.0391 24.5621 47.3047 28.6558C47.3047 24.0163 46.7578 19.1039 46.4844 14.1914C46.4844 14.4644 46.7578 14.1914 47.0313 13.6456ZM43.4766 11.4623C43.4766 12.0081 43.75 12.2811 44.0235 12.2811C44.5703 18.558 45.3906 24.835 45.1172 31.112C45.1172 31.112 45.1172 31.3849 44.8438 31.3849C44.5703 31.6578 44.8438 31.9308 45.1172 31.9308C44.8438 40.391 42.9297 48.8513 38.0078 56.4929C37.461 56.4929 37.1875 56.4929 36.6406 56.4929C36.9141 56.22 36.9141 56.22 36.9141 55.947C36.9141 54.8554 36.9141 53.4908 37.1875 52.3992C37.1875 52.3992 37.461 52.3992 37.461 52.1263C41.836 36.2974 40.7422 20.4684 38.8281 4.3666C41.2891 7.09572 43.4766 10.6436 43.4766 11.4623ZM31.1719 4.3666C32.8125 0.818737 35.2735 1.63747 37.7344 3.54786C39.6485 18.558 40.7422 33.5682 37.461 48.5784C37.7344 41.2098 37.1875 33.5682 36.0938 26.1996C35.2735 21.2872 34.4531 16.3747 33.086 11.4623C32.8125 10.3707 30.625 5.45825 31.1719 4.3666ZM31.1719 10.6436C32.2656 15.0102 33.3594 19.3768 34.1797 24.0163C35.8203 34.6599 36.0938 45.3035 35.2735 55.947C35.2735 56.22 35.2735 56.4929 35.5469 56.4929C34.7266 56.4929 33.9063 56.7658 33.3594 56.7658C31.9922 40.391 31.1719 23.7434 27.0703 7.64155C28.1641 7.09572 28.9844 6.5499 30.0781 6.27699C30.0781 7.91446 30.8985 9.55194 31.1719 10.6436ZM25.1563 8.18737C25.4297 8.18737 25.7031 8.46029 25.9766 8.18737C30.0781 24.2892 31.1719 40.9369 32.2656 57.3116C31.4453 57.5845 30.625 58.1303 30.0781 58.6762C30.0781 58.4033 30.0781 58.1303 30.0781 57.8574C25.7031 50.2159 19.961 42.5743 19.6875 33.5682C19.1406 25.1079 22.4219 16.3747 25.1563 8.18737ZM19.4141 20.1955C18.0469 25.3809 17.2266 30.8391 17.7735 36.0244C18.8672 43.666 23.5156 50.4888 27.3438 57.0387C24.336 54.0367 20.2344 52.1263 17.5 48.5784C11.7578 41.7556 7.10939 34.1141 6.28908 25.3809C9.84377 22.3788 15.0391 19.9226 19.4141 20.1955ZM28.4375 60.0407C20.5078 55.6741 11.7578 51.8534 6.56252 44.2118C2.73439 38.4807 -0.546858 33.0224 5.19533 26.7454C5.46877 26.4725 5.46877 26.4725 5.7422 26.1996C6.56252 32.7495 9.02345 38.4807 12.8516 43.9389C14.4922 46.3951 16.4063 48.8513 18.3203 51.0346C21.3281 54.3096 25.9766 56.22 28.711 59.7678C28.9844 60.0407 28.9844 60.0407 29.2578 59.7678C28.9844 60.0407 28.9844 60.3136 28.711 60.5866C28.711 60.3136 28.4375 60.3136 28.4375 60.0407ZM39.375 174.937C42.3828 157.47 57.4219 141.642 68.3594 128.269C68.3594 150.102 53.5938 167.295 39.1016 182.578C39.1016 179.849 39.375 177.393 39.375 174.937Z" fill="#DECBC1" fill-opacity="0.65"/>
</g>
<g clip-path="url(#clip1_1189_8781)">
<path d="M376 157.244C376 156.591 375.125 156.373 374.688 156.809C367.031 166.833 356.094 177.947 351.719 190.369C352.375 167.487 352.156 144.387 350.188 121.505C350.406 121.505 350.625 121.505 350.844 121.287C356.313 119.326 354.781 111.045 353.031 105.815C360.25 103.2 367.031 98.1874 371.625 92.0855C375.125 87.5092 370.094 81.6253 366.813 78.1385C368.125 75.5234 368.781 72.9084 366.594 70.2933C364.844 68.332 358.719 60.9226 356.531 65.7169C356.531 65.7169 356.313 65.7169 356.313 65.7169C355.875 61.7943 353.25 59.6151 349.531 58.0896C347.125 57 343.625 55.9104 343.188 59.1792C343.188 59.6151 343.188 60.0509 343.188 60.7047C342.094 61.1405 341 61.7943 340.125 62.2301C339.906 62.0122 339.25 62.0122 339.031 62.666C337.938 65.7169 336.844 68.7678 335.969 71.8187C329.406 71.165 318.688 77.4847 320 85.112C322.188 96.2261 333.125 101.238 341.875 106.251C342.313 106.468 342.531 106.251 342.75 106.033C342.75 106.251 342.75 106.251 342.531 106.468C342.313 106.686 342.313 106.686 342.313 107.122C342.531 111.263 341.656 115.839 344.5 119.326C345.594 120.633 347.125 121.505 348.656 121.723C349.531 133.709 350.188 145.477 350.406 157.462C347.781 144.605 336.625 136.324 325.906 129.35C325.25 128.914 324.375 130.004 325.25 130.658C325.688 130.876 326.125 131.094 326.563 131.312C328.969 137.631 331.375 143.951 335.313 149.399C339.25 154.847 344.5 158.552 349.969 162.475C350.188 162.692 350.406 162.475 350.406 162.475C350.406 173.153 350.406 184.049 349.969 194.727C349.969 195.381 349.969 195.817 349.969 196.47C349.75 197.778 349.531 198.868 349.531 200.175C349.531 200.393 349.75 200.611 349.75 200.829C348.875 223.929 347.344 247.464 342.531 270.128C342.313 271 343.625 271.436 343.844 270.564C348.438 248.99 349.969 226.98 351.063 204.969C351.063 204.969 351.063 204.969 351.281 204.969C363.969 191.676 377.094 176.64 376 157.244ZM349.531 160.077C348.219 160.513 343.625 156.155 342.969 155.501C340.344 153.322 337.938 150.707 335.969 148.092C332.688 143.515 330.5 138.067 328.531 132.837C332.688 135.67 336.844 138.721 340.344 142.208C341.438 143.297 352.594 158.988 349.531 160.077ZM346.469 116.929C346.25 116.929 346.25 116.493 346.031 116.057C346.25 116.493 346.469 116.711 346.469 116.929ZM343.625 104.507C343.625 104.289 343.406 104.289 343.625 104.507C343.625 104.289 343.625 104.289 343.625 104.507C343.625 104.289 343.625 104.289 343.625 104.507ZM366.594 95.5723C362.438 99.7128 357.844 102.764 352.375 104.725C352.156 104.289 352.156 103.853 351.938 103.418C352.156 103.2 352.156 102.764 351.938 102.546C352.375 101.892 352.813 101.02 353.25 100.367C353.25 100.367 353.469 100.367 353.469 100.149C356.094 95.7902 359.813 92.7393 363.969 89.9063C366.375 88.1629 368.344 86.4196 369.438 83.8045C369.875 84.6762 370.313 85.5479 370.75 86.4196C372.281 90.778 369.438 92.9572 366.594 95.5723ZM369 83.1507C367.688 87.2912 363.313 89.4705 360.031 92.0855C358.063 93.611 356.313 95.3544 354.781 97.0978C355.219 95.7902 355.656 94.7006 356.094 93.3931C356.313 93.611 356.75 93.611 357.188 93.1752C360.25 88.5988 363.531 84.2403 366.156 79.664C367.031 80.7536 368.125 82.0611 369 83.1507ZM363.75 80.5356C361.344 84.2403 358.938 87.7271 356.531 91.4318C357.406 87.945 357.625 84.4582 357.625 80.9715C360.031 77.7026 362.219 73.998 363.531 70.0754C365.938 73.5621 365.938 77.0489 363.75 80.5356ZM357.625 67.8961C358.281 63.7556 362.438 68.1141 363.313 69.4216C362 73.1263 360.031 76.613 357.844 79.8819C357.844 76.1772 357.406 72.2546 357.188 68.332C357.188 68.5499 357.406 68.332 357.625 67.8961ZM354.781 66.1527C354.781 66.5886 355 66.8065 355.219 66.8065C355.656 71.8187 356.313 76.831 356.094 81.8432C356.094 81.8432 356.094 82.0611 355.875 82.0611C355.656 82.279 355.875 82.4969 356.094 82.4969C355.875 89.2525 354.344 96.0082 350.406 102.11C349.969 102.11 349.75 102.11 349.313 102.11C349.531 101.892 349.531 101.892 349.531 101.674C349.531 100.802 349.531 99.7128 349.75 98.8411C349.75 98.8411 349.969 98.8411 349.969 98.6232C353.469 85.9837 352.594 73.3442 351.063 60.4868C353.031 62.666 354.781 65.499 354.781 66.1527ZM344.938 60.4868C346.25 57.6538 348.219 58.3075 350.188 59.833C351.719 71.8187 352.594 83.8045 349.969 95.7902C350.188 89.9063 349.75 83.8045 348.875 77.9206C348.219 73.998 347.563 70.0754 346.469 66.1527C346.25 65.2811 344.5 61.3585 344.938 60.4868ZM344.938 65.499C345.813 68.9857 346.688 72.4725 347.344 76.1772C348.656 84.6762 348.875 93.1752 348.219 101.674C348.219 101.892 348.219 102.11 348.438 102.11C347.781 102.11 347.125 102.328 346.688 102.328C345.594 89.2525 344.938 75.9593 341.656 63.1018C342.531 62.666 343.188 62.2301 344.063 62.0122C344.063 63.3198 344.719 64.6273 344.938 65.499ZM340.125 63.5377C340.344 63.5377 340.563 63.7556 340.781 63.5377C344.063 76.3951 344.938 89.6884 345.813 102.764C345.156 102.982 344.5 103.418 344.063 103.853C344.063 103.635 344.063 103.418 344.063 103.2C340.563 97.0978 335.969 90.9959 335.75 83.8045C335.313 77.0489 337.938 70.0754 340.125 63.5377ZM335.531 73.1263C334.438 77.2668 333.781 81.6253 334.219 85.7658C335.094 91.8676 338.813 97.3157 341.875 102.546C339.469 100.149 336.188 98.6232 334 95.7902C329.406 90.3422 325.688 84.2403 325.031 77.2668C327.875 74.8697 332.031 72.9084 335.531 73.1263ZM342.75 104.943C336.406 101.456 329.406 98.4053 325.25 92.3035C322.188 87.7271 319.563 83.3686 324.156 78.3564C324.375 78.1385 324.375 78.1385 324.594 77.9206C325.25 83.1507 327.219 87.7271 330.281 92.0855C331.594 94.0468 333.125 96.0081 334.656 97.7515C337.063 100.367 340.781 101.892 342.969 104.725C343.188 104.943 343.188 104.943 343.406 104.725C343.188 104.943 343.188 105.161 342.969 105.379C342.969 105.161 342.75 105.161 342.75 104.943ZM351.5 196.688C353.906 182.741 365.938 170.102 374.688 159.424C374.688 176.857 362.875 190.587 351.281 202.79C351.281 200.611 351.5 198.65 351.5 196.688Z" fill="#DECBC1" fill-opacity="0.65"/>
</g>
<g clip-path="url(#clip2_1189_8781)">
<path d="M216 174.976C216 174.441 215.281 174.263 214.922 174.619C208.633 182.817 199.648 191.905 196.055 202.063C196.594 183.351 196.414 164.461 194.797 145.749C194.976 145.749 195.156 145.749 195.336 145.571C199.828 143.967 198.57 137.196 197.133 132.919C203.062 130.78 208.633 126.681 212.406 121.691C215.281 117.949 211.148 113.137 208.453 110.286C209.531 108.148 210.07 106.009 208.273 103.871C206.836 102.267 201.805 96.2077 200.008 100.128C200.008 100.128 199.828 100.128 199.828 100.128C199.469 96.9206 197.312 95.1385 194.258 93.891C192.281 93 189.406 92.109 189.047 94.7821C189.047 95.1385 189.047 95.4949 189.047 96.0295C188.148 96.3859 187.25 96.9206 186.531 97.277C186.351 97.0988 185.812 97.0988 185.633 97.6334C184.734 100.128 183.836 102.623 183.117 105.118C177.726 104.584 168.922 109.752 170 115.989C171.797 125.077 180.781 129.176 187.969 133.275C188.328 133.453 188.508 133.275 188.687 133.097C188.687 133.275 188.687 133.275 188.508 133.453C188.328 133.631 188.328 133.631 188.328 133.988C188.508 137.374 187.789 141.116 190.125 143.967C191.023 145.037 192.281 145.749 193.539 145.928C194.258 155.729 194.797 165.352 194.976 175.154C192.82 164.64 183.656 157.868 174.851 152.165C174.312 151.809 173.594 152.7 174.312 153.234C174.672 153.412 175.031 153.591 175.391 153.769C177.367 158.937 179.344 164.105 182.578 168.56C185.812 173.015 190.125 176.045 194.617 179.253C194.797 179.431 194.976 179.253 194.976 179.253C194.976 187.985 194.976 196.895 194.617 205.627C194.617 206.162 194.617 206.518 194.617 207.053C194.437 208.122 194.258 209.013 194.258 210.082C194.258 210.261 194.437 210.439 194.437 210.617C193.719 229.507 192.461 248.754 188.508 267.287C188.328 268 189.406 268.356 189.586 267.644C193.359 250.001 194.617 232.002 195.516 214.003C195.516 214.003 195.516 214.003 195.695 214.003C206.117 203.132 216.898 190.836 216 174.976ZM194.258 177.292C193.18 177.649 189.406 174.085 188.867 173.55C186.711 171.768 184.734 169.629 183.117 167.491C180.422 163.748 178.625 159.293 177.008 155.016C180.422 157.333 183.836 159.828 186.711 162.679C187.609 163.57 196.773 176.401 194.258 177.292ZM191.742 142.007C191.562 142.007 191.562 141.651 191.383 141.294C191.562 141.651 191.742 141.829 191.742 142.007ZM189.406 131.849C189.406 131.671 189.226 131.671 189.406 131.849C189.406 131.671 189.406 131.671 189.406 131.849C189.406 131.671 189.406 131.671 189.406 131.849ZM208.273 124.543C204.859 127.929 201.086 130.424 196.594 132.027C196.414 131.671 196.414 131.315 196.234 130.958C196.414 130.78 196.414 130.424 196.234 130.245C196.594 129.711 196.953 128.998 197.312 128.463C197.312 128.463 197.492 128.463 197.492 128.285C199.648 124.721 202.703 122.226 206.117 119.909C208.094 118.484 209.711 117.058 210.609 114.92C210.969 115.632 211.328 116.345 211.687 117.058C212.945 120.622 210.609 122.404 208.273 124.543ZM210.25 114.385C209.172 117.771 205.578 119.553 202.883 121.691C201.266 122.939 199.828 124.365 198.57 125.79C198.93 124.721 199.289 123.83 199.648 122.761C199.828 122.939 200.187 122.939 200.547 122.582C203.062 118.84 205.758 115.276 207.914 111.534C208.633 112.425 209.531 113.494 210.25 114.385ZM205.937 112.246C203.961 115.276 201.984 118.127 200.008 121.157C200.726 118.306 200.906 115.454 200.906 112.603C202.883 109.93 204.68 106.9 205.758 103.692C207.734 106.544 207.734 109.395 205.937 112.246ZM200.906 101.91C201.445 98.5244 204.859 102.089 205.578 103.158C204.5 106.187 202.883 109.039 201.086 111.712C201.086 108.682 200.726 105.475 200.547 102.267C200.547 102.445 200.726 102.267 200.906 101.91ZM198.57 100.485C198.57 100.841 198.75 101.019 198.93 101.019C199.289 105.118 199.828 109.217 199.648 113.316C199.648 113.316 199.648 113.494 199.469 113.494C199.289 113.672 199.469 113.85 199.648 113.85C199.469 119.375 198.211 124.899 194.976 129.889C194.617 129.889 194.437 129.889 194.078 129.889C194.258 129.711 194.258 129.711 194.258 129.533C194.258 128.82 194.258 127.929 194.437 127.216C194.437 127.216 194.617 127.216 194.617 127.038C197.492 116.702 196.773 106.366 195.516 95.8513C197.133 97.6334 198.57 99.9501 198.57 100.485ZM190.484 95.8513C191.562 93.5346 193.18 94.0692 194.797 95.3167C196.055 105.118 196.773 114.92 194.617 124.721C194.797 119.909 194.437 114.92 193.719 110.108C193.18 106.9 192.641 103.692 191.742 100.485C191.562 99.7719 190.125 96.5642 190.484 95.8513ZM190.484 99.9501C191.203 102.801 191.922 105.653 192.461 108.682C193.539 115.632 193.719 122.582 193.18 129.533C193.18 129.711 193.18 129.889 193.359 129.889C192.82 129.889 192.281 130.067 191.922 130.067C191.023 119.375 190.484 108.504 187.789 97.9898C188.508 97.6334 189.047 97.277 189.766 97.0988C189.766 98.168 190.305 99.2373 190.484 99.9501ZM186.531 98.3462C186.711 98.3462 186.891 98.5244 187.07 98.3462C189.766 108.86 190.484 119.731 191.203 130.424C190.664 130.602 190.125 130.958 189.766 131.315C189.766 131.136 189.766 130.958 189.766 130.78C186.891 125.79 183.117 120.8 182.937 114.92C182.578 109.395 184.734 103.692 186.531 98.3462ZM182.758 106.187C181.859 109.573 181.32 113.137 181.68 116.523C182.398 121.513 185.453 125.968 187.969 130.245C185.992 128.285 183.297 127.038 181.5 124.721C177.726 120.266 174.672 115.276 174.133 109.573C176.469 107.613 179.883 106.009 182.758 106.187ZM188.687 132.206C183.476 129.354 177.726 126.859 174.312 121.87C171.797 118.127 169.641 114.563 173.414 110.464C173.594 110.286 173.594 110.286 173.773 110.108C174.312 114.385 175.93 118.127 178.445 121.691C179.523 123.295 180.781 124.899 182.039 126.325C184.016 128.463 187.07 129.711 188.867 132.027C189.047 132.206 189.047 132.206 189.226 132.027C189.047 132.206 189.047 132.384 188.867 132.562C188.867 132.384 188.687 132.384 188.687 132.206ZM195.875 207.231C197.851 195.826 207.734 185.49 214.922 176.758C214.922 191.014 205.219 202.241 195.695 212.221C195.695 210.439 195.875 208.835 195.875 207.231Z" fill="#DECBC1" fill-opacity="0.65"/>
</g>
<defs>
<clipPath id="clip0_1189_8781">
<rect width="70" height="268" fill="white"/>
</clipPath>
<clipPath id="clip1_1189_8781">
<rect width="56" height="214" fill="white" transform="translate(320 57)"/>
</clipPath>
<clipPath id="clip2_1189_8781">
<rect width="46" height="175" fill="white" transform="translate(170 93)"/>
</clipPath>
</defs>
</svg>
