<svg width="142" height="279" viewBox="0 0 142 279" fill="none" xmlns="http://www.w3.org/2000/svg">
<rect x="306.162" y="14" width="198.204" height="243.312" transform="rotate(71.8166 306.162 14)" fill="#91715B"/>
<g clip-path="url(#clip0_1194_8781)">
<path d="M212.547 217.199C211.901 215.586 210.948 214.045 210.357 212.415C209.766 210.784 209.119 209.244 208.445 207.649C206.929 204.46 205.636 201.378 204.119 198.153C202.211 194.283 200.079 190.449 197.836 186.668C197.57 186.692 197.299 186.68 197.04 186.634C196.781 186.588 196.539 186.508 196.329 186.4L195.492 186.006C193.657 186.341 191.797 186.617 189.918 186.831C186.557 187.169 183.171 187.391 179.772 187.497C173.006 187.744 166.219 187.65 159.474 187.214C146.028 186.303 132.865 184.108 120.42 180.7C113.397 178.759 106.646 176.435 100.24 173.752C99.9914 173.627 99.7981 173.462 99.6791 173.274C99.56 173.086 99.5193 172.882 99.5608 172.681C99.6024 172.48 99.7249 172.29 99.9161 172.129C100.107 171.968 100.361 171.842 100.651 171.763C126.968 167.175 154.998 168.882 179.54 176.566C181.019 177.014 182.471 177.497 183.894 177.999C185.738 178.311 187.466 178.86 188.974 179.61C189.214 179.739 189.381 179.916 189.45 180.112C191.46 180.918 193.414 181.742 195.313 182.637C194.64 181.58 193.968 180.505 193.267 179.466C188.077 171.691 182.129 164.134 175.459 156.839C175.441 156.951 175.361 157.056 175.233 157.135C175.106 157.214 174.94 157.261 174.764 157.269C162.657 158.09 150.443 158.032 138.352 157.097C126.285 156.312 114.348 154.846 102.678 152.715C95.9829 151.498 89.3705 150.066 82.8969 148.455C82.6197 148.382 82.3822 148.258 82.2148 148.098C82.0474 147.939 81.9577 147.751 81.957 147.559C81.9564 147.367 82.0449 147.179 82.2112 147.019C82.3775 146.859 82.6142 146.735 82.8909 146.663C107.325 141.159 134.038 141.478 158.17 147.56C162.248 148.59 166.219 149.786 170.059 151.142C167.905 148.974 165.723 146.806 163.458 144.692C160.661 142.005 157.585 139.318 154.538 136.774C152.433 137.031 150.277 137.068 148.153 136.883C145.198 136.74 142.214 136.544 139.258 136.311C133.238 135.811 127.261 135.113 121.352 134.219C109.702 132.455 98.3616 129.929 87.5077 126.682C84.5215 125.787 81.5632 124.892 78.688 123.835C75.5803 122.89 72.6796 121.686 70.061 120.253V120.253C69.9859 120.218 69.9242 120.172 69.8806 120.119C69.8369 120.067 69.8125 120.008 69.8091 119.949C69.7498 119.827 69.7458 119.698 69.7975 119.576C69.8493 119.453 69.9548 119.343 70.1013 119.258C70.2478 119.173 70.4292 119.117 70.6241 119.096C70.8189 119.076 71.0189 119.092 71.2004 119.142C71.4419 119.186 71.6757 119.246 71.898 119.321C77.0393 118.795 82.2574 118.644 87.4536 118.87C93.4816 119.002 99.4857 119.432 105.413 120.156C117.213 121.566 128.633 124.075 139.312 127.603C141.685 128.391 144.002 129.25 146.291 130.128C144.614 128.838 142.853 127.602 141.12 126.348L140.673 126.133C135.419 122.282 130.025 118.52 124.326 114.956C121.867 113.415 119.325 111.928 116.783 110.442C114.804 110.585 112.797 110.586 110.789 110.604C107.778 110.605 104.767 110.605 101.756 110.606C95.4275 110.607 89.0696 110.25 82.7672 109.804C70.2559 108.928 57.8764 107.39 45.7548 105.207C45.4949 105.173 45.258 105.088 45.078 104.963C44.8979 104.838 44.784 104.679 44.7524 104.51C44.7209 104.341 44.7735 104.17 44.9025 104.022C45.0316 103.873 45.2305 103.755 45.4709 103.684C56.3808 100.832 68.2648 99.8594 79.9492 100.863C86.0098 101.326 91.9999 102.116 97.8562 103.224C100.813 103.761 103.743 104.37 106.644 105.014L107.621 105.229C98.0297 99.9975 87.9584 95.1409 77.4616 90.6857L77.2943 90.6857C66.6545 91.7419 55.8932 92.2177 45.1253 92.1082C34.199 92.0544 23.2896 91.524 12.4723 90.5205C11.3846 90.4132 10.7677 89.3382 11.8258 88.9438C21.295 85.2888 32.0917 83.2912 43.1436 83.1493C48.6408 83.0682 54.1327 83.4404 59.4851 84.2567C60.3778 84.3999 61.2705 84.561 62.2747 84.722C49.9876 80.1393 37.263 76.0604 24.1773 72.5096C21.889 71.883 19.6843 71.2205 17.3124 70.6117C16.5032 70.3969 17.0304 69.6621 17.8395 69.8232C26.2249 71.5776 34.4508 73.6338 42.4783 75.9819C41.346 74.8296 40.327 73.6329 39.4274 72.3988C37.6869 70.1823 36.2698 67.8671 35.1943 65.4831C33.1022 60.7861 32.2471 55.8987 32.6644 51.0233C32.6613 50.1094 34.6403 49.9477 35.4508 50.5568C40.1419 54.1892 43.586 58.417 45.557 62.9625C47.5279 67.508 47.981 72.2683 46.8866 76.9307C46.8482 77.0186 46.7923 77.1029 46.7202 77.1816C51.1577 78.5424 55.5396 79.9571 59.8661 81.4613C58.9138 80.1535 58.1007 78.8097 57.3995 77.5377C55.7265 74.5105 54.6391 71.3633 54.1618 68.1669C53.1649 61.7468 54.8566 55.2753 59.0615 49.4228C59.1297 49.3319 59.2364 49.2552 59.3694 49.2016C59.5023 49.1479 59.6562 49.1194 59.8133 49.1194C59.9704 49.1194 60.1245 49.1478 60.2578 49.2014C60.3911 49.255 60.4983 49.3316 60.5671 49.4225C60.7362 49.3542 60.9258 49.3097 61.1236 49.2917C61.3214 49.2738 61.5229 49.2828 61.7151 49.3183C61.9073 49.3537 62.0857 49.4148 62.2388 49.4975C62.3919 49.5803 62.5162 49.6828 62.6036 49.7983C70.9105 60.9423 73.818 73.4278 70.9485 85.634L72.9026 86.3683C79.6026 88.971 86.1172 91.7291 92.4465 94.6425C88.7865 88.588 86.9666 82.1406 87.0855 75.6498C87.0273 68.6707 88.8918 61.7424 92.5929 55.1854C92.7225 55.0196 92.9212 54.8801 93.167 54.7827C93.4128 54.6853 93.696 54.6337 93.985 54.6336C94.274 54.6335 94.5576 54.685 94.804 54.7824C95.0505 54.8797 95.2502 55.019 95.3809 55.1848C103.736 69.3209 106.218 84.6056 102.583 99.5322C105.376 100.947 108.169 102.398 110.962 103.885C109.356 100.386 108.408 96.7764 108.138 93.134C107.702 88.3817 108.192 83.6141 109.596 78.942C109.899 77.8668 110.286 76.7916 110.7 75.7343C110.977 74.9996 111.336 74.1574 112.674 73.942C113.236 73.9027 113.803 73.9926 114.273 74.1958C114.743 74.399 115.087 74.7025 115.242 75.0524C115.939 76.2145 116.475 77.4136 116.844 78.6358C118.662 83.1661 119.559 87.8279 119.511 92.5044C119.443 97.3832 118.372 102.234 116.325 106.93C118.029 107.879 119.789 108.828 121.465 109.796C126.354 112.661 131.047 115.671 135.658 118.752C134.427 116.364 133.395 113.936 132.567 111.478C131.259 107.446 130.37 103.364 129.905 99.2575C128.701 91.2118 129.077 83.1025 131.023 75.1207C132.111 70.6694 133.689 66.2739 135.746 61.9674C136.134 61.1609 138.003 61.4652 138.173 62.1998C142.133 78.6166 144.053 95.2076 143.915 111.816C143.923 114.02 143.93 116.241 143.714 118.463C143.72 120.255 143.726 122.047 143.398 123.732C150.214 128.607 156.643 133.701 162.658 138.994C161.91 135.729 161.461 132.438 161.315 129.139C160.955 124.358 161.135 119.567 161.852 114.804C163.105 106.003 166.559 97.3923 172.082 89.3035C175.158 84.8786 178.947 80.6738 183.387 76.758C183.625 76.5762 183.939 76.4422 184.292 76.3723C184.645 76.3023 185.022 76.2992 185.378 76.3634C185.734 76.4276 186.054 76.5563 186.3 76.7342C186.546 76.9121 186.706 77.1317 186.763 77.3665C189.157 95.4299 185.764 113.61 176.794 130.784C174.411 135.378 171.634 139.884 168.475 144.279C171.831 147.432 174.993 150.675 178.07 153.953C177.759 152.394 177.586 150.817 177.497 149.312C177.287 146.19 177.566 143.062 178.33 139.976C179.839 133.797 183.229 127.871 188.309 122.539C188.92 121.894 190.343 122.324 190.512 122.933C194.141 135.797 192.049 149.052 184.479 161.173C187.474 164.756 190.358 168.339 193.019 171.922C192.534 168.515 192.327 165.094 192.399 161.673C192.411 145.821 196.795 130.101 205.347 115.243C208.531 109.654 212.304 104.211 216.639 98.9522C217.417 97.9844 220.037 98.0017 220.153 99.274C222.763 122.298 219.813 145.437 211.406 167.869C209.555 172.815 207.368 177.671 204.987 182.51C209.254 178.147 214.47 174.2 220.477 170.788C228.22 166.281 237.134 162.682 246.816 160.156C247.847 159.887 249.382 160.46 249.05 161.249C246.647 166.689 242.412 171.721 236.645 175.989C230.878 180.257 223.72 183.657 215.677 185.948C211.868 187.019 207.888 187.819 203.808 188.334C208.265 196.101 211.915 204.05 214.733 212.127C215.296 213.704 215.441 215.37 215.837 216.983C216.232 218.596 212.97 218.525 212.547 217.199ZM35.7697 54.1763C35.7547 57.909 36.5173 61.6272 38.0372 65.2317C38.9869 67.3743 40.1773 69.4701 41.599 71.5024C42.3553 72.5595 43.2789 73.5986 44.1745 74.6377C45.0024 67.422 42.0004 60.2345 35.6584 54.248L35.7697 54.1763ZM56.5876 68.238C57.0622 71.3589 58.1498 74.4293 59.8245 77.3759C60.6153 78.8226 61.5514 80.235 62.6267 81.6041C62.9906 82.052 63.3824 82.464 63.7741 82.894L64.3326 83.1447C58.8517 73.073 57.2093 62.3073 59.5433 51.7521C56.6949 57.0654 55.6492 62.711 56.4763 68.3097L56.5876 68.238ZM62.1142 53.5076C61.1977 58.7468 61.2155 64.0373 62.1671 69.2761C63.1844 74.3551 64.966 79.3596 67.4866 84.2192C67.7658 84.3266 68.0171 84.4341 68.2962 84.5236C70.3216 74.0406 68.1755 63.3938 62.0587 53.5793L62.1142 53.5076ZM59.1559 85.8516C54.0446 85.0538 48.796 84.6815 43.5393 84.744C38.3122 84.8352 33.1248 85.348 28.0988 86.2704C33.3582 85.7733 38.6712 85.5445 43.9882 85.5861C50.8908 85.6171 57.7737 86.0777 64.5405 86.9614C62.727 86.5676 60.9415 86.2096 59.1004 85.9233L59.1559 85.8516ZM70.7665 89.5403C62.1494 88.0139 53.2848 87.1437 44.3552 86.9478C35.3557 86.8821 26.3765 87.4853 17.5963 88.7454C17.429 88.7455 17.2342 88.8351 17.0671 88.8889C26.435 89.7033 35.8655 90.1799 45.3145 90.3163C53.79 90.3145 62.2646 90.008 70.711 89.612L70.7665 89.5403ZM90.2362 75.7208C90.5107 82.4138 92.2602 89.0496 95.4323 95.4303C95.4901 95.5591 95.4905 95.6957 95.4336 95.8245C95.7129 95.9499 95.9643 96.0932 96.2434 96.2006L95.9569 93.8892L95.4107 88.9975L94.2605 78.5511L93.1666 68.3018C92.9936 66.5996 92.7927 64.8974 92.6755 63.1951L92.6733 62.55C91.0491 66.8858 90.2311 71.331 90.2365 75.7925L90.2362 75.7208ZM94.615 59.593C94.8975 60.686 94.9849 61.8149 95.1559 62.9079C95.4125 64.6101 95.5855 66.3123 95.7864 68.0146C96.2162 71.4907 96.5904 74.9848 96.9645 78.4609L98.1141 88.6923C98.2874 90.4841 98.5164 92.2759 98.7176 94.0678L99.0332 96.7376L99.0367 97.759L99.8186 98.1351C102.72 85.2188 100.939 72.0409 94.6151 59.6289L94.615 59.593ZM83.2192 103.263C85.701 103.388 88.155 103.549 90.6091 103.746C87.1681 103.207 83.6862 102.783 80.1776 102.476C70.0704 101.525 59.7619 102.104 50.0727 104.166C55.5507 103.335 61.1659 102.931 66.7968 102.962C72.2759 102.877 77.7587 102.99 83.2193 103.299L83.2192 103.263ZM117.109 91.2506C117.017 88.6751 116.646 86.1065 115.996 83.5637C115.657 82.2378 115.234 80.894 114.728 79.586L113.941 77.7585L113.576 76.8626L113.438 77.2748L112.83 79.0668C112.444 80.357 112.142 81.6293 111.895 82.9374C111.375 85.6472 111.161 88.3781 111.254 91.1085C111.64 95.9248 112.588 100.716 114.09 105.443L114.481 105.658C116.373 100.968 117.257 96.1327 117.109 91.2864L117.109 91.2506ZM114.157 108.794L113.347 108.31C112.495 108.205 111.656 108.061 110.836 107.881C107.182 107.308 103.583 106.538 99.9289 106.091C94.5445 105.359 89.0959 104.839 83.6138 104.536C78.1521 104.239 72.6689 104.144 67.1914 104.252C62.9536 104.253 58.8288 104.684 54.4801 104.864C63.764 106.268 73.1712 107.307 82.6495 107.976C88.7289 108.405 94.8355 108.672 100.942 108.814C104.176 108.814 107.382 108.903 110.616 108.812C111.815 108.884 112.93 108.848 114.157 108.829L114.157 108.794ZM135.07 109.613C135.887 112.122 136.927 114.577 137.883 117.013C137.467 109.416 137.079 101.818 136.607 94.2209C136.106 86.0321 135.549 77.8613 135.27 69.6904C130.819 82.8468 130.751 96.4645 135.07 109.649L135.07 109.613ZM140.68 119.736C140.673 117.676 140.889 115.615 140.966 113.572C140.952 109.397 140.938 105.204 140.924 101.029C140.636 92.7865 139.818 84.574 138.471 76.3914C137.987 73.4528 137.42 70.5322 136.797 67.6115C137.663 76.4095 138.194 85.2254 138.781 94.0233C139.368 102.821 140.038 111.243 140.68 119.844L140.68 119.736ZM89.8287 120.428C86.4546 120.25 83.0529 120.179 79.6516 120.197C78.1461 120.198 76.6406 120.198 75.135 120.198L75.8608 120.467C89.2493 122.256 102.5 124.583 115.695 126.927C122.539 128.12 129.356 129.361 136.144 130.65C139.631 131.294 143.174 131.903 146.689 132.547C129.557 125.584 110.029 121.434 89.8288 120.464L89.8287 120.428ZM135.843 132.28C128.952 130.956 121.894 129.631 115.115 128.343C103.174 126.106 91.151 123.994 79.2107 121.721C81.6669 122.562 84.151 123.386 86.635 124.156C91.9377 125.791 97.342 127.254 102.848 128.543C113.854 131.111 125.225 132.975 136.797 134.108C140.032 134.43 143.323 134.68 146.585 134.894C147.617 134.894 148.677 135.019 149.709 135.073C145.078 134.214 140.474 133.301 135.843 132.316L135.843 132.28ZM164.57 127.185C164.578 129.64 164.782 132.077 165.041 134.514C168.152 120.399 172.386 106.398 177.725 92.5635C179.024 89.2304 180.323 85.8793 181.901 82.5998C169.261 95.8982 164.295 111.668 164.57 127.185ZM183.636 92.5623C183.626 89.767 183.617 86.9716 183.607 84.1763C181.454 90.6096 178.939 96.9713 176.897 103.405C174.414 111.206 172.256 119.031 170.424 126.879C169.526 130.726 168.693 134.591 167.926 138.473C177.444 123.912 182.767 108.356 183.636 92.5623V92.5623ZM104.494 145.44C100.018 145.785 95.5852 146.331 91.2285 147.073C92.5388 147.073 94.0171 147.269 95.0768 147.323C98.0604 147.466 101.044 147.662 104.028 147.841C109.996 148.216 115.935 148.609 121.903 149.02C133.932 149.877 145.923 150.83 157.878 151.879C160.834 152.129 163.763 152.379 166.691 152.647C147.55 146.275 125.871 143.763 104.494 145.44V145.44ZM159.864 153.885C153.952 153.301 148.03 152.753 142.099 152.241C130.144 151.18 118.143 150.245 106.097 149.435L96.1412 148.792L92.4323 148.56C112.234 152.908 132.898 155.414 153.794 156.001C160.681 156.179 167.595 156.141 174.481 156.158C174.603 156.169 174.718 156.2 174.816 156.247L174.033 155.423C172.192 155.298 170.351 154.994 168.678 154.833L159.864 153.885ZM188.541 125.388C184.504 130.069 181.776 135.17 180.479 140.46C179.758 143.422 179.469 146.422 179.616 149.419C179.865 152.106 180.368 154.781 181.121 157.429L182.716 159.22C189.103 148.45 191.108 136.806 188.541 125.388V125.388ZM123.736 171.65C119.509 171.813 115.302 172.137 111.137 172.621C120.367 172.977 129.569 173.674 138.744 174.21C147.918 174.745 157.12 175.084 166.267 175.781C152.665 172.571 138.196 171.166 123.736 171.65V171.65ZM180.164 179.756C177.875 179.303 175.547 178.939 173.191 178.664C168.003 178.074 162.761 177.77 157.546 177.395C146.001 176.591 134.428 175.823 122.883 175.037C117.779 174.698 112.649 174.394 107.545 173.93C108.131 174.145 108.745 174.342 109.359 174.556C111.731 175.076 114.103 175.702 116.474 176.239C119.432 176.92 122.417 177.516 125.43 178.029C131.108 179.073 136.885 179.88 142.724 180.445C154.521 181.589 166.341 181.174 178.191 181.62C181.15 181.711 184.095 181.938 187.004 182.299C184.798 181.403 182.509 180.543 180.164 179.756ZM125.993 179.624L125.77 179.624C142.054 183.717 159.424 185.716 176.894 185.508C180.602 185.507 184.281 185.274 188.045 185.094C188.714 185.094 189.355 185.093 190.024 185.093C189.115 184.872 188.183 184.692 187.234 184.556C184.437 184.076 181.596 183.712 178.727 183.465C173.15 183.072 167.267 183.109 161.551 182.985C149.534 182.786 137.595 181.657 125.993 179.624V179.624ZM216.851 103.844C203.688 121.265 196.453 140.294 195.626 159.665C195.394 165.31 196.054 170.936 196.213 176.563C196.661 177.19 197.053 177.835 197.474 178.48C199.2 169.412 201.428 160.381 203.656 151.367C206.214 141.063 208.995 130.777 212.335 120.545C213.769 116.101 215.343 111.585 216.89 107.231C216.942 106.102 216.938 104.973 216.851 103.844ZM217.151 118.573C217.145 116.656 217.138 114.738 217.132 112.821C211.977 130.203 207.379 147.675 203.758 165.2C202.523 171.06 201.539 176.938 200.388 182.797C210.817 162.034 216.464 140.398 217.151 118.573V118.573ZM222.489 172.149C218.712 174.286 215.222 176.625 212.057 179.139C210.278 180.555 208.666 182.025 207.081 183.531C214.196 181.357 220.856 178.616 226.905 175.373C230.652 173.327 234.184 171.124 237.477 168.777C240.092 166.985 242.371 164.888 244.818 162.97C236.716 165.312 229.194 168.405 222.489 172.149V172.149ZM240.934 168.561L239.293 169.78C235.95 172.185 232.333 174.426 228.47 176.484C221.489 180.232 213.834 183.428 205.668 186.004C213.084 184.76 220.03 182.565 226.09 179.553C232.149 176.54 237.198 172.771 240.933 168.472L240.934 168.561Z" fill="#FFF1E0"/>
<path d="M10.833 69.7854C10.0948 69.7154 9.39994 69.5173 8.82334 69.2125C8.4318 68.9879 8.11745 68.7133 7.90042 68.4063C7.71286 68.1729 7.60728 67.916 7.59116 67.6537C7.56181 67.2882 7.6459 66.9227 7.83852 66.5785L7.83779 66.3635C8.0212 66.1922 8.236 66.0358 8.47759 65.8975C9.0217 65.4295 9.79729 65.0945 10.6773 64.9473C11.1636 64.8764 11.6685 64.8763 12.1552 64.947C12.4292 64.984 12.6995 65.0318 12.9644 65.0901C13.0736 65.109 13.1774 65.1392 13.2714 65.1797C13.7637 65.3438 14.2004 65.5691 14.5564 65.8424C14.8214 66.0281 15.0386 66.2398 15.1998 66.4694C15.3179 66.6351 15.4029 66.8097 15.4525 66.989L15.4533 67.222C15.4893 67.5719 15.3949 67.922 15.1779 68.2434L15.1786 68.4406C14.9588 68.6164 14.6956 68.7678 14.3993 68.8887C14.3993 68.8887 14.3993 68.8887 14.3993 68.8887C14.0472 69.1468 13.6221 69.3597 13.1466 69.5162C12.8053 69.6196 12.4365 69.6805 12.0596 69.6956C11.958 69.7054 11.8546 69.7054 11.7529 69.6956C11.2792 69.8033 11.1119 69.8033 10.833 69.7854Z" fill="#FFF1E0"/>
<path d="M10.4729 73.6182C10.1639 73.599 9.86687 73.5314 9.60779 73.4213C9.42486 73.3591 9.26333 73.2738 9.1329 73.1705C8.9105 73.0427 8.73801 72.8831 8.62939 72.7047L8.48864 72.3105L8.48726 71.8983C8.52602 71.6984 8.64025 71.5076 8.82002 71.3427C8.95184 71.1685 9.15344 71.02 9.40417 70.9125L9.5436 70.9125C9.89206 70.7546 10.2924 70.6503 10.7138 70.6076C11.1414 70.5867 11.571 70.6296 11.969 70.7327L12.4995 70.9298C12.8266 71.0963 13.0858 71.3116 13.2545 71.5568C13.3916 71.7472 13.4499 71.9571 13.4239 72.166C13.4539 72.3751 13.3969 72.5854 13.2586 72.7754C13.0788 73.0157 12.8118 73.2248 12.4799 73.3848C12.1242 73.5355 11.7079 73.6165 11.2816 73.618L10.445 73.6182L10.4729 73.6182Z" fill="#FFF1E0"/>
<path d="M2.03698 70.8643C1.65268 70.8254 1.28869 70.7271 0.976383 70.5778L0.58509 70.3091C0.334594 70.1067 0.170403 69.8659 0.108698 69.6104C0.0243932 69.4231 0.0237262 69.2244 0.106773 69.037C0.157693 68.8579 0.282293 68.6908 0.467655 68.5532C0.635002 68.3966 0.866064 68.2726 1.13569 68.1947C1.38375 68.0845 1.67135 68.0166 1.97158 67.9974L2.66871 67.9972C3.05639 68.0281 3.42343 68.1273 3.7293 68.2837L4.14842 68.5345C4.37343 68.7443 4.52633 68.9825 4.59693 69.2332C4.66749 69.4216 4.66815 69.6181 4.59885 69.8066C4.54881 69.9913 4.42441 70.1643 4.23803 70.3083C4.04621 70.4833 3.77351 70.615 3.45851 70.6848C3.22613 70.7987 2.94289 70.8615 2.65045 70.8642L2.03698 70.8643Z" fill="#FFF1E0"/>
<path d="M79.3412 84.5788C78.7343 84.5208 78.1589 84.367 77.6667 84.1311L77.3594 83.952L77.0799 83.755C76.8936 83.5881 76.7603 83.3994 76.6877 83.1995C76.4639 82.9311 76.3121 82.6403 76.2387 82.3395C76.0971 81.7067 76.345 81.0638 76.9297 80.5474C77.0073 80.4735 77.1009 80.4071 77.2079 80.3503C77.3859 80.202 77.6025 80.0747 77.8479 79.9738C78.3089 79.7547 78.8429 79.6073 79.4079 79.5434C79.8321 79.4955 80.2661 79.4954 80.6905 79.5431C81.2369 79.6213 81.7508 79.774 82.1977 79.9908C82.1977 79.9908 82.3655 80.1341 82.4493 80.1879C82.8243 80.3742 83.1385 80.6062 83.3739 80.8706C83.6092 81.135 83.7611 81.4266 83.8208 81.7286C83.8914 81.9835 83.8923 82.2443 83.8233 82.4992C83.7064 82.8698 83.4805 83.2226 83.1576 83.5386L82.963 83.6999C82.7878 83.8486 82.5818 83.9813 82.3509 84.0943C81.8512 84.32 81.2809 84.473 80.6794 84.5426C80.2395 84.6011 79.7875 84.6133 79.3412 84.5788Z" fill="#FFF1E0"/>
<path d="M76.3693 76.8785C76.0669 76.8525 75.7793 76.7787 75.5321 76.6636C75.3459 76.6129 75.1826 76.5328 75.0574 76.4308C74.8922 76.3544 74.7658 76.2485 74.6939 76.1262C74.5796 76.0186 74.503 75.8963 74.4697 75.7679C74.3859 75.5744 74.3852 75.37 74.4677 75.1765L74.467 74.9794C74.4512 74.7825 74.5079 74.586 74.6324 74.406C74.7522 74.2272 74.9326 74.068 75.1605 73.9399C75.3543 73.7819 75.6154 73.6636 75.9122 73.5993L76.5252 73.4917C76.9346 73.4704 77.3462 73.5133 77.7244 73.6168L78.2548 73.8138C78.5786 73.9708 78.8299 74.1813 78.9818 74.4229V74.4229L79.1784 74.853L79.1805 75.4801C79.1141 75.754 78.9425 76.0127 78.6812 76.2329C78.5359 76.3366 78.3777 76.4325 78.2082 76.5197L77.6791 76.7169L77.0661 76.8246L76.3693 76.8785Z" fill="#FFF1E0"/>
<path d="M80.8052 76.3379C80.8023 75.4777 82.8931 75.2981 82.896 76.1761C82.899 77.0542 80.8081 77.198 80.8052 76.3379Z" fill="#FFF1E0"/>
<path d="M116.354 118.983C116.233 118.993 116.112 118.993 115.991 118.983C115.696 118.946 115.407 118.892 115.126 118.822C114.6 118.659 114.127 118.434 113.73 118.159C113.457 117.957 113.24 117.727 113.086 117.478L113.085 117.281C112.993 117.094 112.927 116.902 112.888 116.708L112.885 115.884C112.96 115.628 113.09 115.381 113.273 115.149C113.521 114.81 113.893 114.514 114.358 114.289C114.742 114.081 115.202 113.939 115.695 113.876C116.028 113.842 116.366 113.842 116.699 113.876C116.699 113.876 116.894 113.876 117.006 113.876C117.495 113.825 117.996 113.839 118.477 113.92C118.957 114 119.406 114.143 119.796 114.341C120.509 114.713 121.017 115.222 121.245 115.793C121.473 116.364 121.409 116.967 121.061 117.513L120.645 117.996L120.394 118.194C120.119 118.395 119.8 118.57 119.448 118.714C119.197 118.714 118.947 118.911 118.696 118.982C118.445 119.054 118.111 119.09 117.832 119.144C117.33 119.139 116.831 119.084 116.354 118.983V118.983Z" fill="#FFF1E0"/>
<path d="M107.747 115.871L107.357 115.871C107.162 115.821 106.989 115.741 106.854 115.638C106.74 115.583 106.653 115.508 106.602 115.423C106.475 115.306 106.397 115.17 106.378 115.029L106.376 114.545C106.396 114.376 106.493 114.214 106.653 114.079C106.72 113.985 106.815 113.899 106.931 113.828C107.048 113.749 107.19 113.687 107.349 113.649C107.556 113.542 107.809 113.48 108.074 113.469L108.576 113.469L109.077 113.469C109.314 113.524 109.525 113.617 109.692 113.738C109.809 113.809 109.904 113.894 109.972 113.989C110.077 114.078 110.144 114.183 110.168 114.293C110.238 114.457 110.239 114.631 110.169 114.795L110.17 115.1L109.92 115.386L109.587 115.601C109.161 115.802 108.634 115.892 108.109 115.853L107.747 115.871Z" fill="#FFF1E0"/>
<path d="M102.721 116.984L102.414 116.984C102.277 117.006 102.133 117.007 101.996 116.984L101.772 116.876C101.692 116.835 101.634 116.779 101.605 116.715C101.561 116.628 101.561 116.534 101.604 116.446L101.603 116.249L101.602 116.07C101.653 115.984 101.739 115.91 101.853 115.855C101.913 115.804 101.989 115.761 102.075 115.729C102.168 115.719 102.262 115.719 102.354 115.729C102.5 115.702 102.655 115.702 102.8 115.729L103.079 115.729L103.33 115.729L103.526 115.872C103.628 115.942 103.697 116.029 103.722 116.123C103.764 116.217 103.765 116.316 103.723 116.41V116.41C103.75 116.481 103.751 116.554 103.724 116.625C103.695 116.689 103.637 116.745 103.557 116.786L103.334 116.894C103.206 116.912 103.072 116.912 102.944 116.894V116.894L102.721 116.984Z" fill="#FFF1E0"/>
</g>
<defs>
<clipPath id="clip0_1194_8781">
<rect width="267.402" height="248.964" fill="white" transform="matrix(0.000849142 1 1 -0.000849142 0.000488281 0.211411)"/>
</clipPath>
</defs>
</svg>
