<svg width="160" height="105" viewBox="0 0 160 105" fill="none" xmlns="http://www.w3.org/2000/svg">
<g clip-path="url(#clip0_997_8719)">
<path d="M20.7869 24.4682C23.1823 23.1561 48.8393 13.0703 41.851 5.14578C38.9408 1.80101 32.4276 4.03943 29.5372 6.07202C26.5556 8.35148 24.1219 11.6659 22.5092 15.6432C22.3904 15.8748 22.3112 16.1321 22.1925 16.3636C21.7173 17.4442 21.262 18.5506 20.8067 19.6827L20.2128 21.2007L19.9752 21.7924C19.9777 21.8524 19.9777 21.9125 19.9752 21.9725C18.5143 25.9443 17.2899 30.0559 16.3127 34.271C16.0158 27.0411 13.3828 2.90736 6.98831 12.5043C1.30654 21.0206 9.89848 34.271 15.2041 39.2881C14.2785 44.3573 13.7022 49.5235 13.4817 54.7255C13.4616 54.8355 13.4616 54.9501 13.4817 55.06C13.4817 56.5266 13.363 57.9674 13.363 59.4339C13.3624 65.4863 13.8468 71.5223 14.8082 77.4442C13.406 72.6908 11.153 68.4398 8.23552 65.0429C6.13703 62.9845 2.53396 61.9039 0.692835 65.0429C-1.48484 68.8765 1.94005 73.096 4.01874 75.3344C7.44023 79.0294 11.4929 81.6055 15.8376 82.8473C17.5259 90.6527 20.0518 98.1102 23.3407 105L24.4295 104.099C22.7517 100.566 21.2761 96.8767 20.0148 93.0617C20.071 93.0057 20.1181 92.9358 20.1534 92.8559C24.1988 87.9812 27.4912 82.1478 29.8539 75.6689C30.626 73.2761 32.7839 66.7924 29.161 66.741C25.5382 66.6895 22.7666 72.2212 21.4204 75.6689C19.7553 79.9083 18.8805 84.597 18.8666 89.3567C16.1648 80.0431 14.7442 70.1846 14.6696 60.2315H14.7884C19.2138 56.7358 23.1226 52.2396 26.3301 46.9554C27.7356 44.5883 31.2991 39.3911 28.8443 36.2264C26.3894 33.0617 22.6874 37.9245 21.163 39.8799C18.7212 43.2747 16.6435 47.0827 14.9863 51.2007C15.6757 41.9739 17.5144 32.9541 20.4305 24.494C20.5482 24.5367 20.6735 24.5276 20.7869 24.4682ZM37.9905 5.45452C47.018 8.69638 33.754 15.9005 31.794 16.9297L21.1432 22.4871L21.361 21.8953C21.5458 21.4151 21.7437 20.9262 21.9549 20.4288C23.2735 18.9889 24.6842 17.6978 26.1717 16.5694C28.7066 14.3095 31.4294 12.428 34.2885 10.9605C34.6448 10.7804 34.4865 10.0343 34.1301 10.2144C31.0952 11.7854 28.2064 13.7964 25.5184 16.2092C24.6671 16.9554 23.6574 17.7273 22.7072 18.6278C25.9341 11.2435 30.824 2.88163 37.9905 5.45452ZM6.77054 17.8302C6.65176 14.8971 8.25532 13.5849 11.5416 13.8422L12.1949 15.566C13.1167 17.7592 13.7838 20.1174 14.1746 22.5643C14.9117 26.4414 15.2184 30.4355 15.0853 34.4254C13.9545 31.6998 12.9625 28.8807 12.1158 25.9863C11.997 25.5231 11.4229 25.7032 11.5416 26.1921C12.5373 29.8126 13.7692 33.3159 15.2239 36.6638C15.2494 36.7116 15.2834 36.7506 15.3231 36.7775C15.3627 36.8045 15.4068 36.8186 15.4516 36.8186C15.4963 36.8186 15.5404 36.8045 15.58 36.7775C15.6197 36.7506 15.6537 36.7116 15.6792 36.6638C15.6792 36.9211 15.6792 37.2041 15.5208 37.4871C11.3437 33.4477 5.38474 24.9828 6.77054 17.8302ZM4.55327 73.7393C4.05834 73.1989 3.58321 72.6072 3.12788 72.0154C2.8235 71.814 2.56112 71.5199 2.36309 71.1582C2.16506 70.7966 2.03726 70.378 1.9906 69.9383C1.94393 69.4985 1.97977 69.0507 2.09506 68.6328C2.21036 68.215 2.40169 67.8395 2.65275 67.5386C2.51417 64.8113 3.42483 63.8851 5.36495 64.8113C6.3339 65.2259 7.21048 65.9412 7.91877 66.8953C9.00876 68.1681 9.94923 69.6418 10.7102 71.2693C11.7481 73.3672 12.6805 75.5501 13.5015 77.8044C11.5332 75.2088 9.46504 72.7442 7.30506 70.4202C7.0279 70.06 6.59236 70.626 6.88932 70.9605L10.8487 75.6947C12.2114 77.1303 13.4169 78.801 14.432 80.6603C12.3534 79.8694 10.3584 78.7458 8.49288 77.3156C7.09004 76.2996 5.77008 75.1014 4.55327 73.7393ZM26.6468 69.9056C27.3397 69.494 29.5174 69.3911 29.8539 70.6518C29.9925 71.1921 29.2996 73.0446 29.1214 73.5849C28.4643 75.8976 27.6215 78.1139 26.6072 80.1972C24.7549 83.9197 22.5976 87.3704 20.1732 90.4888V89.1252C21.2026 84.9056 23.9148 81.7152 25.162 77.5986C25.3006 77.1355 24.7265 76.9296 24.5879 77.3928C23.5585 80.789 21.5392 83.5163 20.2919 86.7324C20.7473 80.1715 22.5884 72.4013 26.6468 69.9056ZM18.9457 45.9777C19.8603 44.1929 20.908 42.5296 22.0737 41.012C22.7491 40.1554 23.4774 39.3723 24.2514 38.6706C25.0828 37.5128 25.8351 37.7959 26.4884 39.5197C27.9732 40.1372 28.2504 41.012 27.3595 42.0926C26.924 42.9674 26.4884 43.7907 26.0331 44.6655C24.8954 46.6707 23.6518 48.5706 22.3112 50.3516C20.0071 53.3559 17.4504 56.0141 14.6894 58.2761V57.7873C17.2036 54.3911 19.3417 50.5832 21.6777 46.9554C21.9153 46.5694 21.4996 46.0291 21.2422 46.4151C19.0447 49.837 16.9858 53.4648 14.63 56.7067C14.63 56.1664 14.63 55.6003 14.63 55.06C16.1346 51.9983 17.4214 48.8851 18.9457 45.9777Z" fill="#91715B"/>
<path d="M159.307 65.0172C157.486 61.801 153.922 62.8302 151.824 64.8371C148.866 68.2351 146.59 72.518 145.192 77.3156C146.153 71.3936 146.637 65.3577 146.637 59.3053C146.637 57.8388 146.637 56.3979 146.518 54.9571C146.538 54.8384 146.538 54.7156 146.518 54.5969C146.301 49.3928 145.718 44.2255 144.776 39.1595C150.082 34.1424 158.634 20.8919 152.992 12.3756C146.617 2.80446 143.984 26.9383 143.727 34.0652C142.75 29.8501 141.525 25.7385 140.064 21.7667C140.062 21.7067 140.062 21.6466 140.064 21.5866L139.827 20.9691L139.272 19.5798C138.758 18.2676 138.223 17.0069 137.649 15.7204L137.53 15.4374C136.014 11.7197 133.793 8.56682 131.076 6.27787C128.087 3.93654 121.178 1.44082 118.188 4.93997C111.141 13.0961 136.897 23.1561 139.213 24.4683C139.329 24.5192 139.454 24.5192 139.569 24.4683C142.489 32.9071 144.321 41.9122 144.994 51.1235C143.36 46.9933 141.288 43.1823 138.837 39.8027C137.253 37.7959 133.412 33.2933 131.156 36.1492C128.899 39.0051 132.284 44.5883 133.67 46.8782C136.877 52.1624 140.786 56.6586 145.211 60.1544H145.31C145.232 70.1343 143.804 80.0187 141.094 89.3568C141.085 84.7799 140.294 80.2627 138.777 76.1321C137.431 72.53 134.402 66.6381 130.859 66.6638C127.315 66.6895 129.354 73.0961 130.126 75.4889C132.49 82.0105 135.797 87.8804 139.866 92.7787C139.902 92.8586 139.949 92.9286 140.005 92.9846C138.743 96.7995 137.268 100.489 135.59 104.022L136.679 104.923C139.968 98.033 142.494 90.5756 144.182 82.7701C148.371 81.5772 152.293 79.1475 155.645 75.669C157.763 73.4563 161.584 69.0309 159.307 65.0172ZM145.904 22.5643C146.27 20.7523 146.726 18.9733 147.27 17.2384C147.624 16.078 148.027 14.9441 148.478 13.8422C151.784 13.5849 153.368 14.8971 153.249 17.8302C154.615 25.0086 148.656 33.4477 144.519 37.5386C144.484 37.2611 144.438 36.9862 144.38 36.7153C144.406 36.763 144.44 36.8021 144.479 36.829C144.519 36.856 144.563 36.87 144.608 36.87C144.652 36.87 144.696 36.856 144.736 36.829C144.776 36.8021 144.81 36.763 144.835 36.7153C146.287 33.3547 147.506 29.8331 148.478 26.1921C148.617 25.7033 148.042 25.5232 147.904 25.9863C147.098 28.8737 146.139 31.6849 145.033 34.3997C144.888 30.4208 145.181 26.4353 145.904 22.5643ZM128.958 17.4185C126.713 16.4241 124.524 15.2291 122.405 13.8422C121.391 13.1758 120.462 12.3077 119.653 11.2693C119.04 7.20412 119.812 5.27444 121.989 5.48027C129.176 2.90738 134.066 11.295 137.293 18.6535C136.342 17.753 135.313 16.9811 134.481 16.235C131.792 13.8401 128.903 11.8464 125.87 10.2916C125.513 10.1115 125.355 10.8576 125.711 11.0377C128.57 12.5052 131.293 14.3867 133.828 16.6467C135.32 17.7661 136.731 19.0577 138.045 20.506L138.639 21.9468L138.857 22.5643L128.958 17.4185ZM137.689 50.4545C136.342 48.6802 135.099 46.7797 133.967 44.7684C133.511 43.9451 133.056 43.1218 132.64 42.1955C131.73 41.0635 132.027 40.1887 133.511 39.6226C134.165 37.8988 134.917 37.6158 135.748 38.7736C136.522 39.4753 137.251 40.2583 137.926 41.1149C139.086 42.6331 140.127 44.2964 141.034 46.0806C142.578 48.988 143.865 52.1012 145.231 55.1372C145.231 55.6775 145.231 56.2436 145.231 56.7839C142.875 53.5163 140.817 49.8885 138.599 46.4923C138.362 46.1063 137.946 46.6467 138.184 47.0326C140.52 50.6604 142.658 54.4683 145.172 57.8645C145.187 57.8737 145.204 57.8785 145.221 57.8785C145.238 57.8785 145.255 57.8737 145.271 57.8645V58.3533C142.521 56.064 139.977 53.3799 137.689 50.3516V50.4545ZM131.294 75C130.808 73.9185 130.473 72.7339 130.304 71.5009C130.482 69.8799 132.145 69.2882 133.353 70.0086C136.045 71.6295 137.847 77.187 138.698 80.5575C139.209 82.5887 139.555 84.6843 139.728 86.8096C138.461 83.5935 136.441 80.8662 135.392 77.4443C135.254 76.9811 134.679 77.187 134.818 77.6501C136.105 81.7925 138.777 85.0086 139.827 89.2539C139.846 89.6823 139.846 90.1119 139.827 90.5403C137.556 87.6012 135.513 84.3781 133.729 80.9177C132.773 79.0151 131.958 76.9993 131.294 74.8971V75ZM156.872 72.0412C156.397 72.6329 155.922 73.2247 155.447 73.765C154.257 75.1136 152.971 76.3111 151.606 77.3413C149.702 78.7814 147.667 79.9051 145.548 80.6861C146.576 78.832 147.787 77.1623 149.151 75.7204L153.111 70.9863C153.388 70.6518 152.972 70.0858 152.695 70.446C150.715 72.813 148.339 75.1286 146.478 77.8302C147.314 75.5806 148.253 73.3983 149.29 71.295C150.024 69.6718 150.93 68.1907 151.982 66.8954C152.728 65.9504 153.638 65.2531 154.635 64.8628C156.615 63.9365 157.486 64.8628 157.347 67.59C157.594 67.8913 157.782 68.2652 157.894 68.6802C158.007 69.0952 158.042 69.5393 157.995 69.9753C157.949 70.4113 157.822 70.8264 157.627 71.1859C157.432 71.5453 157.173 71.8386 156.872 72.0412Z" fill="#91715B"/>
<path d="M44.9791 71.295L47.5131 69.1595L49.8294 67.1526C50.6411 66.4322 51.4329 65.7375 52.1654 65.0428C53.2543 64.0651 54.3629 62.9588 55.4715 61.7495C56.5802 60.5403 57.5898 59.3825 58.5203 58.3276L61.6086 54.5454L64.1229 49.8885C64.4883 49.328 64.8318 48.744 65.1523 48.1389L66.1224 46.2607C66.4985 45.566 66.8351 44.8456 67.1716 44.1252C66.9165 43.1634 66.7309 42.1729 66.6173 41.1663C66.5182 39.9701 66.472 38.7674 66.4787 37.5643C66.4878 35.6636 66.5804 33.7652 66.7559 31.8782C66.9566 29.802 67.2407 27.7408 67.6072 25.7032C67.9635 23.6192 68.4188 21.5351 68.9336 19.4511C69.4368 17.4212 70.025 15.4285 70.6955 13.482C71.3057 11.6449 72.0135 9.86533 72.8138 8.15606C73.5005 6.61752 74.3101 5.17732 75.229 3.85931C76.0076 2.73938 76.916 1.78446 77.9214 1.02913C78.7985 0.361822 79.7955 0.00683958 80.8118 -3.37164e-05C81.7964 -0.0238907 82.778 0.149674 83.722 0.514546C84.4591 0.788221 85.137 1.28156 85.7017 1.95537C86.1914 2.57359 86.5641 3.331 86.7905 4.16806C87.0218 5.10696 87.1289 6.09001 87.1073 7.07544C87.0966 8.44744 86.9569 9.8126 86.6915 11.1406C86.3933 12.7008 86.0095 14.2313 85.5433 15.7204C85.0484 17.3156 84.4545 18.9622 83.8012 20.6346C83.1479 22.307 82.4154 24.0051 81.6235 25.7804C80.8316 27.5557 80.0397 29.1509 79.1884 30.7976C78.3372 32.4442 77.4661 34.0394 76.6148 35.5574C75.7636 37.0754 74.9123 38.5163 74.061 39.8799C73.2097 41.2435 72.4574 42.4528 71.7249 43.5077C71.8442 45.0572 72.0695 46.5899 72.398 48.0874C72.6968 49.4736 73.1433 50.7986 73.7245 52.024C74.2234 53.1098 74.8991 54.0407 75.7042 54.7513C76.5469 55.456 77.5334 55.8147 78.5351 55.7804C79.0859 55.7896 79.632 55.6494 80.1387 55.3687C80.622 55.0799 81.0691 54.6983 81.4651 54.2367C81.3859 53.2247 81.3265 52.247 81.2869 51.3036C81.2869 50.3516 81.2869 49.3996 81.2869 48.4476C81.2842 47.1293 81.3637 45.8128 81.5245 44.5111C81.6675 43.3629 81.9134 42.2404 82.257 41.1663C82.5193 40.2965 82.9093 39.5013 83.4052 38.825C83.6006 38.5528 83.8364 38.335 84.0984 38.1846C84.3605 38.0343 84.6432 37.9545 84.9296 37.9502C85.2396 37.9341 85.5456 38.0445 85.8049 38.266C86.0641 38.4875 86.2634 38.809 86.3748 39.1852C86.7114 40.1716 86.8673 41.2461 86.8301 42.3242C86.8099 44.2905 86.563 46.2419 86.0976 48.1132C85.5486 50.245 84.7325 52.2444 83.6824 54.0308C83.9793 55.4974 84.2961 56.9125 84.6722 58.3018C85.0484 59.6912 85.3849 60.8747 85.7215 61.9811C86.0045 62.8771 86.2167 63.8081 86.355 64.7598C86.4247 65.2271 86.471 65.6998 86.4936 66.1749C86.4998 66.4682 86.4523 66.7592 86.355 67.024C86.2596 67.2744 86.1398 67.5079 85.9986 67.7187C85.8525 67.9115 85.6858 68.0762 85.5037 68.2075C85.3289 68.3384 85.1313 68.4092 84.9296 68.4133C84.7366 68.3933 84.5516 68.3043 84.3951 68.1561C84.057 67.7738 83.7983 67.2872 83.6428 66.741C83.2749 65.5831 82.9835 64.3867 82.7717 63.1646C82.455 61.5694 82.158 59.331 81.8215 56.4751C81.3232 56.9958 80.7698 57.4204 80.1783 57.7358C79.5507 58.069 78.8762 58.2268 78.1986 58.1989C77.5254 58.1854 76.8577 58.0379 76.2189 57.7615C74.6102 57.0152 73.1825 55.7279 72.0813 54.0308C70.9228 52.2835 70.0294 50.2668 69.4483 48.0874C68.0229 50.6603 66.6965 53.0017 65.4889 55.4202C64.3237 57.6724 63.2467 59.9996 62.2619 62.3928C61.4061 64.4639 60.6843 66.624 60.1041 68.8507C59.6033 70.6684 59.3358 72.5807 59.3122 74.5111C59.2728 76.1797 59.5952 77.8291 60.2426 79.271C60.8865 80.6304 61.7858 81.7548 62.8559 82.5386C64.0823 83.4624 65.4215 84.1063 66.8153 84.4425C68.4465 84.8468 70.104 85.045 71.7645 85.0343C73.6802 85.0181 75.5924 84.8203 77.4859 84.4425C79.5294 84.0226 81.5522 83.447 83.5438 82.7187C85.609 81.9548 87.6383 81.0355 89.6215 79.9657C91.5979 78.9021 93.5161 77.6642 95.3627 76.2607C97.1376 74.9101 98.8317 73.3878 100.431 71.7067C101.89 70.1256 103.217 68.3491 104.39 66.4065C105.5 64.5964 106.4 62.5855 107.063 60.4374C107.717 58.3725 108.053 56.161 108.053 53.9279V53.0789C108.071 52.7963 108.071 52.5123 108.053 52.2298L105.677 51.4579L103.301 50.6089C102.509 50.3516 101.757 50.12 101.005 49.9399C100.352 49.7784 99.6896 49.6923 99.0251 49.6826C98.6245 49.6665 98.2243 49.7272 97.8373 49.8627C97.5446 49.965 97.2646 50.1209 97.0058 50.3259C96.7835 50.5022 96.5718 50.7 96.3723 50.9176C96.1738 51.1523 95.962 51.3673 95.7388 51.5609C95.4985 51.788 95.2309 51.9619 94.9469 52.0754C94.5677 52.2194 94.174 52.2888 93.7789 52.2813C93.4961 52.2845 93.2171 52.196 92.9672 52.024C92.7475 51.8672 92.5527 51.6577 92.3931 51.4065C92.1242 50.9074 91.9729 50.3173 91.9576 49.7084C91.9439 49.3088 91.995 48.9099 92.1076 48.5376C92.2201 48.1653 92.3916 47.8278 92.6109 47.5471C93.0613 46.9876 93.593 46.5503 94.1748 46.2607C94.8116 45.945 95.4769 45.7375 96.1545 45.6432C96.7061 45.5502 97.2614 45.4987 97.8175 45.4888C98.6653 45.494 99.5095 45.6322 100.332 45.9005C101.143 46.1835 101.955 46.518 102.747 46.9039C103.539 47.2898 104.311 47.7272 105.083 48.2161C105.855 48.7049 106.627 49.1166 107.419 49.5283C108.188 49.9327 108.974 50.2763 109.775 50.5574C110.562 50.838 111.374 50.9766 112.19 50.9691C112.624 50.976 113.052 50.8434 113.437 50.5832C113.826 50.3445 114.197 50.0603 114.546 49.7341L115.615 48.8593C115.967 48.5827 116.372 48.4401 116.783 48.4476C116.941 48.4214 117.102 48.4375 117.255 48.4951C117.408 48.5526 117.551 48.6503 117.674 48.7821C117.837 49.0331 117.922 49.3544 117.912 49.6826C117.902 49.9645 117.841 50.2394 117.734 50.4852C117.628 50.731 117.478 50.9408 117.298 51.0977C116.833 51.5661 116.32 51.9471 115.773 52.2298C115.177 52.5441 114.561 52.7936 113.932 52.9759C113.407 53.1412 112.869 53.236 112.329 53.259C111.85 53.2604 111.373 53.2001 110.903 53.0789C110.389 53.0789 109.834 52.8473 109.28 52.6672V52.9759C109.28 53.5677 109.399 54.1595 109.419 54.7255C109.438 55.2916 109.419 55.8576 109.419 56.4236C109.399 59.1242 109.011 61.7988 108.27 64.3224C107.554 66.8188 106.575 69.174 105.36 71.3207C104.079 73.5409 102.604 75.5612 100.965 77.3413C99.2365 79.2517 97.3891 80.9728 95.4419 82.4871C93.4002 83.9914 91.2762 85.2985 89.087 86.3979C86.9124 87.5556 84.6842 88.5352 82.4154 89.331C80.209 90.1107 77.9677 90.7121 75.7042 91.132C73.5865 91.5329 71.4497 91.7392 69.3097 91.7495C67.3179 91.7807 65.3286 91.5567 63.3706 91.0806C61.7357 90.6923 60.1544 89.9899 58.6787 88.9965C57.4439 88.1554 56.379 86.9478 55.5705 85.4717C54.8027 83.9921 54.4083 82.2386 54.4421 80.4545C54.4633 79.0547 54.6162 77.6636 54.8974 76.3121C55.1944 74.7169 55.5705 73.0188 56.0457 71.1663C56.5208 69.3139 57.0355 67.59 57.6096 65.789C58.1837 63.988 58.7777 62.2898 59.332 60.7718C59.1603 61.109 58.9381 61.3978 58.6787 61.6209L57.1741 63.1132C56.5802 63.7307 55.8873 64.3739 55.1944 65.0686L52.8385 67.2041L50.4431 69.4682L48.2654 71.3464L46.5629 72.7358C46.2569 73.0061 45.9321 73.2387 45.5928 73.4305C45.455 73.5659 45.29 73.6464 45.1177 73.6621C45.0244 73.6716 44.9308 73.6479 44.8471 73.5935C44.7634 73.5391 44.6927 73.4561 44.6425 73.3533C44.5393 73.1275 44.4846 72.8698 44.4842 72.6072C44.4691 72.351 44.5071 72.0942 44.5941 71.8635C44.6812 71.6328 44.8141 71.4365 44.9791 71.295ZM81.1682 2.28985C80.2244 2.27836 79.3047 2.67679 78.5549 3.42192C77.6999 4.2656 76.9689 5.30278 76.3971 6.48367C75.6997 7.89834 75.1096 9.39765 74.6351 10.9605C74.1204 12.6586 73.6651 14.4597 73.2493 16.3636C72.8336 18.2675 72.497 20.2229 72.2199 22.2041C71.9427 24.1852 71.6854 26.0892 71.5072 27.9416C71.329 29.7941 71.1706 31.518 71.0914 33.0874C71.0123 34.6569 70.9529 36.0463 70.9529 37.1784V38.1561C71.9478 36.7536 72.8861 35.2851 73.764 33.7564C74.7407 32.0411 75.691 30.2144 76.6148 28.2761C77.5453 26.3464 78.4362 24.3396 79.2676 22.2813C80.0991 20.2229 80.8514 18.1904 81.4849 16.235C82.0725 14.4325 82.575 12.5852 82.9895 10.7032C83.3319 9.23359 83.5184 7.7101 83.5438 6.17492C83.5922 5.16306 83.3985 4.15652 82.9895 3.29328C82.7803 2.93313 82.5019 2.65083 82.1822 2.47471C81.8625 2.29859 81.5128 2.23483 81.1682 2.28985ZM84.9098 47.3928C85.2316 46.4457 85.4899 45.4644 85.6819 44.4597C85.838 43.6164 85.9243 42.7539 85.9393 41.8868C85.9564 41.4176 85.8668 40.9523 85.6819 40.5489C85.5989 40.3769 85.4811 40.238 85.3415 40.1472C85.2018 40.0565 85.0456 40.0174 84.89 40.0343C84.7397 40.048 84.5939 40.1061 84.4635 40.2042C84.3331 40.3023 84.2217 40.4378 84.1377 40.6003C83.8917 41.0589 83.6983 41.5616 83.5636 42.0926C83.3785 42.7772 83.2458 43.4839 83.1677 44.2024C83.0658 44.9672 83.0129 45.7417 83.0093 46.518C82.9806 47.2636 82.9806 48.0107 83.0093 48.7564C83.0629 49.5438 83.1554 50.3258 83.2864 51.0977C83.6272 50.4723 83.9253 49.8094 84.1773 49.1166C84.3753 48.5763 84.5931 47.9588 84.8108 47.3928H84.9098Z" fill="#91715B"/>
</g>
<defs>
<clipPath id="clip0_997_8719">
<rect width="160" height="105" fill="white"/>
</clipPath>
</defs>
</svg>
