<svg width="93" height="25" viewBox="0 0 93 25" fill="none" xmlns="http://www.w3.org/2000/svg">
<g clip-path="url(#clip0_1047_9313)">
<path d="M80.4699 18.3439C80.3823 18.351 80.3001 18.4027 80.2409 18.488C78.7716 17.7873 77.2486 17.2997 75.6989 17.0336C78.0328 16.6341 80.3357 15.9677 82.5816 15.042C86.486 15.5792 94.0559 12.749 92.8308 5.87009C92.8075 5.76133 92.7527 5.6689 92.6783 5.61258C92.6038 5.55626 92.5155 5.54051 92.4324 5.56872C88.3386 7.19346 84.2648 9.17197 82.1034 14.4131C71.2666 18.737 59.9815 16.3654 48.9155 13.7186C50.1008 13.1421 51.2861 12.618 52.4913 12.1594C52.5291 12.1663 52.5677 12.1616 52.604 12.1456C52.6403 12.1297 52.6733 12.1031 52.7004 12.0677C52.7203 12.1232 52.7494 12.172 52.7856 12.2106C52.8218 12.2492 52.8642 12.2765 52.9096 12.2904C57.083 13.7317 62.4815 12.487 64.6429 7.04933C64.6821 6.97523 64.7015 6.88605 64.6979 6.79589C64.6943 6.70572 64.6679 6.6197 64.623 6.55143C64.6257 6.49592 64.6198 6.44027 64.6055 6.38793C64.5912 6.33558 64.5689 6.28765 64.5399 6.24712C64.511 6.20658 64.476 6.17429 64.4372 6.15226C64.3984 6.13023 64.3565 6.11892 64.3142 6.11904C61.7242 6.00748 59.1416 6.54554 56.7045 7.70447C55.081 8.47753 53.2283 9.35541 52.312 11.3732C50.7382 11.9891 49.1944 12.6835 47.6605 13.4435C45.509 12.9325 43.3576 12.4083 41.236 11.9366C38.2413 11.2466 35.2698 10.7618 32.3215 10.4822L30.7876 9.82711C30.5286 9.72229 30.3693 10.0368 30.3992 10.325C24.1351 9.86381 17.8521 10.4938 11.7135 12.1987C12.803 10.6115 14.0491 9.22336 15.4188 8.07134C18.865 8.71338 24.2536 6.63004 24.911 1.42826C24.9807 0.891051 24.3632 0.655202 24.2934 1.19241C23.7357 5.54252 19.4726 7.49482 16.375 7.33759C17.0817 6.83538 17.8139 6.39759 18.5662 6.02732C18.9547 5.84388 18.7854 5.01841 18.3869 5.20185C17.5445 5.63351 16.7258 6.14136 15.9367 6.72176C17.6698 3.02679 22.0922 0.576585 25.1301 0.877948C25.5385 0.877948 25.5385 0.0655789 25.1301 0.0262707C21.385 -0.340606 16.3351 2.84336 14.8411 7.57344C13.2598 8.92878 11.8456 10.5947 10.6477 12.5132C7.06285 13.6218 3.55715 15.1342 0.169426 17.0336C-0.209068 17.2564 0.119624 17.9901 0.498119 17.7805C3.83318 15.9051 7.27724 14.3847 10.7971 13.2338C10.8476 13.2579 10.9025 13.2607 10.9543 13.2419C11.006 13.2232 11.052 13.1837 11.086 13.129C15.0067 11.876 19.0086 11.1126 23.0384 10.8491C25.9284 10.6916 28.8231 10.7835 31.704 11.1243C34.56 12.3196 37.3546 13.7552 40.0707 15.422C40.2002 15.5006 40.3197 15.5923 40.4392 15.684C40.9671 21.1086 45.8079 24.2663 49.5828 24.2925C49.6393 24.2906 49.6945 24.2695 49.743 24.2314C49.7915 24.1933 49.8317 24.1393 49.8597 24.0748C49.8877 24.0103 49.9026 23.9373 49.903 23.863C49.9034 23.7887 49.8891 23.7155 49.8617 23.6505C49.2116 21.3556 48.0827 19.3483 46.6047 17.8591C44.9844 16.5145 43.2129 15.5151 41.3556 14.8979C41.2915 14.8677 41.2214 14.8683 41.1577 14.8994C41.0939 14.9306 41.0405 14.9903 41.007 15.0682C40.5289 14.7537 40.0109 14.4655 39.5428 14.1772C37.9226 13.1989 36.2592 12.3035 34.5526 11.4912C38.2778 12.0546 41.993 12.9062 45.6883 13.8103C54.6527 15.9985 63.9855 18.357 73.0893 17.4529C73.1053 17.5406 73.1437 17.6184 73.1981 17.6733C73.2525 17.7281 73.3196 17.7567 73.3881 17.7543C75.5359 17.7474 77.6708 18.1897 79.713 19.0645C82.4521 24.8035 87.6016 26.7427 92.0339 22.9953C92.0813 22.9565 92.1203 22.9024 92.1474 22.8383C92.1745 22.7741 92.1887 22.7019 92.1887 22.6285C92.1887 22.5551 92.1745 22.4829 92.1474 22.4187C92.1203 22.3545 92.0813 22.3004 92.0339 22.2616C88.5812 19.4102 84.5401 18.0411 80.4699 18.3439ZM63.9756 6.9183C61.9835 11.4518 57.5312 12.6311 53.8359 11.6746C55.1706 11.2029 56.5053 10.7836 57.8699 10.3643C58.2782 10.2595 58.099 9.44713 57.6906 9.55195C56.2164 9.91883 54.7025 10.3905 53.308 10.8622C55.5192 7.59965 60.8879 6.8921 63.9756 6.9183ZM45.9075 18.226C47.3364 19.5042 48.451 21.3028 49.1147 23.4015C45.9473 23.1395 41.9532 20.5975 41.2062 16.2474C42.8098 17.6494 44.0249 19.5493 45.7083 20.8334C45.7806 20.869 45.8603 20.87 45.9331 20.8361C46.006 20.8022 46.0674 20.7356 46.1067 20.648C46.1459 20.5604 46.1604 20.4574 46.1477 20.3571C46.1349 20.2568 46.0957 20.1657 46.0369 20.0996C44.9046 19.0091 43.8328 17.8137 42.8297 16.5226L42.6006 16.2999C43.7592 16.7597 44.8699 17.4066 45.9075 18.226ZM86.4163 9.63057C87.3628 8.88482 88.3639 8.26589 89.4044 7.78308C90.1014 7.29183 90.8552 6.95537 91.6355 6.78728C93.3387 6.99692 91.4363 10.3512 90.7889 11.1112C89.9944 12.0146 89.0882 12.7326 88.1096 13.2338C86.9097 13.8988 85.6261 14.2631 84.3246 14.3082C84.7529 14.0986 85.1712 13.9152 85.5995 13.6793C86.0278 13.4435 85.8187 12.6573 85.4302 12.8669C84.6334 13.2862 83.8366 13.6793 83.0298 14.02C83.8903 12.2372 85.0485 10.736 86.4163 9.63057ZM80.7289 19.5624C82.0028 20.2158 83.2296 21.0182 84.3943 21.9602C84.743 22.2485 85.0716 21.5147 84.7131 21.2265C83.7216 20.4155 82.6824 19.7101 81.6054 19.1169C85.001 19.1545 88.3256 20.3995 91.2271 22.7202C89.4982 24.0385 87.4536 24.4458 85.5055 23.8598C83.5574 23.2738 81.8505 21.7382 80.7289 19.5624Z" fill="#FFF1E0"/>
</g>
<defs>
<clipPath id="clip0_1047_9313">
<rect width="93" height="25" fill="white"/>
</clipPath>
</defs>
</svg>
