<svg width="339" height="767" viewBox="0 0 339 767" fill="none" xmlns="http://www.w3.org/2000/svg">
<g clip-path="url(#clip0_1047_9250)">
<path d="M232.691 666.371L233.11 666.259L232.691 666.371Z" fill="#FFF1E0" fill-opacity="0.1"/>
<path d="M166.194 318.88C174.407 312.724 191.944 324.439 198.95 328.955C207.877 334.639 215.547 341.071 218.793 351.487C208.607 349.914 198.84 346.303 190.079 340.87C181.318 335.437 173.742 328.294 167.805 319.869C166.558 318.147 163.669 319.779 164.917 321.5C170.913 330.109 178.549 337.453 187.386 343.112C196.224 348.77 206.09 352.632 216.419 354.475C202.709 358.813 189.151 364.417 175.368 369.596C175.206 369.413 174.988 369.287 174.749 369.238C169.655 365.098 163.827 361.953 157.57 359.968C153.838 358.874 145.069 356.286 141.249 358.204C137.428 360.122 138.698 362.622 139.826 365.571C140.728 369.469 141.136 373.465 141.04 377.464C140.959 379.328 141.493 381.168 142.559 382.7C143.262 383.635 144.036 384.515 144.873 385.332C147.03 387.721 148.684 390.519 149.736 393.56C150.264 395.848 151.311 397.984 152.796 399.804C155.668 402.287 158.759 400.713 161.584 398.987C168.842 394.282 177.027 382.454 176.481 373.184C204.327 362.752 231.263 350.321 261.191 351.4C226.111 379.345 192.525 409.113 160.572 440.581C150.586 436.552 140.137 433.785 129.468 432.344C125.074 431.986 119.707 432.599 117.46 436.898C114.052 443.414 122.02 448.308 122.814 454.187C123.812 461.243 123.964 465.985 130.408 470.353C134.978 473.74 138.443 478.405 140.362 483.758C141.48 486.112 142.719 489.891 145.45 491.291C149.033 493.359 150.416 491.271 153.164 488.145C163.117 476.218 171.309 457.738 163.229 442.823C180.108 426.765 197.032 410.734 214.365 395.116C207.063 408.489 204.621 423.981 207.454 438.96C207.701 440.575 209.842 440.339 210.518 439.374C222.574 422.476 234.223 404.342 229.653 382.734C229.617 382.444 229.479 382.176 229.263 381.979C241.212 371.499 253.57 361.433 266.2 351.817C266.53 351.864 266.865 351.779 267.133 351.582C267.401 351.384 267.581 351.09 267.635 350.761C279.645 340.788 292.087 332.007 304.856 323.886C309.663 320.77 314.487 318.136 319.451 315.464C313.895 344.598 294.034 368.477 284.045 395.993C283.804 395.715 283.477 395.526 283.116 395.457C275.964 395.687 261.058 398.215 258.113 406.176C257.68 407.056 257.602 408.07 257.896 409.006C258.189 409.943 258.831 410.732 259.689 411.21C261.149 412.052 263.003 412.416 264.342 413.366C265.681 414.316 266.076 415.368 267.08 416.184C268.549 417.446 270.301 418.336 272.187 418.779C275.037 419.161 277.848 419.798 280.585 420.682C282.905 421.668 285.068 424.154 287.574 424.717C289.125 424.956 290.711 424.735 292.137 424.082C293.563 423.429 294.765 422.371 295.594 421.041C303.338 412.022 293.15 404.843 287.002 397.818L286.692 397.64C291.954 384.184 298.237 371.15 305.486 358.653C305.299 363.572 306.219 368.471 308.178 372.99C312.546 384.938 317.332 396.773 321.909 408.664C321.993 409.022 322.195 409.341 322.483 409.569C322.771 409.798 323.128 409.923 323.496 409.924C323.864 409.925 324.221 409.802 324.51 409.576C324.799 409.349 325.002 409.031 325.088 408.674C333.268 388.478 332.912 356.814 313.254 343.462C317.853 334.059 321.156 324.076 323.074 313.785C323.121 313.565 323.111 313.336 323.045 313.121C343.024 302.624 363.886 293.46 381.907 280.124C402.086 265.501 416.83 244.971 429.417 223.373C418.898 265.685 402.771 306.398 381.464 344.433L381.198 344.28C367.197 340.438 349.756 339.794 341.58 354.16C341.442 354.415 341.372 354.7 341.376 354.99C341.381 355.279 341.46 355.563 341.606 355.813C341.752 356.063 341.96 356.271 342.21 356.418C342.46 356.564 342.744 356.644 343.033 356.649C353.103 356.984 365.723 360.971 374.704 356.142C364.704 373.461 354.13 390.449 343.379 407.334C343.145 407.396 342.926 407.504 342.734 407.65C342.542 407.797 342.381 407.981 342.26 408.19C342.139 408.399 342.061 408.631 342.029 408.87C341.998 409.11 342.015 409.354 342.078 409.587C336.986 417.487 331.869 425.431 326.733 433.305C308.547 430.581 295.675 440.822 282.054 451.338C281.834 451.414 281.638 451.543 281.482 451.715L281.202 452.201C279.569 453.497 281.726 455.685 283.39 454.643C295.39 455.209 308.08 454.17 317.714 447.597C312.141 456.161 306.582 464.734 301.038 473.315C300.222 474.729 299.431 476.098 298.64 477.468C275.151 476.239 251.627 478.99 229.064 485.604C225.146 478.528 219.516 472.543 212.691 468.198C209.196 466.18 202.29 461.899 198.021 463.675C193.751 465.452 195.47 468.093 195.457 471.385C196.037 474.817 195.859 478.333 194.935 481.687C194.629 482.218 194.323 482.748 194.016 483.278C193.71 483.808 193.178 483.913 193.379 484.382C192.66 485.607 192.055 486.894 191.571 488.228C190.743 490.038 190.653 492.099 191.321 493.975C192.265 496.935 193.688 499.171 194.367 501.978C193.803 502.241 193.263 502.46 192.743 502.749C192.653 502.797 192.573 502.863 192.509 502.942C192.444 503.022 192.396 503.113 192.367 503.211C192.338 503.309 192.328 503.412 192.338 503.514C192.349 503.615 192.38 503.714 192.428 503.804C192.477 503.894 192.543 503.974 192.622 504.038C192.702 504.103 192.793 504.151 192.891 504.18C192.989 504.21 193.092 504.219 193.194 504.209C193.296 504.198 193.395 504.168 193.485 504.119C193.663 503.81 194.214 503.775 194.544 503.612C194.685 504.154 194.759 504.712 194.766 505.272C194.751 507.443 193.94 509.154 195.09 511.35C196.273 513.018 197.972 514.251 199.926 514.857C201.879 515.463 203.977 515.408 205.895 514.701C211.678 513.156 216.866 509.921 220.794 505.409C224.723 500.898 227.214 495.315 227.947 489.378C250.016 482.68 273.062 479.754 296.113 480.722C288.019 493.447 279.881 506.146 271.699 518.82C260.245 515.781 248.146 516.259 236.975 520.191C225.805 524.124 216.082 531.328 209.073 540.866C208.41 542.015 209.412 543.241 210.526 543.354C223.506 544.368 246.105 544.455 260.202 536.689L219.168 600.714C201.935 601.958 185.98 595.574 168.996 593.426C161.114 592.469 148.714 590.553 144.411 599.026C143.214 603.402 142.248 607.839 141.515 612.317C139.632 616.484 139.279 621.182 140.519 625.586C143.783 636.483 154.444 647.233 163.38 655.456C163.049 656.03 163.706 656.527 164.289 656.334L167.602 659.484C170.615 662.996 174.806 665.291 179.389 665.935C188.623 667.614 196.502 670.926 205.479 673.458C210.474 674.917 215.765 675.025 220.812 673.769C224.223 672.969 227.255 671.598 230.686 670.457C235.131 669.194 240.005 669.946 244.317 668.606C251.419 666.521 255.58 661.972 252.71 654.071C250.572 648.477 244.842 644.815 240.804 640.776C232.685 632.671 219.372 618.034 221.353 605.51C221.406 605.285 221.406 605.049 221.352 604.824C221.298 604.598 221.191 604.388 221.041 604.211L221.271 603.813L221.536 603.967C221.828 603.946 222.11 603.855 222.358 603.7C222.605 603.545 222.811 603.332 222.957 603.079C223.104 602.826 223.185 602.541 223.195 602.249C223.206 601.957 223.144 601.667 223.016 601.404C238.444 576.929 253.869 552.63 269.292 528.505C269.572 528.019 269.853 527.533 270.133 527.047C271.154 525.28 272.149 523.557 273.365 521.961C277.992 530.476 279.752 540.251 278.385 549.838C272.753 558.368 262.8 560.692 254.815 566.45C251.087 569.128 245.85 573.704 247.09 579.015C248.074 583.235 251.869 584.425 255.525 585.652C261.674 587.671 268.575 593.187 275.184 592.466C278.155 592.12 280.831 589.836 283.968 589.408C287.234 589.428 290.492 589.732 293.705 590.317C298.125 590.63 304.086 590.42 306.259 585.43C307.658 582.291 306.244 579.53 304.551 576.844C297.632 567.589 290.125 558.787 282.075 550.495C281.939 550.362 281.772 550.265 281.589 550.214C283.264 539.431 281.21 528.395 275.764 518.929L275.278 518.648L304.879 472.587C307.838 467.462 311.284 462.618 314.508 457.646C309.857 480.821 302.044 504.058 310.783 527.129C310.71 527.437 310.731 527.761 310.844 528.057C310.957 528.353 311.156 528.609 311.416 528.791C312.207 530.485 314.568 529.256 314.328 527.526C322.62 514.288 332.479 500.48 333.347 484.369C333.84 471.539 329.376 459.007 320.881 449.366L320.659 449.239C328.414 437.339 336.169 425.439 343.836 413.489C350.068 427.926 357.048 442.501 362.493 457.485C356.015 462.633 351.062 469.446 348.164 477.195C347.096 479.76 341.685 488.417 346.731 490.506C350.437 492.056 357.432 486.375 359.899 484.146C363.507 481.086 366.147 477.045 367.5 472.512C368.524 476.461 369.477 480.428 370.152 484.47C370.826 488.511 371.094 491.317 371.416 494.743C371.3 494.955 371.236 495.192 371.23 495.434C371.223 495.677 371.274 495.917 371.379 496.135L371.6 496.263C372.531 516.231 371.47 536.241 368.432 555.995C360.295 563.55 335.459 568.769 336.767 582.543C336.955 584.182 337.627 585.729 338.697 586.986C339.767 588.244 341.186 589.156 342.775 589.605C343.704 590.142 344.953 589.92 345.895 590.229L347.267 591.02C347.319 591.137 347.408 591.234 347.519 591.299C347.63 591.363 347.758 591.39 347.886 591.378C351.142 592.787 354.29 594.486 357.66 595.902C358.829 596.638 360.143 597.115 361.512 597.301C365.524 597.481 369.543 597.38 373.54 597C380.446 597.297 387.319 598.134 394.096 599.501C397.002 599.882 400.078 600.48 401.598 597.234C403.118 593.988 398.43 587.806 396.679 585.322C388.868 575.033 380.411 565.251 371.358 556.035L371.137 555.907C373.59 538.844 374.761 521.62 374.64 504.38C384.373 523.173 398.744 539.176 416.392 550.872C416.647 551.01 416.933 551.08 417.222 551.076C417.512 551.072 417.795 550.993 418.045 550.847C418.296 550.702 418.504 550.494 418.65 550.244C418.796 549.995 418.876 549.711 418.881 549.422C417.01 528.961 400.088 490.03 374.129 494.13C373.832 490.659 373.396 487.227 372.846 483.787C368.634 458.086 355.949 433.678 345.774 410.131C352.613 399.41 359.413 388.551 365.961 377.721C358.801 407.284 372.054 435.613 393.729 456.197C393.968 456.414 394.264 456.558 394.582 456.612C394.901 456.666 395.228 456.627 395.524 456.5C395.821 456.374 396.075 456.165 396.256 455.898C396.437 455.631 396.538 455.318 396.546 454.996C400.073 424.573 401.265 387.265 370.328 370.463C376.297 360.125 382.291 349.742 388.184 339.536C412.319 293.898 429.263 244.806 438.419 193.99C441.842 206.177 445.485 218.256 449.348 230.226C449.202 230.406 449.096 230.615 449.034 230.839C448.973 231.062 448.959 231.296 448.993 231.526C449.026 231.755 449.107 231.976 449.23 232.173C449.352 232.37 449.514 232.539 449.706 232.671L450.325 233.028L450.631 234.03C450.426 233.961 450.207 233.948 449.996 233.992C449.784 234.035 449.588 234.134 449.427 234.277C428.769 249.626 430.719 275.67 425.79 298.509C425.712 298.859 425.747 299.225 425.892 299.554C426.036 299.883 426.282 300.157 426.593 300.337C426.904 300.517 427.264 300.592 427.621 300.553C427.978 300.513 428.313 300.361 428.577 300.118C441.835 288.391 456.632 273.488 457.842 255.866L464.565 275.889C464.329 276.096 464.167 276.376 464.106 276.684C461.617 291.541 455.545 305.565 446.414 317.544L446.04 317.682C440.816 314.477 434.658 313.145 428.58 313.904C424.208 314.326 416.187 314.938 412.874 318.327C409.561 321.716 411.934 322.202 413.641 324.661C416.636 329.689 415.856 336.249 419.981 340.751C422.497 343.441 425.968 345.091 428.649 347.7C431.331 350.308 433.698 353.973 436.575 356.753C439.452 359.533 441.426 361.733 444.823 359.63C455.109 353.256 450.057 330.133 448.976 319.848C457.681 308.503 463.739 295.357 466.71 281.369L475.149 306.388C481.716 323.751 486.207 341.827 488.529 360.239C488.338 360.554 488.245 360.919 488.264 361.287C488.283 361.655 488.412 362.009 488.635 362.303C488.678 362.561 488.685 362.823 488.658 363.082C488.603 363.256 488.583 363.439 488.6 363.621C488.617 363.802 488.669 363.978 488.755 364.14C488.838 365.425 488.922 366.71 488.961 367.97C489.001 369.23 488.943 370.964 488.925 372.426C488.731 372.132 488.45 371.906 488.121 371.779C487.792 371.652 487.432 371.632 487.091 371.721C486.482 371.958 485.892 372.266 485.257 372.547L484.903 372.343C482.526 372.982 480.322 374.146 478.455 375.748C466.254 382.789 457.317 394.344 453.57 407.919C453.424 408.208 453.362 408.531 453.39 408.853C453.418 409.175 453.536 409.483 453.73 409.742C453.924 410.001 454.186 410.201 454.487 410.319C454.788 410.437 455.117 410.468 455.435 410.41C462.244 409.261 468.705 406.592 474.337 402.603C479.969 398.613 484.628 393.405 487.967 387.366C486.21 401.645 483.396 415.773 479.547 429.633C479.473 429.706 479.42 429.798 479.394 429.898C469.113 434.816 459.402 440.845 450.436 447.877C446.789 450.72 438.112 455.43 439.362 461.336C440.145 465.087 451.328 472.074 454.319 473.329C457.325 474.505 460.548 475.019 463.77 474.839C470.814 474.941 477.748 476.61 484.069 479.725C494.443 484.536 507.895 493.009 507.206 476.529C506.76 467.572 504.401 458.811 500.286 450.837C496.172 442.862 490.397 435.859 483.351 430.298C483.188 430.144 482.991 430.03 482.776 429.966C488.222 411.375 491.377 392.188 492.172 372.829C492.201 371.962 492.116 371.088 492.1 370.195C498.515 380.456 505.47 390.371 512.935 399.897C521.62 410.802 530.44 422.904 543.655 428.414C543.943 428.572 544.271 428.643 544.598 428.618C544.926 428.593 545.239 428.473 545.498 428.273C545.758 428.072 545.954 427.8 546.061 427.49C546.168 427.18 546.182 426.845 546.101 426.527C538.373 399.561 524.587 360.203 491.489 359.71C489.717 344.392 486.257 329.316 481.171 314.754C475.445 297.192 469.44 279.705 463.46 262.173C477.919 268.937 491.386 277.644 503.489 288.052L503.71 288.18C503.764 288.425 503.867 288.657 504.012 288.862C504.157 289.067 504.341 289.241 504.554 289.374C505.439 296.578 507.832 303.517 511.576 309.739C515.321 315.961 520.334 321.326 526.288 325.486C529.031 327.07 530.581 327.552 533.059 325.507C535.537 323.462 536.362 321.523 538.358 319.495C539.508 318.627 542.635 316.073 543.029 315.594C544.707 314.274 545.812 312.36 546.116 310.247C546.425 308.894 546.146 307.437 546.341 306.077C547.219 302.349 548.844 298.839 551.119 295.758C552.372 294.22 553.268 292.424 553.743 290.498C554.013 286.353 550.69 284.141 547.345 282.681C540.814 280.218 533.835 279.171 526.871 279.609C519.907 280.047 513.117 281.96 506.952 285.221C506.812 285.193 506.667 285.215 506.542 285.283C506.417 285.35 506.32 285.459 506.266 285.591C506.177 285.695 506.108 285.815 506.062 285.944C493.087 274.759 478.555 265.516 462.924 258.505C462.672 258.377 462.385 258.335 462.107 258.387C459.615 251.058 457.123 243.728 454.676 236.424C465.261 243.44 477.255 248.053 489.812 249.935C490.123 250.002 490.447 249.98 490.745 249.871C491.044 249.763 491.305 249.572 491.5 249.32C491.694 249.069 491.813 248.768 491.844 248.452C491.874 248.135 491.814 247.817 491.671 247.533C489.142 242.694 485.62 238.442 481.335 235.054C477.05 231.667 472.1 229.221 466.806 227.875C464.179 226.56 461.206 226.1 458.306 226.561C456.292 226.462 454.274 226.539 452.275 226.79C452.001 226.792 451.736 226.889 451.526 227.065C447.246 214.049 443.477 201.269 439.93 188.206C439.837 187.928 439.679 187.676 439.471 187.469C442.124 173.272 444.195 158.856 446.298 144.283C454.815 167.226 462.215 190.88 483.548 204.905C483.803 205.044 484.089 205.114 484.378 205.11C484.668 205.106 484.951 205.027 485.202 204.881C485.452 204.735 485.66 204.528 485.806 204.278C485.953 204.028 486.032 203.745 486.037 203.455C485.876 190.507 483.262 177.703 478.331 165.723C471.955 152.557 459.413 143.019 447.264 135.356C448.351 126.322 449.28 117.256 450.164 108.165C459.064 120.366 470.483 130.515 483.647 137.923C483.936 138.06 484.258 138.114 484.575 138.079C484.893 138.045 485.195 137.923 485.448 137.728C485.701 137.533 485.895 137.272 486.009 136.973C486.123 136.675 486.152 136.351 486.093 136.036C482.937 118.721 465.724 106.957 451.088 98.8012C452.123 86.7923 453.047 74.7385 453.858 62.6399C454.006 60.5454 450.585 60.75 450.539 62.6677C449.802 74.024 448.961 85.4578 448.017 96.9693C447.895 96.7484 447.716 96.5649 447.497 96.4388C447.279 96.3128 447.03 96.2489 446.778 96.2541C428.67 92.9866 408.189 98.8349 403.083 118.508C403.029 118.79 403.046 119.081 403.132 119.355C403.218 119.629 403.371 119.877 403.577 120.077C403.783 120.278 404.035 120.424 404.311 120.503C404.587 120.583 404.878 120.592 405.159 120.531C420.438 118.278 436.286 114.938 446.415 103.114L447.234 104.352C446.377 114.52 445.387 124.611 444.258 134.74C444.031 134.754 443.811 134.824 443.617 134.943C443.424 135.063 443.263 135.229 443.15 135.426C443.036 135.622 442.973 135.844 442.966 136.072C442.959 136.299 443.008 136.524 443.11 136.728L443.888 138.65L442.828 147.228C424.155 150.762 405.343 154.334 387.049 159.56C378.825 154.243 369.629 150.609 359.994 148.868C350.358 147.127 340.474 147.314 330.916 149.419C329.318 149.734 329.589 151.716 330.53 152.436C340.192 160.58 352.059 165.668 364.618 167.05C360.19 168.794 355.781 170.608 351.447 172.701C347.112 174.793 343.692 176.53 339.928 178.657C339.837 178.578 339.732 178.517 339.618 178.478C339.818 178.303 339.976 178.085 340.081 177.841C340.186 177.597 340.235 177.332 340.224 177.066C340.214 176.801 340.144 176.54 340.02 176.305C339.896 176.07 339.722 175.865 339.508 175.705C334.239 171.612 328.15 168.7 321.657 167.167C315.163 165.634 308.417 165.516 301.877 166.821C300.349 167.117 300.525 169.163 301.491 169.838C310.58 176.264 320.481 182.51 331.574 181.787C329.356 183.337 327.347 185.167 325.599 187.232C321.712 189.878 317.819 192.637 314.032 195.518C304.304 188.96 292.605 185.974 280.928 187.067C275.847 187.492 260.969 189.152 260.883 196.349C260.898 196.643 260.986 196.93 261.138 197.182C261.291 197.435 261.504 197.646 261.758 197.796C274.695 204.063 289.259 206.151 303.429 203.77C294.044 211.547 284.992 219.87 276.231 228.302C276.037 228.132 275.811 228.001 275.567 227.919C267.463 225.393 258.984 224.284 250.505 224.642C246.97 224.84 241.087 224.507 239.576 228.759C238.064 233.012 243.601 237.622 246.185 240.705C252.79 249.236 258.716 258.271 263.908 267.726C264.036 267.945 264.211 268.133 264.42 268.275C264.63 268.417 264.869 268.51 265.12 268.548C265.371 268.585 265.626 268.565 265.868 268.49C266.11 268.414 266.331 268.286 266.516 268.113C277.776 258.826 278.922 244.583 278.545 230.934C288.952 220.978 299.669 211.201 310.807 202.433C312.132 202.079 313.501 201.75 314.833 201.282C315.086 201.195 315.316 201.051 315.503 200.861C315.691 200.671 315.833 200.44 315.917 200.186C316 199.932 316.024 199.662 315.986 199.397C315.949 199.132 315.85 198.88 315.698 198.659C317.401 197.345 319.078 196.074 320.799 194.83C314.042 209.19 316.386 228.217 317.58 243.516C317.583 243.842 317.68 244.161 317.861 244.434C318.042 244.706 318.298 244.921 318.598 245.05C318.899 245.18 319.23 245.219 319.552 245.164C319.875 245.109 320.174 244.961 320.413 244.739C338.767 228.885 340.365 207.422 338.131 184.63C338.104 184.241 337.939 183.874 337.666 183.596C342.694 180.608 347.81 177.671 353.102 175.247C381.162 161.993 412.112 156.298 442.664 150.373C440.999 162.961 439.106 175.535 436.795 188.222C436.455 188.108 436.086 188.117 435.752 188.247C435.419 188.377 435.141 188.62 434.968 188.934C434.713 189.376 434.433 189.862 434.178 190.304C418.609 193.569 400.507 195.194 386.01 201.61C371.512 208.026 363.108 222.379 354.473 234.065C354.327 234.348 354.265 234.667 354.293 234.984C354.321 235.301 354.438 235.604 354.631 235.858C354.825 236.111 355.086 236.305 355.385 236.416C355.684 236.527 356.008 236.551 356.319 236.486C382.49 228.444 419.456 218.152 435.765 193.989C434.938 198.283 434.11 202.577 433.213 206.89C432.729 209.261 432.156 211.581 431.602 213.971C431.384 214.013 431.179 214.103 431 214.234C430.822 214.366 430.676 214.536 430.573 214.732C415.276 242.248 396.696 268.81 369.175 285.321C361.912 289.729 354.511 293.762 347.021 297.744C347.023 297.469 346.944 297.199 346.796 296.967C346.647 296.735 346.435 296.55 346.184 296.436C335.629 291.289 323.671 289.77 312.17 292.115C309.38 292.269 306.714 293.309 304.558 295.084C301.611 296.66 299.039 298.851 297.015 301.509C296.453 302.481 297.088 303.731 298.012 303.97C308.884 306.962 320.259 307.65 331.408 305.99C318.557 312.401 306.047 319.474 293.93 327.18L293.621 327.001C274.173 311.65 250.609 313.951 227.784 318.445L225.705 317.245C223.98 316.249 222.565 318.495 223.7 319.799C223.581 320.093 223.544 320.414 223.591 320.729C223.638 321.043 223.768 321.339 223.968 321.586C224.168 321.834 224.43 322.023 224.727 322.136C225.025 322.248 225.347 322.28 225.66 322.226L227.118 321.949C244.537 332.652 265.231 336.713 285.394 333.385C278.703 338.163 271.97 343.014 265.195 347.938C250.8 347.013 236.357 348.647 222.538 352.765C222.605 352.495 222.606 352.213 222.541 351.942C219.24 339.374 209.84 331.649 199.288 325.203C191.281 320.581 173.978 309.177 164.735 316.094C163.014 317.339 164.649 320.227 166.194 318.88ZM265.134 410.053C263.312 407.999 259.699 410.273 263.907 404.926C267.592 400.279 277.636 399.127 282.976 398.969C282.883 399.181 282.852 399.415 282.887 399.644C282.922 399.873 283.021 400.087 283.173 400.262C277.408 403.55 272.154 407.661 267.576 412.464C266.72 411.705 265.905 410.9 265.134 410.053ZM268.826 413.363C272.963 409.109 277.636 405.411 282.728 402.361C281.58 407.154 279.805 411.774 277.448 416.102L275.536 415.941C273.127 415.625 270.827 414.742 268.826 413.363ZM281.897 417.08C280.968 416.738 279.993 416.533 279.005 416.471C281.333 412.044 283.097 407.343 284.254 402.476L285.33 408.989C285.819 411.922 287.591 417.127 285.87 419.904C284.643 419.373 283.282 417.644 281.897 417.08ZM287.382 420.247C288.194 417.916 288.273 415.392 287.607 413.013C287.033 409.206 286.364 405.462 285.676 401.648C287.71 403.845 289.596 406.174 291.323 408.62C294.882 413.796 296.644 423.002 287.357 420.291L287.382 420.247ZM323.517 403.937L315.573 383.269C312.289 374.657 305.904 363.548 310.298 354.303C310.397 354.093 310.453 353.865 310.46 353.634C310.468 353.402 310.427 353.171 310.341 352.955C310.255 352.74 310.126 352.544 309.961 352.381C309.795 352.218 309.598 352.09 309.382 352.007C310.377 350.283 311.346 348.605 312.031 346.703C328.44 358.532 329.43 385.319 323.517 403.937ZM211.873 471.555C217.565 475.417 222.273 480.556 225.621 486.562C225.52 486.546 225.416 486.557 225.321 486.596C225.226 486.635 225.143 486.698 225.082 486.781L224.332 487.467L223.585 487.33C223.719 487.255 223.829 487.143 223.903 487.008C223.976 486.873 224.01 486.72 224 486.566C223.99 486.413 223.936 486.265 223.846 486.14C223.756 486.016 223.632 485.919 223.49 485.861C219.061 483.548 214.893 480.767 211.058 477.564C207.251 475.072 203.308 472.796 199.247 470.745C199.189 470.668 199.116 470.604 199.032 470.555C198.949 470.507 198.856 470.476 198.76 470.465C200.048 463.432 208.178 469.068 211.873 471.555ZM198.628 471.92C203.235 474.402 207.693 477.153 211.978 480.158C215.294 482.914 218.894 485.308 222.718 487.301C214.237 485.644 205.685 484.418 197.068 483.508C198.061 481.713 198.763 479.773 199.149 477.758C199.135 475.801 198.96 473.849 198.628 471.92ZM198.329 499.611C197.089 494.301 193.224 494.661 195.445 487.342C195.713 486.506 196.029 485.685 196.392 484.885C205.28 485.834 214.105 487.1 222.902 488.821C215.777 495.134 206.683 496.482 198.334 499.909L198.329 499.611ZM218.056 503.343C215.932 505.592 208.654 512.17 204.984 511.171L198.119 504.674C198.255 503.928 198.372 503.112 198.464 502.34C198.42 502.074 198.398 501.805 198.397 501.536C203.262 499.75 208.143 498.856 212.907 496.835C217.247 495.149 221.176 492.557 224.433 489.233C223.712 494.454 221.498 499.353 218.056 503.343ZM184.459 636.109C177.515 640.91 171.168 646.52 165.551 652.821C159.435 647.217 154.012 640.902 149.398 634.011C160.096 625.696 173.491 624.357 186.591 620.668C196.43 617.507 205.841 613.146 214.612 607.686C205.91 618.495 195.765 628.059 184.459 636.109ZM190.911 601.131C199.393 603.178 208.102 604.128 216.824 603.956C204.84 606.332 192.655 607.562 180.435 607.63C169.701 607.323 159.196 605.087 148.467 605.078C148.346 604.681 148.363 604.255 148.516 603.87C156.774 589.669 178.224 598.283 190.911 601.131ZM148.533 607.415C148.642 607.157 148.682 606.876 148.651 606.599C160.703 606.665 172.556 609.325 184.622 609.164C194.289 608.856 203.918 607.818 213.427 606.06C201.511 613.033 188.658 618.268 175.256 621.606C165.619 623.347 156.465 627.119 148.402 632.67C142.754 624.166 144.393 616.629 148.533 607.415ZM166.662 653.757C174.96 643.879 186.164 637.447 195.969 629.146C200.193 625.56 204.175 621.7 207.891 617.59C205.705 621.43 204.187 625.613 203.402 629.962C201.79 642.328 198.95 654.502 194.924 666.304C191.028 664.879 187.132 663.455 183.481 662.525C177.295 660.884 171.55 657.889 166.662 653.757ZM196.302 666.982C199.88 658.11 202.398 648.846 203.802 639.383C204.66 630.198 207.738 621.362 212.77 613.633C211.716 618.919 212.077 624.39 213.816 629.495C217.827 643.592 222.736 654.909 222.182 669.965C221.459 670.196 220.736 670.426 219.995 670.587C211.917 671.656 203.7 670.405 196.302 666.982ZM224.05 625.153C226.661 629.305 229.551 633.276 232.699 637.039C235.782 640.586 243.403 645.162 244.919 649.278C245.155 652.264 244.711 655.263 243.622 658.052C242.533 660.841 240.826 663.347 238.63 665.382C236.633 665.595 234.65 665.926 232.691 666.371C229.623 667.192 226.666 668.43 223.723 669.441C224.123 661.297 223.194 653.141 220.975 645.292C217.524 633.697 209.916 621.234 215.731 609.628C216.216 608.789 217.055 608.154 217.716 607.416C217.956 613.836 220.167 620.029 224.05 625.153ZM280.125 553.67C280.196 553.594 280.248 553.504 280.278 553.405L280.125 553.67ZM254.645 571.241C256.705 569.217 259.148 567.624 261.833 566.555C267.366 563.895 272.562 560.587 277.313 556.7C274.672 562.793 271.004 568.387 266.468 573.237C262.861 576.292 259.463 579.584 256.295 583.093C252.036 582.401 248.305 580.894 254.645 571.241ZM261.959 584.418C260.751 583.814 259.434 583.454 258.087 583.361C261.995 578.431 267.246 575.159 271.028 570.038C274.143 565.766 276.794 561.175 278.936 556.341C277.373 567.221 279.83 578.595 275.622 588.949C270.69 589.011 265.878 587.416 261.959 584.418ZM284.244 586.681C281.971 587.095 279.761 587.799 277.668 588.775C281.529 578.104 278.744 566.481 281.03 555.371C286.017 565.549 289.711 576.311 292.026 587.404C289.397 586.934 286.737 586.658 284.068 586.579L284.244 586.681ZM294.14 587.623L293.456 587.582C291.35 577.16 287.989 567.031 283.448 557.414L293.061 568.856C296.655 573.052 309.284 586.116 294.14 587.623ZM340.895 578.152C340.387 573.617 356.453 567.753 359.767 565.896C362.627 564.448 365.311 562.677 367.768 560.619C362.303 569.747 356.141 578.439 349.336 586.619C346.086 585.096 341.26 582.015 340.895 578.152ZM359.17 592.061C357.489 591.09 356.546 589.25 354.472 588.347C353.543 587.811 352.155 588.07 351.201 587.577L350.891 587.399C357.448 579.502 363.407 571.128 368.718 562.345C369.773 572.857 369.273 583.466 367.232 593.829C364.434 593.865 361.66 593.308 359.093 592.193L359.17 592.061ZM369.088 593.781C370.998 583.487 371.408 572.97 370.307 562.555L378.699 576.827C380.486 579.861 387.822 590.753 385.414 594.311C383.746 593.908 382.048 593.637 380.338 593.501C376.842 593.427 373.033 593.997 369.011 593.913L369.088 593.781ZM395.291 593.652C393.478 595.668 390.249 595.336 386.901 594.699C388.193 591.439 385.169 585.746 383.925 583.201C379.929 575.003 374.804 567.332 370.192 559.485C376.872 566.405 399.579 588.881 395.291 593.652ZM406.928 520.783C409.492 525.177 411.592 529.825 413.194 534.651C413.893 537.072 414.442 539.533 414.837 542.021C415.614 546.397 414.517 546.765 411.546 543.125C404.019 540.429 395.545 529.057 390.604 522.905C384.362 514.997 379.137 506.339 375.048 497.135C388.647 495.443 401.033 510.664 406.928 520.783ZM364.286 470.008C364.245 469.574 364.131 469.15 363.949 468.753L364.306 468.135C364.336 468.759 364.33 469.385 364.286 470.008ZM361.485 462.5C361.312 462.491 361.141 462.536 360.997 462.63C361.053 462.506 361.121 462.388 361.201 462.277L361.485 462.5ZM352.914 475.813C353.153 476.008 353.422 476.163 353.71 476.273C352.766 477.908 351.822 479.543 350.878 481.177C350.878 481.177 350.725 481.442 350.649 481.575L349.798 482.026C350.212 480.698 350.756 479.414 351.422 478.192C351.728 477.662 352.238 476.778 352.774 475.851L352.914 475.813ZM417.221 319.482C418.098 318.574 421.938 318.258 423.142 318.011C429.984 316.094 437.298 316.789 443.662 319.961L418.117 326.715L417.298 323.944C416.621 322.257 415.122 321.687 417.17 319.57L417.221 319.482ZM418.175 328.044L442.774 321.805C437.312 328.425 430.884 334.187 423.706 338.896C421.24 335.731 419.398 332.129 418.275 328.279L418.175 328.044ZM425.85 341.312C425.319 341.005 425.036 340.371 424.608 339.888C431.738 335.178 438.131 329.44 443.581 322.86C443.609 327.564 442.898 332.242 441.474 336.724C439.456 341.129 436.952 345.295 434.008 349.144L433.743 348.991C431.316 346.332 428.722 343.83 425.976 341.502L425.85 341.312ZM439.841 355.693L437.747 353.6C436.723 352.685 435.817 351.647 435.048 350.51C438.398 346.19 441.144 341.433 443.211 336.372C444.548 331.644 445.247 326.757 445.288 321.843C445.297 321.75 445.286 321.656 445.256 321.567C445.225 321.479 445.177 321.398 445.113 321.329L445.423 321.508C446.834 329.95 447.169 338.536 446.418 347.06C446.572 349.056 445.987 351.037 444.774 352.629C443.562 354.22 441.806 355.311 439.841 355.693ZM452.212 467.989C448.97 466.285 446.073 463.993 443.669 461.231C442.123 454.919 457.694 446.235 461.555 443.634C467.842 439.496 474.399 435.784 481.183 432.521L481.537 432.726L481.579 433.163C481.453 433.072 481.296 433.033 481.142 433.054C480.988 433.074 480.848 433.152 480.749 433.273C470.102 443.775 460.828 455.581 453.148 468.412L452.212 467.989ZM467.059 471.082C461.232 470.959 460.707 472.481 454.45 469.222C462.042 456.583 471.182 444.94 481.656 434.562C482.454 447.419 480.997 460.314 477.351 472.665L476.201 472.001C473.223 471.202 470.135 470.892 467.059 471.082ZM478.629 473.108C482.361 460.606 483.913 447.552 483.214 434.519C484.647 435.818 486.01 437.135 487.347 438.496C489.705 444.636 491.043 451.119 491.306 457.689C492.208 465.219 492.811 472.755 493.085 480.453C488.151 478.783 483.421 475.227 478.629 473.108ZM502.566 466.075C503.849 469.909 504.377 473.955 504.122 477.989C502.745 483.438 501.15 481.399 497.389 481.171C496.456 481.12 495.53 480.98 494.623 480.752C494.694 480.677 494.746 480.586 494.776 480.487C494.487 470.048 493.502 459.639 491.827 449.329C491.394 446.605 491.031 443.863 490.515 441.385C496.491 448.508 500.629 456.986 502.566 466.075ZM462.702 395.166C462.396 395.696 462.4 396.405 462.271 397.037C462.142 397.67 461.017 398.493 460.356 399.231C461.153 397.747 461.944 396.377 462.702 395.166ZM480.264 387.632C478.369 390.786 476.224 393.783 473.85 396.595C477.514 391.169 481.221 385.769 484.884 380.344C483.687 382.835 482.227 385.191 480.531 387.374L480.264 387.632ZM467.17 397.745C466.767 398.269 466.325 398.762 465.847 399.22C466.286 398.766 466.706 398.243 467.17 397.745ZM475.218 388.607L474.732 388.326C475.361 387.747 475.946 387.142 476.575 386.563L475.218 388.607ZM463.352 400.784C463.62 400.863 463.906 400.864 464.175 400.788C463.432 401.36 462.688 401.932 461.901 402.479C462.365 401.981 462.938 401.193 463.326 400.828L463.352 400.784ZM541.73 423.473C530.803 417.576 522.916 406.719 515.245 397.225C506.733 386.435 498.902 375.126 491.798 363.364C521.407 363.669 534.405 398.567 541.73 423.473ZM525.421 320.45C520.546 316.627 516.482 311.87 513.469 306.458C510.456 301.046 508.554 295.089 507.874 288.935L508.361 289.216C508.382 289.294 508.418 289.367 508.467 289.431C508.516 289.495 508.577 289.548 508.647 289.589C508.717 289.629 508.794 289.655 508.874 289.666C508.954 289.676 509.035 289.671 509.113 289.65L510.715 289.632C520.088 297.498 528.344 306.605 535.253 316.701C534.821 317.104 534.426 317.547 534.076 318.024C530.609 322.09 530.643 324.584 525.421 320.45ZM543.041 307.707C541.609 310.935 539.268 313.677 536.303 315.598C529.699 306.089 521.983 297.402 513.318 289.721C523.8 292.626 533.76 297.164 542.831 303.167C542.831 303.167 543.052 303.295 543.141 303.346C543.394 304.792 543.361 306.274 543.041 307.707ZM543.38 302.011C535.314 296.809 526.633 292.628 517.537 289.565C527.235 289.522 536.896 290.799 546.252 293.36L546.846 295.294C547.177 294.719 544.478 298.168 544.325 298.433C543.802 299.476 543.522 300.624 543.508 301.79L543.38 302.011ZM538.277 283.984C540.063 284.207 541.831 284.559 543.567 285.036L545.644 291.654C534.614 288.748 523.21 287.526 511.818 288.03L510.887 287.905L510.047 287.42C518.919 283.399 528.795 282.125 538.404 283.763L538.277 283.984ZM451.876 241.17C460.715 262.944 444.969 280.716 429.777 294.566C433.284 274.088 432.653 250.867 451.005 237.368C451.155 237.202 451.268 237.006 451.336 236.793L452.199 239.589C452.04 239.773 451.937 239.999 451.903 240.24C451.868 240.481 451.903 240.727 452.004 240.949L451.876 241.17ZM469.57 233.713C469.659 233.475 469.667 233.215 469.595 232.971C469.523 232.728 469.374 232.514 469.17 232.362L471.603 233.767C472.361 234.156 473.099 234.582 473.815 235.044C472.479 234.434 471.104 233.915 469.698 233.492L469.57 233.713ZM475.104 242.209C476.166 242.822 477.227 243.435 478.442 243.783C476.418 243.203 474.425 242.466 472.477 241.753C473.389 241.892 474.31 241.971 475.232 241.989L475.104 242.209ZM456.429 233.489L462.662 236.381C464 237.448 465.401 238.433 466.856 239.333C463.287 237.552 459.845 235.525 456.556 233.268L456.429 233.489ZM481.918 133.155C469.502 125.59 458.868 115.431 450.747 103.376L450.813 102.648C463.403 109.446 477.489 119.169 482.045 132.934L481.918 133.155ZM407.32 116.89C412.732 101.693 429.275 97.0471 444.315 99.1916L444.428 99.61L444.806 100.182C435.856 111.392 421.39 114.586 407.448 116.669L407.32 116.89ZM480.056 181.328C480.511 183.299 484.258 198.364 482.435 199.785C474.435 206.183 454.227 155.577 448.114 139.911C459.636 146.421 469.137 155.984 475.569 167.545C477.592 171.951 479.098 176.577 480.056 181.328ZM306.566 169.528C307.65 169.388 308.726 169.362 309.829 169.291C309.829 169.291 309.829 169.291 309.701 169.512C308.747 169.535 307.795 169.615 306.85 169.751L306.566 169.528ZM329.464 173.794C324.617 171.277 319.294 169.81 313.844 169.488L312.806 169.243C320.134 169.491 327.282 171.591 333.582 175.347L329.464 173.794ZM333.239 181.865L334.811 181.594C334.422 181.788 334.042 182.002 333.675 182.234L333.239 181.865ZM289.515 201.922C286.526 201.787 266.011 200.134 265.772 196.462C265.186 190.939 284.462 190.345 287.565 190.487C295.888 190.948 303.948 193.571 310.95 198.098L309.032 199.582C302.722 201.307 296.178 202.022 289.642 201.701L289.515 201.922ZM261.283 257.256C259.137 253.72 256.903 250.133 254.548 246.652C261.09 243.345 267.209 239.263 272.773 234.494C269.665 242.332 265.863 249.876 261.411 257.036L261.283 257.256ZM248.002 228.263C249.551 227.214 254.609 227.954 256.3 227.988C262.307 228.248 268.258 229.269 274.009 231.025C265.097 232.53 256.287 234.585 247.631 237.18C245.215 234.725 242.928 231.637 248.002 228.263ZM248.759 238.597C256.4 236.361 264.153 234.526 271.987 233.098C266.466 237.85 260.368 241.89 253.838 245.123C252.402 243.116 250.94 241.153 249.383 239.252L248.759 238.597ZM265.74 264.248L262.393 258.604C267.424 250.497 271.587 241.883 274.813 232.903L275.122 233.082C275.495 244.49 274.259 256.03 265.696 264.222L265.74 264.248ZM320.672 239.999C319.279 223.819 317.399 202.763 327.652 190.009C330.059 188.394 332.415 186.867 334.91 185.304C336.806 205.721 335.672 225.154 320.628 239.973L320.672 239.999ZM335.537 151.733C351.235 149.088 367.373 151.879 381.279 159.645C365.31 168.098 349.059 161.308 335.492 151.708L335.537 151.733ZM395.623 201.917C407.435 198.723 419.598 196.555 431.598 194.057C416.145 214.591 384.242 224.389 360.291 231.65C369.753 218.734 379.391 206.331 395.579 201.892L395.623 201.917ZM365.256 347.682C365.357 347.587 365.428 347.464 365.46 347.329L366.979 347.558L365.256 347.682ZM374.052 346.34L372.576 346.548L371.16 345.73C373.452 346.052 375.736 346.487 377.926 346.986C377.313 347.234 376.716 347.519 376.136 347.838C376.021 347.383 375.749 346.983 375.367 346.709C374.986 346.435 374.52 346.304 374.052 346.34ZM363.097 345.906C361.779 345.805 360.455 345.809 359.138 345.918C360.432 345.682 361.74 345.532 363.054 345.469C363.052 345.53 363.056 345.592 363.066 345.652L363.097 345.906ZM358.577 354.96C358.903 354.931 359.226 354.882 359.546 354.813C359.919 354.857 360.295 354.857 360.667 354.812C363.229 354.883 365.791 354.662 368.302 354.154C370.291 354.217 372.246 353.628 373.87 352.479L374.758 352.167C369.907 355.104 364.151 356.178 358.563 355.188L358.577 354.96ZM287.463 451.162C298.366 442.494 309.728 434.562 324.34 436.224C324.115 436.253 323.901 436.334 323.715 436.462C323.528 436.59 323.374 436.76 323.267 436.959C315.08 449.198 300.984 451.546 287.45 451.39L287.463 451.162ZM238.647 538.677C230.465 540.105 222.147 540.599 213.851 540.149C220.496 532.106 229.28 526.103 239.193 522.832C249.105 519.561 259.743 519.155 269.882 521.659L269.551 522.234C269.335 522.326 269.141 522.462 268.981 522.633C268.821 522.805 268.699 523.008 268.622 523.229C268.376 523.754 268.086 524.256 267.755 524.731L266.071 527.647C259.967 535.257 247.444 537.334 238.634 538.905L238.647 538.677ZM313.317 523.761C305.711 500.873 314.702 477.434 318.929 454.484C318.99 454.159 318.954 453.824 318.825 453.519C318.697 453.215 318.482 452.955 318.207 452.771L318.641 452.02C338.973 475.953 327.279 500.6 313.317 523.761ZM393.698 451.349C373.302 430.795 361.465 403.284 370.344 374.42C397.193 390.333 396.727 423.525 393.698 451.349ZM309.208 296.531L308.206 296.836C308.98 296.517 309.798 296.224 310.59 295.974L309.208 296.531ZM334.897 296.576C333.09 295.819 331.164 295.385 329.208 295.295C329.291 295.186 329.36 295.068 329.412 294.941C332.106 295.331 334.77 295.904 337.386 296.658L334.897 296.576ZM335.163 301.325L335.835 301.183L335.042 301.432L335.265 301.148L335.163 301.325ZM341.299 298.564C341.344 298.378 341.356 298.185 341.333 297.994L341.863 298.301L341.299 298.564ZM122.856 445.021C122.893 442.097 131.272 435.859 133.502 435.674C136.699 435.914 139.841 436.636 142.823 437.816C147.961 439.132 152.971 440.67 158.214 442.519C147.686 446.043 136.495 447.652 126.074 451.297L125.844 450.163C125.482 448.952 122.935 446.009 122.856 445.021ZM129.954 463.375C126.134 458.754 127.147 457.101 126.561 453.11C137.103 449.358 148.236 447.951 158.91 444.276C155.519 448.209 152.924 452.602 149.134 456.305C144.49 460.652 139.266 464.336 133.612 467.254C132.253 466.101 131.026 464.799 129.954 463.375ZM142.002 475.81C140.998 473.361 139.303 471.257 137.124 469.753L135.045 468.553C139.792 465.987 144.241 462.906 148.312 459.364C152.44 455.017 156.283 450.408 159.817 445.566C159.453 459.376 151.997 469.327 142.748 479.421C142.609 478.173 142.329 476.944 141.914 475.759L142.002 475.81ZM154.38 480.011C154.253 480.649 153.992 481.252 153.614 481.781C153.236 482.31 152.75 482.753 152.187 483.08C151.625 483.407 150.999 483.611 150.352 483.678C149.705 483.745 149.05 483.674 148.432 483.469C145.328 485.27 143.722 484.579 143.652 481.534L143.369 480.899C153.043 470.579 160.773 460.256 161.442 446.327C163.146 452.088 163.384 458.181 162.136 464.054C160.887 469.927 158.191 475.394 154.292 479.96L154.38 480.011ZM210.799 432.349C213.639 427.94 216.176 423.342 218.39 418.588C218.595 418.827 218.876 418.99 219.186 419.047C216.673 423.605 213.703 428.135 210.799 432.349ZM221.455 399.385C221.455 399.385 221.71 398.944 221.863 398.678L222.332 398.478C221.907 398.704 221.659 399.032 221.455 399.385ZM212.501 414.893L212.348 415.158C212.877 412.309 213.679 409.517 214.744 406.821C214.074 409.616 213.12 412.187 212.457 414.868L212.501 414.893ZM210.809 423.342C210.554 423.783 210.583 424.448 210.479 425.036C210.295 425.404 210.262 425.828 210.386 426.22C210.105 426.706 209.824 427.192 209.544 427.678C209.504 426.418 209.535 425.139 209.54 423.905C209.774 423.897 210.003 423.841 210.214 423.74C210.425 423.638 210.612 423.494 210.764 423.316L210.809 423.342ZM226.792 385.442L225.975 385.324L226.675 384.726L226.792 385.442ZM231.986 320.872C252.192 317.339 273.087 315.676 290.447 328.821C270.658 333.569 249.801 330.733 231.986 320.872ZM143.537 360.88C145.267 359.11 155.344 362.394 157.899 363.281C162.902 364.981 167.578 367.522 171.728 370.793C171.406 370.935 171.131 371.164 170.933 371.454C161.437 370.331 153.129 363.472 143.418 365.582C142.735 363.598 142.393 362.045 143.537 360.88ZM144.985 371.141C144.696 369.745 144.255 368.385 143.671 367.084C152.634 365.248 160.731 371.042 169.3 372.75C161.425 374.804 153.675 377.312 146.09 380.262L145.525 378.993C144.631 375.944 145.449 374.119 144.985 371.141ZM146.762 381.651C154.357 378.694 162.122 376.194 170.017 374.165C165.788 381.071 159.508 386.486 152.051 389.653L151.537 388.296C150.089 385.981 148.494 383.762 146.762 381.651ZM158.173 396.723C154.337 397.748 153.596 394.434 152.488 391.143C160.613 387.772 167.383 381.796 171.733 374.154C171.954 374.197 172.182 374.163 172.38 374.056L173.173 373.807C172.807 381.49 164.843 394.977 158.173 396.723Z" fill="#FFF1E0" fill-opacity="0.1"/>
</g>
<defs>
<clipPath id="clip0_1047_9250">
<rect width="386" height="662" fill="white" transform="translate(334.286 766.309) rotate(-150)"/>
</clipPath>
</defs>
</svg>
