<svg width="366" height="301" viewBox="0 0 366 301" fill="none" xmlns="http://www.w3.org/2000/svg">
<g clip-path="url(#clip0_1004_9947)">
<path d="M312.371 162.919C306.816 158.705 300.781 155.164 294.394 152.367C292.267 151.387 290.32 150.638 288.238 149.883C290.188 149.881 292.196 149.75 294.101 149.691C302.607 149.086 310.984 147.262 318.974 144.275C319.961 144.082 320.888 143.655 321.676 143.029C322.464 142.404 323.09 141.597 323.501 140.679C323.666 139.941 323.626 139.172 323.385 138.455C323.144 137.739 322.712 137.102 322.135 136.614C319.641 134.273 315.448 133.551 312.217 132.889C304.697 131.453 296.953 131.669 289.521 133.523C281.091 135.58 273.317 139.744 266.93 145.624C266.757 145.757 266.636 145.948 266.59 146.161C266.543 146.375 266.574 146.598 266.676 146.791C264.904 147.358 263.067 148.021 261.481 148.602C258.189 149.664 254.898 150.698 251.606 151.704C245.994 153.513 240.435 154.912 234.945 156.831C243.008 146.467 251.074 136.087 259.143 125.689C262.112 121.884 265.068 118.099 267.986 114.287C269.493 112.289 271.001 110.29 272.489 108.279C273.533 106.722 274.782 105.275 275.788 103.692C279.755 103.932 283.737 103.589 287.606 102.674C291.736 101.862 295.791 100.703 299.727 99.2108C307.63 96.1852 314.954 91.8219 321.378 86.3119C321.861 85.8831 322.255 85.0049 321.474 84.509C314.254 79.667 304.909 83.5981 297.823 86.8158C292.247 89.3186 286.954 92.4105 282.034 96.0387C282.356 95.5582 282.678 95.0777 283.001 94.5972C285.304 91.5572 287.43 88.387 289.368 85.1023C291.37 81.7764 293.182 78.34 294.796 74.8097C295.59 73.0854 296.327 71.3225 297.013 69.5531C297.755 67.9235 298.343 66.2276 298.767 64.4879C299.217 62.1982 298.385 59.4949 295.718 59.2385C293.05 58.9821 290.72 61.46 289.105 63.1631C284.359 68.1847 280.52 73.9925 277.761 80.3272C274.643 87.5033 272.933 95.2111 272.724 103.031C271.925 103.972 271.165 104.939 270.399 105.874C268.918 107.668 267.456 109.474 266.033 111.306C263.399 114.611 260.809 117.973 258.214 121.304C257.93 121.727 257.647 122.15 257.35 122.592C258.036 120.656 258.601 118.693 259.152 116.75C260.305 112.671 261.142 108.509 261.655 104.301C262.755 96.0332 262.617 87.6483 261.247 79.4229C261.218 79.1556 261.104 78.9048 260.922 78.7077C260.739 78.5106 260.498 78.3777 260.233 78.3288C259.969 78.2799 259.696 78.3176 259.455 78.4363C259.214 78.555 259.017 78.7483 258.894 78.9876C251.038 93.9191 248.872 111.193 252.799 127.593C252.852 127.813 252.973 128.01 253.144 128.158C249.606 132.714 246.055 137.29 242.491 141.885C231.998 155.412 221.545 168.966 211.129 182.545L206.659 188.464C209.265 183.831 211.794 179.146 214.157 174.377C221.438 159.721 227.573 144.522 232.507 128.919C236.803 115.489 240.19 101.785 242.644 87.9014C243.819 86.8712 244.86 85.6964 245.74 84.405C246.797 83.0792 247.885 81.747 248.954 80.402C251.041 77.7888 253.108 75.1627 255.201 72.5816C259.413 67.381 263.669 62.2382 267.554 56.8186C267.651 56.7065 267.7 56.5604 267.69 56.4124C267.679 56.2643 267.611 56.1265 267.499 56.0292C267.387 55.932 267.241 55.8832 267.093 55.8937C266.945 55.9042 266.807 55.9731 266.71 56.0852C262.146 60.9385 257.935 66.1391 253.73 71.2885C251.669 73.7798 249.57 76.2454 247.478 78.7431L244.168 82.6817C243.949 83.0084 243.73 83.3352 243.376 83.5718C243.501 82.7636 243.664 81.9811 243.84 81.096C244.366 76.9349 244.837 72.8015 245.252 68.6958C246.516 68.6795 248.124 67.1111 248.922 66.5034C250.577 65.2394 252.157 63.8804 253.655 62.4333C256.899 59.37 259.789 55.9522 262.27 52.2442C264.727 48.5782 266.778 44.6564 268.389 40.5478C269.857 36.7397 271.674 32.1624 271.212 28.0354C271.191 27.8895 271.126 27.7535 271.025 27.6462C270.924 27.5388 270.793 27.4652 270.648 27.4354C270.504 27.4057 270.354 27.4211 270.218 27.4797C270.083 27.5383 269.969 27.6372 269.892 27.7629C269.821 27.7324 269.744 27.7172 269.667 27.7181C269.59 27.719 269.513 27.7361 269.443 27.7682C267.946 28.6523 266.584 29.747 265.398 31.0186C263.963 32.3692 262.573 33.7777 261.241 35.2248C258.534 38.2174 256.046 41.4004 253.795 44.7492C251.65 47.9711 249.721 51.3321 248.022 54.8101C247.306 56.2522 246.679 57.7266 246.136 59.1178C246.806 50.2322 247.11 41.3522 246.927 32.4518C246.901 30.3728 246.914 28.3195 246.748 26.2016C246.731 25.438 245.653 25.4676 245.612 26.276C245.592 36.6838 245.02 47.0839 244.037 57.4317C240.392 46.3782 232.887 37.012 222.897 31.0489C221.975 30.4308 221.105 31.6031 221.308 32.4634C222.851 39.1844 225.439 45.6209 228.976 51.5386C232.616 57.4104 237.033 62.7627 242.106 67.4501C242.209 67.5639 242.338 67.6509 242.482 67.7037C242.626 67.7566 242.781 67.7737 242.933 67.7536C242.63 70.1143 242.36 72.4686 242.019 74.8035C239.992 88.2481 237.131 101.554 233.45 114.644C230.618 93.4495 225.3 72.6646 217.606 52.7187C217.585 52.655 217.551 52.5962 217.507 52.5455C217.463 52.4949 217.41 52.4534 217.349 52.4235C217.289 52.3936 217.224 52.3758 217.157 52.3711C217.09 52.3665 217.023 52.375 216.959 52.3964C216.896 52.4177 216.837 52.4514 216.786 52.4955C216.735 52.5396 216.694 52.5932 216.664 52.6533C216.634 52.7134 216.616 52.7788 216.611 52.8458C216.607 52.9128 216.615 52.9801 216.636 53.0437C219.874 63.5746 222.9 74.1306 225.354 84.8328L225.418 85.1538C222.65 82.0161 219.632 79.0446 216.64 76.1181C210.001 69.2096 202.235 63.4827 193.673 59.1829C193.443 59.0978 193.195 59.0762 192.953 59.1204C192.712 59.1645 192.487 59.2728 192.303 59.4339C192.118 59.595 191.979 59.8029 191.902 60.0357C191.826 60.2686 191.813 60.5178 191.865 60.7572C194.604 69.4589 199.225 77.4485 205.402 84.158C211.521 90.9953 219.17 96.2875 227.725 99.6031C227.951 99.6945 228.199 99.7152 228.437 99.6625C229.294 104.445 230.042 109.266 230.726 114.099C228.947 112.6 227.066 111.254 225.274 110.025C221.751 107.601 218.056 105.439 214.217 103.557C206.331 99.8118 197.911 97.3139 189.257 96.152C188.958 96.106 188.651 96.1591 188.385 96.3035C188.118 96.4478 187.906 96.6754 187.781 96.9515C187.656 97.2275 187.624 97.5369 187.691 97.8324C187.759 98.1278 187.92 98.3932 188.152 98.5878C194.736 105.79 201.377 113.197 210.143 117.767C216.666 121.363 224.215 122.644 231.562 121.403C231.394 121.653 231.4 122.019 231.296 122.339C227.583 134.488 223.159 146.407 218.045 158.037C218.238 154.453 217.93 150.861 217.13 147.364C215.038 139.095 211.577 131.236 206.89 124.112C206.734 123.878 206.511 123.697 206.251 123.591C205.99 123.485 205.704 123.459 205.429 123.517C205.153 123.575 204.902 123.714 204.706 123.916C204.51 124.118 204.379 124.374 204.329 124.651C203.016 132.297 201.65 140.186 202.773 147.934C203.778 154.738 206.738 161.739 212.317 166.038C212.54 166.222 212.815 166.331 213.103 166.349C213.391 166.367 213.677 166.293 213.921 166.138C213.648 167.042 213.344 167.952 213.001 168.837C206.189 183.004 198.369 196.663 189.599 209.709C189.277 210.189 188.942 210.689 188.607 211.189C192.34 200.158 192.231 188.192 188.299 177.237C187.587 175.276 186.764 173.357 185.835 171.489C184.881 169.498 183.589 167.689 182.016 166.141C181.881 166.034 181.715 165.972 181.542 165.966C181.37 165.959 181.199 166.008 181.057 166.105C180.914 166.202 180.805 166.343 180.748 166.506C180.69 166.669 180.686 166.846 180.737 167.011L180.837 167.608C180.064 168.829 179.431 170.135 178.952 171.499C178.292 173.146 177.71 174.845 177.21 176.545C176.223 179.951 175.593 183.45 175.33 186.987C174.783 194.055 175.603 201.161 177.745 207.917C178.955 211.825 180.643 215.568 182.77 219.061L182.924 219.164C175.65 229.138 167.826 238.688 159.67 247.986C158.35 249.497 157.024 250.976 155.743 252.513C154.97 253.416 156.25 254.414 157.073 253.684C163.14 248.127 168.817 242.159 174.064 235.821C179.339 229.588 184.352 223.123 189.103 216.426C190.392 214.504 191.681 212.582 192.97 210.66L193.143 210.776C194.861 211.454 196.694 211.794 198.541 211.776C200.452 211.916 202.363 211.971 204.288 211.924C208.214 211.861 212.126 211.445 215.978 210.681C223.641 209.078 230.987 206.217 237.718 202.216C241.546 199.896 245.144 197.214 248.462 194.207C248.612 194.031 248.713 193.819 248.755 193.592C248.798 193.365 248.78 193.131 248.703 192.913C248.626 192.695 248.494 192.501 248.319 192.351C248.144 192.2 247.932 192.099 247.705 192.056C232.376 190.415 216.913 193.605 203.475 201.181C201.61 202.213 199.802 203.344 198.057 204.569C197.395 205.017 196.733 205.465 196.038 206.002C196.49 205.329 196.928 204.676 197.327 204.08C197.727 203.484 198.338 203.03 198.795 202.473C200.295 200.692 201.795 198.912 203.277 197.119C205.987 193.865 208.583 190.535 211.217 187.23C216.571 180.436 221.906 173.63 227.222 166.81C228.967 164.581 230.681 162.359 232.413 160.149C232.427 160.254 232.464 160.355 232.521 160.444C236.164 166.76 242.607 171.722 248.759 175.458C255.063 179.265 261.997 181.914 269.234 183.282C270.965 183.607 272.715 183.862 274.479 184.013C276.242 184.165 277.832 184.451 278.523 182.964C279.214 181.477 278.192 180.345 277.476 179.336C276.423 177.876 275.291 176.474 274.084 175.138C269.449 170.002 263.839 165.841 257.579 162.896C251.319 159.951 244.535 158.282 237.622 157.986C242.475 156.893 247.252 155.415 252.003 153.976C255.181 153.015 258.372 152.034 261.525 151.027L266.514 149.358C267.169 149.128 267.811 148.918 268.441 148.643C278.314 158.077 290.552 164.667 303.864 167.718C305.543 168.12 307.229 168.471 308.934 168.75C310.198 169.093 311.541 169.015 312.758 168.528C315.443 167.097 314.163 164.316 312.371 162.919ZM297.341 89.3621C300.947 87.5705 304.715 86.1226 308.592 85.0376C311.869 84.0244 315.389 84.1387 318.591 85.3622C312.69 90.1926 306.064 94.0623 298.959 96.8285C295.209 98.2804 291.346 99.4176 287.409 100.228C284.315 100.94 281.274 101.074 278.219 101.478C284.103 96.7123 290.52 92.6466 297.341 89.3621ZM287.176 68.6128C288.876 66.2775 290.888 64.1857 293.155 62.396C293.939 61.8075 295.27 61.0277 296.307 61.4728C297.671 62.2203 296.978 64.2913 296.615 65.4134C294.416 71.7202 291.543 77.7718 288.046 83.463C286.069 86.7782 283.918 89.9861 281.601 93.0732C279.675 95.6547 277.499 98.0687 275.477 100.586C276.134 89.0518 280.212 77.9722 287.188 68.7604L287.176 68.6128ZM259.36 83.7306C260.137 90.4891 260.154 97.3143 259.411 104.078C258.951 108.026 258.257 111.943 257.333 115.809C256.612 118.753 255.609 121.619 254.714 124.53C251.842 110.788 253.471 96.4819 259.36 83.7306ZM230.885 50.311C228.008 45.4501 225.802 40.2215 224.328 34.7675C228.745 37.8566 232.623 41.6528 235.806 46.0039C239.17 50.829 241.811 56.1205 243.645 61.7108C243.513 62.904 243.362 64.0843 243.21 65.2646C238.285 61.0145 234.117 55.9582 230.885 50.311ZM245.483 66.566C245.586 66.4123 245.517 66.1426 245.556 65.9181C245.595 65.6936 245.556 65.9181 245.556 65.9181C246.486 64.4105 247.203 62.7819 247.688 61.0784C248.361 59.3282 249.085 57.5845 249.886 55.8924C253.074 49.0646 257.2 42.7156 262.146 37.0299C263.382 35.6019 264.663 34.2317 265.982 32.8872C266.909 31.9204 268.047 31.0119 269 30.0066C268.649 31.1929 268.383 32.3794 268.026 33.617C267.459 35.7494 266.775 37.8492 265.979 39.907C264.378 43.9604 262.358 47.8354 259.951 51.4688C257.56 55.0447 254.797 58.3572 251.709 61.3508C250.094 62.8871 248.39 64.3076 246.66 65.6832C246.57 65.7344 246.087 66.1632 245.483 66.566ZM207.447 82.52C202.219 76.8882 198.132 70.296 195.411 63.1075C202.173 66.9022 208.392 71.589 213.904 77.0422C216.974 79.9368 220.005 82.8891 222.946 85.8924C224.362 87.2678 225.578 88.8343 226.561 90.5464C226.991 92.6457 227.401 94.7321 227.824 96.966C220.138 93.5538 213.211 88.6428 207.447 82.52ZM192.819 99.5996C199.706 100.888 206.404 103.031 212.76 105.979C216.542 107.725 220.186 109.758 223.657 112.061C226.269 113.813 228.713 115.814 231.247 117.681C231.284 117.845 231.356 118 231.457 118.135C231.558 118.27 231.687 118.383 231.834 118.465C216.159 122.163 202.964 110.332 192.819 99.5996ZM214.152 163.925C203.789 155.136 204.558 141.329 206.445 129.051C209.918 134.771 212.555 140.959 214.276 147.428C215.602 152.943 215.643 158.691 214.395 164.227L214.152 163.925ZM177.319 192.862C177.192 188.528 177.577 184.194 178.463 179.948C178.9 177.81 179.477 175.702 180.19 173.638C180.643 172.298 181.301 170.984 181.825 169.664C182.914 171.983 184.081 174.27 185.035 176.665C186.348 179.99 187.317 183.441 187.927 186.964C189.072 194.089 188.787 201.372 187.089 208.388C186.366 211.212 185.44 213.981 184.317 216.672C180.105 209.415 177.704 201.248 177.319 192.862ZM200.239 206.256C202.2 204.951 204.211 203.737 206.293 202.625C217.899 196.442 230.978 193.569 244.1 194.319C233.152 203.161 219.752 208.417 205.72 209.374C203.635 209.536 201.511 209.589 199.427 209.584C198.176 209.581 196.906 209.482 195.662 209.511C197.223 208.552 198.67 207.433 200.239 206.256ZM268.997 173.342C271.284 175.439 273.355 177.762 275.177 180.274C275.401 180.563 276.121 181.938 276.443 181.624C276.262 181.893 274.275 181.452 273.987 181.426C272.384 181.243 270.8 180.989 269.223 180.684C262.689 179.388 256.419 177.01 250.67 173.647C247.438 171.749 244.389 169.555 241.563 167.094C239.05 164.906 236.8 162.45 234.446 160.147C247.227 159.978 259.586 164.698 268.997 173.342ZM270.822 146.089L270.649 145.973C270.649 145.973 270.649 145.973 270.437 145.998L270.046 145.958C275.117 141.734 280.975 138.558 287.281 136.617C293.587 134.675 300.215 134.005 306.779 134.647C310.271 134.978 313.715 135.708 317.041 136.82C318.348 137.14 319.553 137.785 320.544 138.696C322.244 140.644 318.7 141.694 317.371 142.141C310.181 144.728 302.684 146.361 295.072 146.998C290.865 147.36 286.637 147.421 282.422 147.181C281.293 147.12 280.216 146.983 279.094 146.871C276.762 146.188 274.371 145.723 271.953 145.482C271.733 145.455 271.511 145.496 271.314 145.597C271.117 145.698 270.954 145.856 270.848 146.05L270.822 146.089ZM307.602 165.962C306.077 165.664 304.564 165.346 303.051 164.945C297.198 163.459 291.538 161.299 286.183 158.508C280.543 155.469 275.238 151.846 270.355 147.698C273.213 148.559 276.151 149.129 279.124 149.4L280.477 149.749C283.414 150.609 286.305 151.618 289.139 152.772C294.796 154.992 300.22 157.762 305.335 161.042C306.218 161.634 312.441 165.223 311.693 166.338C311.306 166.998 308.314 166.105 307.641 165.988L307.602 165.962Z" fill="#91715B" fill-opacity="0.1"/>
</g>
<g clip-path="url(#clip1_1004_9947)">
<path d="M52.0854 172.779C57.3385 168.194 63.1154 164.246 69.296 161.018C71.3501 159.894 73.2416 159.013 75.2671 158.116C73.3216 158.248 71.3093 158.256 69.4045 158.327C60.8766 158.308 52.3946 157.064 44.2185 154.632C43.2203 154.508 42.2664 154.146 41.4373 153.575C40.6082 153.005 39.9283 152.244 39.4551 151.356C39.2397 150.631 39.2268 149.861 39.4178 149.129C39.6089 148.398 39.9965 147.733 40.5388 147.207C42.8662 144.699 46.9994 143.691 50.177 142.809C57.581 140.86 65.3216 140.544 72.8628 141.883C81.4152 143.357 89.4558 146.977 96.2319 152.405C96.4139 152.526 96.5473 152.707 96.6083 152.917C96.6694 153.127 96.6541 153.352 96.5654 153.552C98.3723 153.996 100.25 154.531 101.872 155.001C105.229 155.834 108.584 156.64 111.937 157.418C117.66 158.837 123.302 159.851 128.911 161.389C120.155 151.603 111.395 141.801 102.632 131.982C99.4086 128.39 96.1993 124.816 93.0266 121.214C91.3856 119.324 89.7446 117.434 88.1218 115.529C86.9733 114.048 85.6278 112.69 84.5159 111.18C80.5741 111.692 76.5782 111.623 72.6554 110.975C68.4792 110.449 64.3545 109.572 60.3249 108.353C52.2335 105.877 44.6272 102.027 37.8392 96.9713C37.3284 96.5766 36.875 95.7276 37.6201 95.1792C44.4904 89.8529 54.0837 93.133 61.3732 95.8566C67.1081 97.9706 72.6011 100.692 77.7587 103.973C77.4042 103.516 77.0497 103.059 76.6952 102.602C74.1886 99.7271 71.8499 96.7103 69.6905 93.5665C67.4653 90.3858 65.4216 87.082 63.5692 83.6708C62.6582 82.0052 61.802 80.2971 60.9966 78.5789C60.1438 77.0041 59.4413 75.3526 58.8984 73.6462C58.2923 71.3928 58.9364 68.6387 61.58 68.1997C64.2236 67.7608 66.7182 70.0728 68.4468 71.661C73.5266 76.3448 77.7548 81.8753 80.9427 88.0056C84.5463 94.9506 86.7817 102.523 87.5271 110.31C88.3883 111.194 89.2129 112.107 90.0416 112.987C91.6422 114.674 93.2246 116.376 94.7705 118.105C97.6252 121.222 100.439 124.399 103.258 127.543C103.569 127.946 103.881 128.348 104.208 128.769C103.39 126.884 102.692 124.965 102.009 123.065C100.578 119.074 99.4577 114.98 98.657 110.817C96.9918 102.644 96.5532 94.2695 97.3556 85.9694C97.3659 85.7008 97.4625 85.4427 97.6311 85.2335C97.7997 85.0244 98.0314 84.8752 98.2916 84.8083C98.5518 84.7414 98.8268 84.7602 99.0756 84.8621C99.3245 84.9639 99.5339 85.1433 99.6728 85.3736C108.535 99.7304 111.883 116.815 109.091 133.445C109.053 133.668 108.947 133.874 108.786 134.033C112.629 138.336 116.486 142.657 120.357 146.996C131.753 159.771 143.113 172.575 154.436 185.407L159.303 191.005C156.384 186.561 153.539 182.061 150.855 177.466C142.585 163.344 135.421 148.603 129.427 133.375C124.219 120.272 119.899 106.833 116.497 93.1504C115.253 92.2034 114.135 91.1028 113.168 89.8749C112.023 88.6248 110.846 87.3705 109.687 86.102C107.426 83.6383 105.183 81.1604 102.918 78.7291C98.3588 73.8299 93.7594 68.9916 89.5113 63.8516C89.4065 63.7465 89.3477 63.604 89.3479 63.4556C89.348 63.3072 89.4071 63.165 89.5122 63.0603C89.6172 62.9556 89.7595 62.8969 89.9079 62.8972C90.0563 62.8975 90.1985 62.9568 90.3033 63.0619C95.189 67.5904 99.7478 72.4896 104.296 77.338C106.523 79.682 108.787 81.9976 111.046 84.3457L114.618 88.0477C114.859 88.3587 115.1 88.6696 115.469 88.8814C115.289 88.0836 115.073 87.3142 114.837 86.4433C114.026 82.3282 113.272 78.2368 112.576 74.1693C111.314 74.2398 109.602 72.7856 108.765 72.234C107.027 71.0867 105.356 69.8394 103.763 68.4986C100.316 65.6653 97.1985 62.454 94.4683 58.9251C91.7658 55.4365 89.4499 51.6648 87.5614 47.6765C85.8351 43.9782 83.708 39.5365 83.885 35.3875C83.8959 35.2405 83.9518 35.1004 84.0451 34.9864C84.1385 34.8723 84.2647 34.7899 84.4067 34.7503C84.5486 34.7106 84.6994 34.7157 84.8384 34.7649C84.9775 34.814 85.098 34.9049 85.1837 35.025C85.2525 34.9897 85.3279 34.9692 85.4051 34.9649C85.4823 34.9605 85.5596 34.9723 85.632 34.9995C87.1861 35.7787 88.6203 36.7772 89.8906 37.9644C91.4147 39.2133 92.8981 40.523 94.3268 41.8752C97.2322 44.6749 99.9331 47.6796 102.409 50.8659C104.77 53.9328 106.925 57.1535 108.859 60.5066C109.673 61.8961 110.399 63.324 111.037 64.6745C109.759 55.8559 108.845 47.0178 108.417 38.1259C108.299 36.05 108.145 34.0024 108.166 31.8781C108.13 31.1151 109.208 31.0706 109.304 31.8743C110.039 42.2562 111.324 52.5924 113.015 62.8484C115.892 51.5707 122.736 41.7112 132.294 35.0762C133.171 34.3962 134.119 35.506 133.976 36.3782C132.897 43.1894 130.758 49.7884 127.636 55.9349C124.407 62.0429 120.369 67.6858 115.629 72.7106C115.534 72.8311 115.411 72.9268 115.271 72.9894C115.131 73.052 114.978 73.0797 114.825 73.0701C115.289 75.4044 115.721 77.7346 116.221 80.0405C119.166 93.3143 122.935 106.392 127.505 119.199C128.876 97.8597 132.754 76.7586 139.06 56.3315C139.077 56.2665 139.106 56.2055 139.147 56.152C139.187 56.0984 139.238 56.0533 139.295 56.0194C139.353 55.9854 139.417 55.9631 139.484 55.9539C139.55 55.9447 139.618 55.9486 139.683 55.9655C139.748 55.9824 139.809 56.012 139.863 56.0525C139.916 56.093 139.961 56.1436 139.995 56.2015C140.029 56.2595 140.052 56.3235 140.061 56.39C140.07 56.4565 140.066 56.5242 140.049 56.5892C137.543 67.3175 135.249 78.0563 133.535 88.9019L133.494 89.2264C136.039 85.9061 138.846 82.7344 141.631 79.6093C147.779 72.2612 155.134 66.0146 163.38 61.1369C163.604 61.0363 163.85 60.9977 164.094 61.0252C164.337 61.0527 164.569 61.1453 164.765 61.2933C164.96 61.4413 165.112 61.6392 165.205 61.8662C165.298 62.0932 165.328 62.341 165.292 62.5835C163.157 71.4527 159.095 79.7408 153.394 86.8585C147.759 94.0999 140.491 99.9048 132.184 103.8C131.965 103.907 131.719 103.945 131.478 103.908C130.951 108.738 130.536 113.599 130.186 118.468C131.857 116.85 133.642 115.378 135.345 114.029C138.693 111.369 142.231 108.959 145.932 106.817C153.542 102.539 161.771 99.469 170.324 97.7156C170.62 97.6491 170.929 97.6811 171.205 97.8068C171.481 97.9325 171.708 98.145 171.852 98.4118C171.996 98.6786 172.048 98.9851 172.002 99.2845C171.955 99.5839 171.812 99.8597 171.594 100.07C165.52 107.707 159.404 115.553 150.972 120.713C144.712 124.749 137.268 126.546 129.853 125.812C130.038 126.05 130.057 126.415 130.183 126.728C134.721 138.593 139.954 150.18 145.854 161.431C145.416 157.869 145.476 154.264 146.034 150.72C147.553 142.327 150.467 134.249 154.653 126.82C154.793 126.576 155.003 126.38 155.255 126.256C155.508 126.133 155.792 126.087 156.07 126.126C156.349 126.165 156.609 126.287 156.819 126.475C157.028 126.663 157.176 126.91 157.245 127.182C159.08 134.72 160.985 142.497 160.396 150.303C159.861 157.16 157.389 164.348 152.117 169.02C151.908 169.219 151.642 169.347 151.355 169.384C151.069 169.422 150.778 169.368 150.525 169.23C150.859 170.113 151.225 171.001 151.627 171.86C159.396 185.525 168.136 198.615 177.781 211.028C178.135 211.485 178.504 211.961 178.872 212.436C174.391 201.688 173.677 189.742 176.849 178.544C177.424 176.538 178.113 174.567 178.912 172.64C179.726 170.588 180.891 168.694 182.355 167.042C182.482 166.926 182.643 166.853 182.815 166.835C182.987 166.816 183.16 166.853 183.309 166.941C183.458 167.028 183.576 167.16 183.645 167.319C183.713 167.478 183.729 167.654 183.69 167.822L183.631 168.425C184.487 169.59 185.207 170.849 185.779 172.177C186.55 173.775 187.248 175.43 187.863 177.091C189.082 180.422 189.951 183.87 190.456 187.379C191.487 194.394 191.157 201.539 189.484 208.426C188.545 212.408 187.118 216.258 185.236 219.889L185.09 220.003C193.031 229.454 201.492 238.443 210.268 247.159C211.689 248.577 213.113 249.961 214.497 251.407C215.33 252.254 214.122 253.337 213.25 252.666C206.816 247.539 200.742 241.974 195.073 236.012C189.382 230.155 183.936 224.05 178.737 217.695C177.319 215.866 175.901 214.037 174.483 212.208L174.319 212.336C172.652 213.13 170.846 213.595 169.002 213.705C167.105 213.975 165.202 214.161 163.279 214.247C159.358 214.454 155.426 214.307 151.531 213.809C143.776 212.736 136.251 210.387 129.261 206.857C125.282 204.805 121.509 202.376 117.993 199.605C117.831 199.44 117.715 199.235 117.658 199.011C117.6 198.788 117.602 198.553 117.663 198.33C117.725 198.108 117.843 197.905 118.008 197.743C118.172 197.581 118.376 197.465 118.6 197.407C133.78 194.717 149.426 196.838 163.352 203.473C165.284 204.375 167.166 205.379 168.99 206.481C169.681 206.882 170.373 207.284 171.102 207.772C170.606 207.132 170.124 206.51 169.684 205.943C169.245 205.376 168.604 204.965 168.11 204.44C166.491 202.767 164.872 201.094 163.271 199.407C160.343 196.347 157.525 193.203 154.67 190.086C148.862 183.676 143.073 177.252 137.301 170.814C135.407 168.71 133.545 166.61 131.665 164.525C131.658 164.631 131.628 164.734 131.577 164.827C128.377 171.378 122.29 176.771 116.409 180.921C110.381 185.151 103.645 188.27 96.5191 190.132C94.8147 190.575 93.086 190.949 91.3371 191.221C89.5882 191.494 88.0218 191.888 87.2302 190.452C86.4386 189.016 87.3812 187.817 88.0254 186.761C88.9759 185.232 90.0095 183.756 91.1217 182.34C95.3928 176.898 100.704 172.361 106.747 168.993C112.79 165.626 119.443 163.495 126.32 162.724C121.403 161.968 116.536 160.822 111.697 159.712C108.461 158.971 105.21 158.212 101.995 157.424L96.9033 156.101C96.2341 155.917 95.5791 155.751 94.9323 155.521C85.73 165.61 73.9733 173.025 60.9028 176.983C59.255 177.499 57.5972 177.964 55.9152 178.361C54.6772 178.79 53.3329 178.804 52.0853 178.402C49.3076 177.158 50.394 174.296 52.0854 172.779ZM62.0297 98.3637C58.3083 96.824 54.4506 95.6382 50.5076 94.822C47.1692 94.0362 43.665 94.392 40.5546 95.8325C46.774 100.246 53.6497 103.652 60.928 105.924C64.7682 107.115 68.7006 107.984 72.6844 108.522C75.82 109.02 78.8628 108.945 81.9378 109.138C75.7406 104.788 69.0598 101.172 62.0297 98.3637ZM70.7453 76.9654C68.8889 74.7523 66.7384 72.8036 64.3538 71.1738C63.5308 70.6405 62.1501 69.9539 61.1454 70.4693C59.8361 71.3087 60.6697 73.3272 61.1086 74.4217C63.736 80.5626 67.0179 86.4026 70.8974 91.8403C73.0971 95.0119 75.4637 98.0645 77.9871 100.985C80.086 103.428 82.4224 105.687 84.6126 108.06C83.1645 96.5979 78.336 85.8244 70.7431 77.1135L70.7453 76.9654ZM99.5337 90.1374C99.2226 96.9333 99.6745 103.744 100.881 110.44C101.61 114.347 102.571 118.208 103.759 122.001C104.68 124.888 105.878 127.679 106.971 130.521C108.892 116.615 106.285 102.454 99.5337 90.1374ZM125.647 54.8413C128.183 49.7944 130.025 44.4266 131.121 38.8842C126.926 42.2693 123.318 46.3229 120.442 50.8823C117.417 55.927 115.146 61.3874 113.7 67.0904C113.913 68.2717 114.145 69.4389 114.377 70.606C118.999 66.0277 122.81 60.6971 125.647 54.8413ZM112.199 72.0604C112.086 71.9141 112.137 71.6403 112.082 71.419C111.051 69.9788 110.224 68.4033 109.623 66.7372C108.832 65.0373 107.99 63.3475 107.074 61.7143C103.425 55.1216 98.8719 49.0709 93.5478 43.7383C92.2165 42.3984 90.8446 41.1194 89.4362 39.8687C88.4452 38.9679 87.2473 38.1396 86.228 37.2022C86.6588 38.3616 87.0064 39.527 87.4473 40.7371C88.1594 42.8256 88.9854 44.8735 89.9214 46.8718C91.7969 50.8056 94.0786 54.5327 96.7291 57.9923C99.3596 61.3956 102.343 64.5106 105.63 67.285C107.347 68.7068 109.145 70.0069 110.965 71.2605C111.058 71.3053 111.569 71.7 112.199 72.0604ZM151.242 85.3648C156.07 79.3874 159.695 72.5301 161.915 65.1717C155.431 69.4217 149.547 74.5246 144.423 80.3434C141.56 83.4419 138.739 86.5954 136.011 89.7936C134.693 91.263 133.586 92.9093 132.723 94.6849C132.439 96.8087 132.173 98.9183 131.905 101.176C139.338 97.244 145.911 91.8689 151.242 85.3648ZM167.008 101.4C160.226 103.158 153.69 105.756 147.552 109.133C143.898 111.135 140.403 113.414 137.098 115.95C134.613 117.876 132.312 120.04 129.912 122.077C129.886 122.244 129.825 122.403 129.734 122.545C129.642 122.687 129.521 122.807 129.38 122.899C145.272 125.513 157.624 112.804 167.008 101.4ZM150.142 167.038C159.877 157.558 158.162 143.836 155.436 131.718C152.364 137.662 150.158 144.017 148.886 150.588C147.941 156.182 148.295 161.919 149.92 167.356L150.142 167.038ZM188.876 193.378C188.704 189.045 188.023 184.747 186.847 180.573C186.264 178.469 185.544 176.406 184.691 174.396C184.147 173.091 183.4 171.825 182.787 170.543C181.859 172.932 180.852 175.293 180.065 177.749C178.984 181.156 178.254 184.666 177.887 188.222C177.235 195.409 178.019 202.655 180.194 209.537C181.109 212.306 182.224 215.004 183.528 217.612C187.233 210.083 189.067 201.77 188.876 193.378ZM166.929 208.313C164.884 207.147 162.793 206.073 160.64 205.107C148.637 199.736 135.392 197.768 122.352 199.417C133.881 207.486 147.611 211.81 161.675 211.801C163.767 211.819 165.889 211.726 167.968 211.578C169.216 211.489 170.476 211.303 171.719 211.247C170.095 210.397 168.575 209.38 166.929 208.313ZM96.0736 180.199C93.9354 182.449 92.0291 184.907 90.3837 187.539C90.1805 187.843 89.5562 189.264 89.2137 188.973C89.4122 189.229 91.3643 188.653 91.6503 188.607C93.237 188.314 94.7993 187.952 96.3516 187.539C102.781 185.798 108.874 182.994 114.378 179.245C117.472 177.13 120.363 174.732 123.013 172.081C125.371 169.727 127.447 167.121 129.636 164.663C116.874 165.371 104.868 170.929 96.0736 180.199ZM92.381 153.135L92.5454 153.008C92.5454 153.008 92.5454 153.008 92.7584 153.018L93.1459 152.952C87.7971 149.086 81.7345 146.32 75.3102 144.816C68.886 143.312 62.2282 143.099 55.7235 144.19C52.2618 144.76 48.8769 145.724 45.6346 147.063C44.3523 147.471 43.1946 148.198 42.269 149.174C40.7068 151.235 44.3146 152.039 45.6713 152.393C53.0215 154.481 60.6129 155.595 68.2511 155.708C72.4731 155.78 76.6946 155.551 80.8834 155.021C82.0053 154.883 83.0705 154.673 84.1823 154.484C86.462 153.643 88.815 153.014 91.2111 152.607C91.4286 152.566 91.6534 152.591 91.8569 152.678C92.0603 152.766 92.2329 152.912 92.3526 153.099L92.381 153.135ZM57.0523 175.488C58.5538 175.085 60.0412 174.664 61.5225 174.16C67.26 172.276 72.7589 169.733 77.909 166.58C83.3271 163.161 88.3708 159.182 92.9574 154.709C90.1651 155.764 87.2732 156.535 84.3256 157.008L83.0005 157.45C80.1293 158.509 77.3141 159.714 74.566 161.061C69.0754 163.664 63.8539 166.8 58.9768 170.423C58.1363 171.075 52.1741 175.082 52.9966 176.143C53.4279 176.775 56.3522 175.679 57.0157 175.516L57.0523 175.488Z" fill="#91715B" fill-opacity="0.1"/>
</g>
<defs>
<clipPath id="clip0_1004_9947">
<rect width="161.355" height="252.022" fill="white" transform="translate(231.402 0.890869) rotate(33.8477)"/>
</clipPath>
<clipPath id="clip1_1004_9947">
<rect width="161.355" height="252.022" fill="white" transform="matrix(-0.830521 0.556988 0.556988 0.830521 134.009 0)"/>
</clipPath>
</defs>
</svg>
