<svg width="121" height="388" viewBox="0 0 121 388" fill="none" xmlns="http://www.w3.org/2000/svg">
<rect x="-24.5801" width="290.312" height="297.862" transform="rotate(65.6757 -24.5801 0)" fill="#91715B"/>
<g clip-path="url(#clip0_1191_8782)">
<path d="M-37.7455 282.295C-37.5976 280.328 -37.205 278.404 -37.1027 276.424C-37.0003 274.444 -36.8377 272.561 -36.6653 270.611C-36.1949 266.69 -35.8696 262.923 -35.4067 258.96C-34.7842 254.193 -33.9871 249.437 -33.0953 244.73C-32.8909 244.722 -32.6903 244.672 -32.5058 244.584C-32.3212 244.495 -32.1566 244.37 -32.0218 244.216L-31.476 243.645C-30.0301 243.793 -28.5777 243.867 -27.1243 243.867C-24.5336 243.814 -21.9475 243.623 -19.3772 243.294C-14.252 242.683 -9.18264 241.67 -4.21593 240.266C5.67644 237.415 15.0879 233.104 23.7073 227.475C28.5679 224.278 33.1448 220.669 37.3876 216.688C37.5476 216.508 37.658 216.291 37.708 216.056C37.758 215.821 37.7459 215.577 37.6727 215.348C37.5995 215.119 37.4679 214.914 37.2909 214.751C37.1138 214.589 36.8975 214.476 36.6632 214.422C15.9707 212.571 -4.69099 218.289 -21.488 230.515C-22.5036 231.233 -23.4909 231.99 -24.4535 232.764C-25.7707 233.374 -26.9516 234.243 -27.9256 235.319C-28.0786 235.502 -28.1671 235.73 -28.1774 235.968C-29.5162 237.175 -30.8095 238.396 -32.0462 239.693C-31.7628 238.37 -31.483 237.027 -31.1749 235.722C-28.9081 225.964 -26.0279 216.358 -22.5514 206.963C-22.5136 207.092 -22.4317 207.204 -22.3199 207.278C-22.2082 207.353 -22.0736 207.386 -21.9399 207.372C-12.6902 206.72 -3.54335 205.029 5.328 202.33C14.212 199.811 22.8567 196.513 31.1618 192.476C35.9279 190.166 40.5869 187.616 45.1044 184.876C45.2971 184.755 45.4493 184.578 45.5414 184.37C45.6336 184.162 45.6616 183.931 45.6219 183.706C45.5822 183.482 45.4766 183.275 45.3185 183.111C45.1604 182.947 44.9571 182.833 44.7344 182.785C25.2618 179.615 5.29811 183.539 -11.5265 193.842C-14.3685 195.586 -17.0962 197.509 -19.6929 199.6C-18.5308 196.785 -17.3478 193.967 -16.0909 191.2C-14.5552 187.694 -12.8105 184.151 -11.057 180.779C-9.42529 180.799 -7.801 180.555 -6.24707 180.057C-4.06051 179.497 -1.86414 178.872 0.30393 178.208C4.71353 176.824 9.04909 175.215 13.2935 173.386C21.6603 169.779 29.636 165.326 37.0961 160.095C39.1482 158.654 41.1794 157.217 43.1145 155.602C45.2473 154.086 47.1707 152.296 48.8348 150.277V150.277C48.8837 150.226 48.9204 150.164 48.9421 150.097C48.9638 150.03 48.97 149.958 48.96 149.888C48.9792 149.739 48.9551 149.588 48.8907 149.452C48.8263 149.316 48.7242 149.201 48.5966 149.122C48.469 149.042 48.3212 149.001 48.1708 149.003C48.0204 149.005 47.8737 149.05 47.7482 149.133C47.5763 149.216 47.4135 149.317 47.2625 149.434C43.2974 149.505 39.3529 150.022 35.5037 150.976C31.0112 151.932 26.5989 153.232 22.3059 154.864C13.7522 158.078 5.71317 162.523 -1.55712 168.058C-3.17142 169.292 -4.72911 170.603 -6.26219 171.931C-5.27418 170.203 -4.21234 168.528 -3.17511 166.835L-2.885 166.525C0.250007 161.334 3.50806 156.229 7.03678 151.314C8.5584 149.19 10.1538 147.118 11.7493 145.046C13.2633 144.951 14.7686 144.684 16.2776 144.439C18.5356 144.039 20.7936 143.64 23.0516 143.24C27.7975 142.4 32.4904 141.138 37.1229 139.779C46.3215 137.094 55.2828 133.654 63.9159 129.496C64.1037 129.422 64.2636 129.291 64.3724 129.122C64.4813 128.952 64.5336 128.752 64.5219 128.55C64.5102 128.349 64.4351 128.157 64.3073 128C64.1795 127.844 64.0055 127.733 63.8104 127.682C55.0334 125.806 45.9189 126.252 37.3672 128.976C32.9194 130.322 28.5928 132.04 24.4332 134.112C22.328 135.131 20.2586 136.231 18.2174 137.368L17.5301 137.748C23.6286 130.371 30.1655 123.368 37.1053 116.775L37.2307 116.753C45.4297 116.57 53.5986 115.694 61.65 114.135C69.8319 112.619 77.9015 110.55 85.8031 107.941C86.5963 107.671 86.8342 106.335 85.9583 106.016C78.0938 103.012 69.5804 102.118 61.2634 103.422C57.1244 104.059 53.0841 105.223 49.2412 106.887C48.6017 107.172 47.966 107.479 47.2466 107.8C55.5023 100.822 64.1913 94.3722 73.2615 88.4908C74.8463 87.4556 76.3611 86.3897 78.0124 85.3644C78.5743 85.0062 78.0254 84.2193 77.4524 84.5148C71.5313 87.676 65.7928 91.168 60.2642 94.9742C60.8724 93.4796 61.3863 91.9483 61.803 90.3894C62.6448 87.5727 63.2235 84.6841 63.5317 81.7605C64.1186 76.004 63.7383 70.1899 62.4063 64.559C62.2176 63.4927 60.6999 63.5673 60.2194 64.3854C57.461 69.2459 55.7621 74.6349 55.2343 80.1985C54.7065 85.7621 55.3617 91.3745 57.1569 96.6669C57.2041 96.7644 57.2636 96.8553 57.3342 96.9374C54.2911 99.1147 51.301 101.347 48.3712 103.677C48.8119 102.025 49.1407 100.35 49.4007 98.7728C50.0225 95.0197 50.18 91.2043 49.8698 87.4127C49.2754 79.7922 46.6542 72.4692 42.2778 66.2024C42.2077 66.1054 42.1117 66.0302 42.0008 65.9853C41.8899 65.9404 41.7685 65.9276 41.6507 65.9485C41.5329 65.9693 41.4233 66.023 41.3346 66.1032C41.2458 66.1835 41.1814 66.2871 41.1488 66.4022C41.0078 66.3451 40.8563 66.3183 40.7042 66.3237C40.5521 66.3291 40.4029 66.3664 40.2662 66.4333C40.1295 66.5002 40.0085 66.5952 39.911 66.712C39.8135 66.8289 39.7417 66.9649 39.7003 67.1114C35.8007 81.2136 36.2302 96.1624 40.9332 110.017L39.6214 111.134C35.1414 115.06 30.8329 119.143 26.6959 123.383C28.1748 115.835 28.1918 108.073 26.7459 100.518C25.3309 92.3706 22.4846 84.5377 18.3388 77.3823C18.2069 77.206 18.0288 77.0698 17.8241 76.9889C17.6194 76.9079 17.3963 76.8854 17.1795 76.9237C16.9628 76.9621 16.761 77.0598 16.5965 77.2061C16.432 77.3524 16.3114 77.5415 16.2481 77.7523C12.938 95.3506 14.2714 113.508 20.1167 130.434C18.3183 132.456 16.5273 134.519 14.7437 136.624C15.2164 132.33 15.1729 127.994 14.6142 123.71C13.9477 118.109 12.5839 112.614 10.5546 107.351C10.1026 106.138 9.58793 104.935 9.05601 103.757C8.69523 102.937 8.24952 102.002 7.20157 101.929C6.77143 101.958 6.36539 102.138 6.05535 102.438C5.7453 102.737 5.55124 103.137 5.50752 103.566C5.22799 105.014 5.07685 106.483 5.05586 107.958C4.63895 113.484 4.94105 119.04 5.95458 124.488C7.02516 130.169 8.84223 135.684 11.3585 140.889C10.2793 142.223 9.15827 143.564 8.10365 144.915C5.03692 148.908 2.14614 153.042 -0.667108 157.248C-0.242834 154.3 0.0233807 151.33 0.130386 148.353C0.268335 143.477 0.08182 138.598 -0.427917 133.747C-1.20684 124.202 -3.18346 114.794 -6.31119 105.744C-8.05737 100.696 -10.1597 95.7797 -12.6023 91.0304C-13.0615 90.1414 -14.3994 90.7447 -14.3731 91.6241C-13.9113 111.298 -11.8833 130.904 -8.30856 150.256C-7.85343 152.828 -7.3946 155.42 -6.76851 157.983C-6.39848 160.074 -6.02846 162.165 -5.42974 164.086C-9.52206 170.679 -13.2777 177.475 -16.6822 184.448C-16.8037 180.54 -17.1551 176.642 -17.7347 172.775C-18.4645 167.151 -19.6006 161.587 -21.134 156.127C-23.913 146.029 -28.3032 136.445 -34.1351 127.745C-37.3662 122.993 -41.0863 118.593 -45.2346 114.616C-45.4506 114.436 -45.7141 114.321 -45.9935 114.287C-46.2729 114.252 -46.5564 114.298 -46.81 114.421C-47.0636 114.543 -47.2766 114.736 -47.4236 114.976C-47.5705 115.216 -47.6451 115.493 -47.6385 115.775C-45.6581 137.161 -39.3139 157.914 -28.9978 176.752C-26.2512 181.794 -23.227 186.679 -19.9393 191.385C-21.797 195.509 -23.4897 199.711 -25.1124 203.945C-25.2043 202.085 -25.4045 200.223 -25.6526 198.456C-26.1476 194.786 -27.0106 191.175 -28.2286 187.678C-30.6513 180.671 -34.4325 174.21 -39.3555 168.667C-39.9487 167.996 -40.9262 168.686 -40.9258 169.419C-40.9576 184.906 -36.6191 200.087 -28.4089 213.218C-29.906 217.795 -31.3194 222.357 -32.5655 226.89C-32.9141 222.852 -33.4741 218.834 -34.243 214.854C-37.5654 196.367 -44.1383 178.615 -53.6568 162.422C-57.2129 156.327 -61.1796 150.48 -65.5296 144.924C-66.3148 143.898 -68.2764 144.267 -68.0973 145.766C-65.2418 172.967 -58.1927 199.563 -47.2005 224.608C-44.7785 230.13 -42.124 235.504 -39.3269 240.83C-43.4381 236.309 -48.1744 232.399 -53.3923 229.218C-60.1403 224.991 -67.577 221.98 -75.3648 220.321C-76.1938 220.144 -77.2253 221.016 -76.8116 221.892C-73.8725 227.917 -69.6451 233.224 -64.4286 237.435C-59.2121 241.646 -53.1339 244.659 -46.624 246.262C-43.5445 247.005 -40.3928 247.409 -37.2253 247.466C-38.944 257.119 -40.0194 266.875 -40.4443 276.67C-40.5368 278.584 -40.2972 280.547 -40.2569 282.481C-40.2166 284.414 -37.7853 283.897 -37.7455 282.295ZM60.7369 68.6494C61.5283 73.001 61.7336 77.4391 61.3473 81.8452C61.0831 84.4705 60.6285 87.0732 59.9872 89.6327C59.641 90.9661 59.1657 92.3008 58.7113 93.6319C56.5823 85.326 57.331 76.5438 60.8353 68.7182L60.7369 68.6494ZM48.0657 87.8183C48.3621 91.5214 48.1883 95.2471 47.5485 98.9065C47.2579 100.699 46.8512 102.471 46.331 104.211C46.1517 104.781 45.9441 105.314 45.7402 105.868L45.3739 106.234C47.3785 93.7585 46.3599 80.9838 42.4034 68.9832C45.6499 74.8016 47.6141 81.2471 48.1641 87.8871L48.0657 87.8183ZM40.8426 71.3726C42.6249 77.3614 43.7174 83.5342 44.0988 89.771C44.3976 95.8301 44.1078 101.904 43.2334 107.907C43.0465 108.069 42.8805 108.228 42.69 108.37C38.9801 96.4123 38.3639 83.7092 40.8992 71.4488L40.8426 71.3726ZM49.8214 108.703C53.4874 107.093 57.3452 105.961 61.3 105.335C65.2387 104.746 69.2357 104.654 73.1972 105.062C69.1495 105.181 65.1177 105.621 61.1394 106.377C55.97 107.331 50.9051 108.783 46.0157 110.714C47.2933 110.013 48.5573 109.358 49.878 108.779L49.8214 108.703ZM41.8862 114.549C48.0287 111.623 54.4939 109.43 61.1488 108.014C67.8834 106.74 74.7426 106.25 81.5898 106.552C81.7153 106.53 81.8801 106.609 82.0167 106.649C75.1624 108.845 68.1904 110.654 61.1336 112.07C54.7778 113.195 48.3591 113.964 41.9428 114.626L41.8862 114.549ZM24.3982 101.02C25.5913 108.863 25.6665 116.835 24.6216 124.699C24.6052 124.857 24.6334 125.016 24.703 125.159C24.5198 125.342 24.3613 125.543 24.1744 125.705L23.9061 122.971L23.2932 117.193L21.9722 104.856L20.6502 92.7567C20.4241 90.7483 20.2189 88.7362 19.951 86.7352L19.8178 85.9825C21.942 90.8235 23.4845 95.8993 24.413 101.104L24.3982 101.02ZM17.7437 82.7919C17.7604 84.1042 17.9308 85.4325 18.031 86.73C18.1944 88.7495 18.4205 90.7579 18.6257 92.77C19.0299 96.8815 19.4797 101.007 19.9257 105.111L21.2023 117.197C21.4469 119.31 21.6496 121.43 21.8733 123.547L22.1947 126.702L22.4056 127.894L21.8979 128.437C17.0223 113.758 15.6032 98.1512 17.7511 82.8337L17.7437 82.7919ZM35.4169 132.211C33.582 132.687 31.7755 133.2 29.9764 133.756C32.444 132.67 34.9663 131.713 37.533 130.888C44.9133 128.435 52.7642 127.74 60.4606 128.857C56.1791 128.615 51.8841 128.89 47.6684 129.676C43.5421 130.305 39.4543 131.166 35.4243 132.253L35.4169 132.211ZM7.49359 122.706C7.02393 119.69 6.76596 116.645 6.72156 113.593C6.69862 112.001 6.73471 110.378 6.84092 108.785L7.0489 106.549L7.13568 105.455L7.32532 105.918L8.1553 107.927C8.71442 109.38 9.20712 110.824 9.66541 112.317C10.6219 115.408 11.3535 118.565 11.8545 121.762C12.5718 127.431 12.8625 133.145 12.724 138.858L12.4757 139.16C10.0766 133.942 8.4028 128.42 7.50099 122.748L7.49359 122.706ZM13.3741 142.775L13.8805 142.103C14.497 141.867 15.0961 141.588 15.6734 141.268C18.2938 140.114 20.8317 138.738 23.4781 137.731C27.3625 136.161 31.3396 134.83 35.3869 133.747C39.4203 132.675 43.5122 131.835 47.6421 131.233C50.82 130.671 54.0031 130.625 57.3016 130.257C50.6334 133.128 43.7966 135.591 36.8291 137.632C32.3601 138.94 27.837 140.064 23.2879 141.042C20.8626 141.471 18.4768 142.001 16.0331 142.326C15.1488 142.569 14.3051 142.675 13.3815 142.817L13.3741 142.775ZM-2.1361 146.512C-2.22437 149.546 -2.491 152.547 -2.69861 155.517C-3.97482 146.6 -5.27194 137.687 -6.50634 128.763C-7.84194 119.146 -9.13202 109.542 -10.6312 99.9748C-4.54373 114.728 -1.64614 130.601 -2.1287 146.554L-2.1361 146.512ZM-4.2269 159.064C-4.65243 156.66 -5.24522 154.285 -5.72977 151.913C-6.59193 147.042 -7.45779 142.149 -8.31996 137.278C-9.82694 127.626 -10.9305 117.939 -11.6307 108.216C-11.8821 104.724 -12.0671 101.242 -12.2103 97.7531C-11.0207 108.13 -9.57649 118.483 -8.1778 128.822C-6.77912 139.161 -5.52086 149.073 -4.2047 159.19L-4.2269 159.064ZM34.0485 153.11C36.5413 152.453 39.0772 151.918 41.6316 151.487C42.7606 151.287 43.8896 151.088 45.0186 150.888L44.5305 151.298C34.865 155.164 25.4151 159.64 16.0107 164.129C11.1282 166.431 6.27636 168.784 1.45535 171.19C-1.02484 172.405 -3.55425 173.586 -6.05536 174.805C5.33589 164.405 19.1114 156.969 34.0559 153.151L34.0485 153.11ZM2.02206 173.052C6.91233 170.591 11.928 168.108 16.7421 165.703C25.2279 161.506 33.8022 157.444 42.2806 153.205C40.6147 154.513 38.9242 155.804 37.2225 157.033C33.5881 159.645 29.8413 162.069 25.982 164.305C18.2663 168.764 10.129 172.451 1.68864 175.31C-0.669999 176.116 -3.08525 176.845 -5.48699 177.529C-6.26056 177.666 -7.02914 177.953 -7.79161 178.153C-4.49862 176.535 -1.23763 174.858 2.02946 173.094L2.02206 173.052ZM-20.5842 170.929C-20.0773 173.794 -19.7204 176.663 -19.4053 179.54C-24.6887 163.491 -30.7899 147.723 -37.685 132.298C-39.3558 128.583 -41.0304 124.847 -42.8993 121.232C-30.6409 135.062 -23.6214 152.794 -20.5842 170.929ZM-42.1173 133.082C-42.6945 129.821 -43.2718 126.559 -43.849 123.298C-40.8899 130.515 -37.6737 137.6 -34.7982 144.832C-31.3057 153.601 -28.0522 162.44 -25.0376 171.351C-23.5603 175.718 -22.1281 180.115 -20.741 184.541C-30.922 168.823 -38.1649 151.388 -42.1173 133.082V133.082ZM28.2796 184.231C31.7082 184.039 35.1461 184.086 38.5682 184.373C37.5856 184.547 36.5182 184.973 35.7348 185.176C33.5273 185.739 31.3309 186.365 29.1309 186.97C24.7344 188.201 20.3626 189.449 15.9735 190.722C7.13316 193.321 -1.65961 196.028 -10.4048 198.84C-12.5691 199.525 -14.7126 200.206 -16.8523 200.909C-3.83112 190.931 11.8994 185.119 28.2796 184.231V184.231ZM-11.4748 201.445C-7.16329 199.977 -2.83746 198.55 1.50274 197.164C10.2454 194.337 19.0489 191.651 27.9131 189.105L35.2437 187.031L37.9763 186.267C24.0366 193.972 9.06595 199.642 -6.48034 203.105C-11.6074 204.228 -16.7998 205.104 -21.9602 206.039C-22.049 206.068 -22.129 206.119 -22.1926 206.188L-21.7774 205.122C-20.4234 204.732 -19.1065 204.132 -17.8853 203.722L-11.4748 201.445ZM-38.9345 172.021C-34.929 176.944 -31.8167 182.53 -29.7385 188.527C-28.579 191.886 -27.7356 195.346 -27.2194 198.862C-26.8444 202.029 -26.6621 205.215 -26.6734 208.404L-27.4951 210.706C-34.5353 198.993 -38.4725 185.679 -38.9345 172.021V172.021ZM19.3298 217.361C22.5328 216.988 25.7551 216.806 28.9797 216.817C22.1334 218.46 15.3783 220.497 8.61086 222.341C1.84338 224.186 -4.98571 225.804 -11.699 227.833C-2.17029 222.281 8.38532 218.718 19.3298 217.361V217.361ZM-21.2893 234.317C-19.6673 233.486 -17.9974 232.751 -16.2882 232.117C-12.5216 230.739 -8.65393 229.688 -4.82198 228.557C3.66711 226.084 12.1845 223.649 20.6773 221.198C24.433 220.123 28.2171 219.087 31.9469 217.866C31.5522 218.195 31.133 218.506 30.7174 218.838C29.0476 219.759 27.4 220.806 25.7339 221.747C23.6583 222.934 21.5446 224.027 19.3927 225.026C15.3533 226.999 11.1902 228.708 6.92972 230.142C-1.67723 233.046 -10.627 234.134 -19.4201 236.229C-21.6194 236.729 -23.7802 237.385 -25.8862 238.193C-24.4195 236.855 -22.8827 235.548 -21.2893 234.317ZM19.3039 226.961L19.4711 226.931C8.11615 233.87 -4.49091 238.511 -17.6345 240.592C-20.4151 241.084 -23.223 241.301 -26.0825 241.591C-26.5843 241.68 -27.0651 241.765 -27.5669 241.854C-26.9315 241.475 -26.27 241.142 -25.5872 240.857C-23.5902 239.925 -21.5356 239.122 -19.4362 238.453C-15.3361 237.253 -10.9173 236.514 -6.65723 235.609C2.31227 233.779 11.0287 230.875 19.3039 226.961V226.961ZM-64.6658 150.657C-51.1543 169.225 -41.7514 190.457 -37.0827 212.941C-35.7289 219.494 -35.0479 226.144 -33.9906 232.727C-34.1956 233.518 -34.3551 234.323 -34.5355 235.131C-37.7249 224.785 -41.2834 214.547 -44.8381 204.331C-48.9101 192.653 -53.1457 181.026 -57.7883 169.536C-59.7932 164.543 -61.9174 159.486 -63.9873 154.612C-64.2623 153.303 -64.4954 151.985 -64.6658 150.657ZM-61.8123 167.876C-62.2082 165.639 -62.6042 163.402 -63.0001 161.165C-55.5012 180.753 -48.4019 200.52 -42.0233 220.479C-39.8725 227.149 -37.9061 233.873 -35.818 240.554C-47.9782 217.724 -56.7355 193.24 -61.8123 167.876V167.876ZM-54.6164 231.073C-51.3372 233.064 -48.2318 235.327 -45.333 237.84C-43.7027 239.255 -42.1866 240.754 -40.6841 242.3C-46.4736 240.71 -52.0404 238.399 -57.2537 235.421C-60.4914 233.533 -63.6004 231.433 -66.5601 229.134C-68.8954 227.391 -71.0427 225.248 -73.2785 223.337C-66.7138 224.992 -60.4265 227.598 -54.6164 231.073V231.073ZM-69.197 229.342L-67.7119 230.545C-64.7028 232.906 -61.5217 235.038 -58.1951 236.925C-52.1774 240.368 -45.7692 243.077 -39.1072 244.996C-44.9281 244.531 -50.5952 242.896 -55.7688 240.188C-60.9425 237.48 -65.5161 233.755 -69.2155 229.237L-69.197 229.342Z" fill="#FFF1E0"/>
<path d="M82.657 83.4642C83.1959 83.2844 83.6754 82.961 84.044 82.5288C84.2906 82.2148 84.4688 81.8528 84.5674 81.4659C84.6592 81.1687 84.6847 80.8551 84.6419 80.5471C84.5875 80.1168 84.4481 79.7017 84.2318 79.3259L84.1874 79.075C84.0141 78.8996 83.8203 78.7457 83.6103 78.6166C83.1046 78.1432 82.4531 77.8555 81.7625 77.8008C81.3831 77.7828 81.0045 77.8498 80.6544 77.9969C80.4567 78.0765 80.2641 78.1682 80.0777 78.2715C79.9997 78.308 79.9283 78.357 79.8662 78.4167C79.5315 78.6736 79.2511 78.9944 79.0414 79.3605C78.8816 79.6123 78.763 79.8881 78.6901 80.1773C78.6361 80.3863 78.609 80.6012 78.6092 80.817L78.6573 81.0888C78.7035 81.5016 78.8474 81.8974 79.0773 82.2435L79.118 82.4734C79.3195 82.6493 79.5485 82.7909 79.7959 82.8925C79.7959 82.8925 79.7959 82.8925 79.7959 82.8925C80.1138 83.1468 80.477 83.3385 80.8662 83.4578C81.1437 83.5331 81.433 83.5551 81.7186 83.5225C81.7969 83.5205 81.8744 83.5068 81.9486 83.4818C82.3262 83.5444 82.4517 83.5222 82.657 83.4642Z" fill="#FFF1E0"/>
<path d="M83.7203 87.8903C83.9479 87.8268 84.1565 87.7085 84.3277 87.5456C84.4519 87.4488 84.5552 87.3278 84.6314 87.19C84.7714 87.0114 84.8674 86.8024 84.9115 86.5798L84.9346 86.1013L84.8495 85.6205C84.7787 85.3925 84.6532 85.1852 84.4839 85.0168C84.3487 84.8311 84.1665 84.6847 83.956 84.5927L83.8515 84.6112C83.5573 84.4734 83.2353 84.405 82.9105 84.4112C82.5855 84.4437 82.2724 84.5508 81.9956 84.724L81.639 85.0243C81.4286 85.2621 81.2793 85.5475 81.2041 85.856C81.1411 86.0963 81.1412 86.3488 81.2044 86.589C81.2256 86.8368 81.3123 87.0745 81.4557 87.2777C81.6407 87.5341 81.8846 87.7424 82.1669 87.8849C82.465 88.0133 82.794 88.0525 83.114 87.9976L83.7412 87.8866L83.7203 87.8903Z" fill="#FFF1E0"/>
<path d="M89.4647 83.5531C89.7447 83.4567 89.997 83.2936 90.2 83.078L90.4372 82.7126C90.5826 82.4431 90.6554 82.1404 90.6483 81.8343C90.6723 81.6046 90.6313 81.3727 90.5299 81.1652C90.4542 80.963 90.3259 80.7847 90.1582 80.6488C90 80.4885 89.8008 80.3746 89.5824 80.3195C89.3734 80.224 89.1436 80.1831 88.9145 80.2005L88.3918 80.293C88.1076 80.3806 87.8531 80.5451 87.6565 80.7682L87.3947 81.1164C87.2699 81.3911 87.205 81.6892 87.2045 81.991C87.191 82.2202 87.2316 82.4493 87.3229 82.66C87.399 82.8688 87.5285 83.054 87.6983 83.1973C87.8787 83.3759 88.1107 83.4932 88.3614 83.5327C88.5594 83.6346 88.7849 83.6703 89.0047 83.6345L89.4647 83.5531Z" fill="#FFF1E0"/>
<path d="M34.435 109.852C34.8779 109.704 35.2772 109.448 35.5969 109.108L35.7899 108.858L35.9583 108.591C36.0631 108.371 36.1236 108.134 36.1363 107.891C36.248 107.548 36.301 107.189 36.2932 106.828C36.2671 106.071 35.9468 105.354 35.4004 104.83C35.3269 104.754 35.2427 104.689 35.1507 104.637C34.9862 104.488 34.7972 104.368 34.5921 104.283C34.2007 104.089 33.7695 103.988 33.3325 103.988C33.0045 103.989 32.679 104.046 32.3707 104.159C31.9775 104.322 31.624 104.569 31.3343 104.881C31.3343 104.881 31.2384 105.071 31.1868 105.144C30.9446 105.412 30.7575 105.724 30.6363 106.064C30.5151 106.403 30.4622 106.764 30.4806 107.124C30.4808 107.43 30.5347 107.735 30.6397 108.023C30.8048 108.439 31.048 108.821 31.3561 109.147L31.5357 109.309C31.6982 109.459 31.8803 109.586 32.0771 109.687C32.4989 109.884 32.9585 109.987 33.424 109.988C33.7661 109.998 34.1076 109.952 34.435 109.852Z" fill="#FFF1E0"/>
<path d="M35.0601 100.47C35.2814 100.399 35.4816 100.275 35.6429 100.108C35.7719 100.024 35.8777 99.9089 35.9503 99.7733C36.0581 99.6623 36.1308 99.5219 36.1591 99.3697C36.2224 99.229 36.2542 99.0762 36.2524 98.922C36.2748 98.6852 36.2326 98.4468 36.1303 98.232L36.0896 98.0021C36.0603 97.7703 35.9767 97.5487 35.8457 97.3552C35.7185 97.1627 35.55 97.001 35.3523 96.8819C35.174 96.7234 34.9534 96.6201 34.7175 96.5846L34.2353 96.5406C33.9238 96.5702 33.6242 96.675 33.3622 96.846L33.0057 97.1463C32.7957 97.3724 32.6513 97.6514 32.5879 97.9534V97.9534L32.5304 98.4811L32.6599 99.2128C32.7669 99.5233 32.9496 99.8022 33.1916 100.024C33.3222 100.126 33.4609 100.217 33.6062 100.296L34.0442 100.456L34.5263 100.5L35.0601 100.47Z" fill="#FFF1E0"/>
<path d="M31.6252 100.431C31.4476 99.4274 29.8425 99.4959 30.0238 100.52C30.2052 101.545 31.8028 101.435 31.6252 100.431Z" fill="#FFF1E0"/>
<path d="M13.8657 154.935C13.9579 154.931 14.0493 154.915 14.1375 154.887C14.351 154.805 14.5568 154.703 14.7523 154.584C15.1125 154.324 15.4206 153.999 15.6607 153.626C15.8227 153.353 15.9377 153.056 16.001 152.746L15.9603 152.516C15.9904 152.286 15.9997 152.053 15.9882 151.821L15.818 150.859C15.7088 150.571 15.5592 150.3 15.3736 150.054C15.1172 149.691 14.7764 149.396 14.3806 149.195C14.0491 149.004 13.6746 148.899 13.292 148.891C13.0357 148.896 12.7817 148.941 12.5393 149.025C12.5393 149.025 12.3929 149.051 12.3093 149.065C11.9316 149.071 11.5592 149.155 11.2158 149.312C10.8724 149.469 10.5655 149.696 10.3148 149.979C9.85773 150.507 9.58308 151.169 9.53158 151.865C9.48009 152.562 9.65449 153.256 10.0289 153.846L10.4424 154.355L10.6713 154.552C10.9199 154.75 11.1953 154.912 11.4895 155.032C11.6776 154.999 11.9065 155.196 12.1095 155.246C12.3124 155.296 12.5707 155.294 12.7909 155.319C13.1665 155.246 13.5289 155.117 13.8657 154.935V154.935Z" fill="#FFF1E0"/>
<path d="M19.6613 150.158L19.954 150.106C20.0894 150.021 20.2021 149.905 20.2823 149.767C20.3561 149.688 20.4059 149.59 20.426 149.483C20.4973 149.33 20.5269 149.162 20.5119 148.994L20.412 148.429C20.3614 148.234 20.2553 148.058 20.1067 147.923C20.037 147.821 19.9484 147.734 19.8458 147.667C19.7421 147.59 19.6222 147.537 19.4952 147.513C19.318 147.417 19.1151 147.377 18.9146 147.4L18.5383 147.467L18.1619 147.534C17.9963 147.629 17.8572 147.765 17.7575 147.929C17.6843 148.027 17.6309 148.139 17.6002 148.258C17.5399 148.376 17.5111 148.507 17.5168 148.64C17.4982 148.841 17.534 149.043 17.6204 149.225L17.6833 149.58L17.9306 149.882L18.2259 150.088C18.5865 150.266 19.0009 150.3 19.3858 150.185L19.6613 150.158Z" fill="#FFF1E0"/>
<path d="M23.6543 150.788L23.8843 150.747C23.9918 150.755 24.0997 150.736 24.1979 150.692L24.3429 150.536C24.3945 150.477 24.4266 150.404 24.4351 150.326C24.4491 150.218 24.4297 150.109 24.3796 150.013L24.3389 149.783L24.3019 149.573C24.2464 149.48 24.1658 149.405 24.0693 149.356C24.0133 149.305 23.9476 149.265 23.8761 149.239C23.8049 149.24 23.7342 149.252 23.6671 149.276C23.5522 149.264 23.4363 149.285 23.3325 149.335L23.1235 149.372L22.9353 149.406L22.8186 149.599C22.7563 149.693 22.7234 149.804 22.724 149.917C22.712 150.032 22.7325 150.148 22.7832 150.252V150.252C22.7774 150.338 22.7927 150.424 22.8276 150.503C22.8623 150.573 22.9177 150.631 22.9864 150.669L23.1758 150.765C23.276 150.768 23.3758 150.751 23.4685 150.713V150.713L23.6543 150.788Z" fill="#FFF1E0"/>
</g>
<defs>
<clipPath id="clip0_1191_8782">
<rect width="200.304" height="189.327" fill="white" transform="translate(85.4297 58) rotate(79.9635)"/>
</clipPath>
</defs>
</svg>
